<svg width="1222" height="210" viewBox="0 0 1222 210" fill="none" xmlns="http://www.w3.org/2000/svg">
<g clip-path="url(#clip0_1486_9157)">
<path d="M1222 0H0V278.634H1222V0Z" fill="#5548FF"/>
<path d="M1108.23 151.617V136.138C1108.23 135.503 1108.64 133.588 1109.46 133.453C1110.97 133.206 1120 135.503 1123.29 135.479C1129.84 135.431 1135.7 132.793 1134.88 125.427C1134.08 126.722 1132.18 126.762 1131.27 127.437C1130.26 128.192 1132.69 131.569 1126.05 132.491C1124.09 132.769 1109.64 132.356 1109.02 131.776C1108.74 131.514 1109.22 125.872 1109.03 124.632C1113.89 126.047 1120.66 128.375 1124.12 123.441C1122.5 121.001 1120.9 123.607 1118.92 123.798C1116.8 124.005 1109.84 124.323 1108.6 123.067C1106.66 121.12 1104.34 102.328 1100.41 98.6968C1105.54 89.3761 1111.13 80.1826 1117.8 71.8631C1126.71 60.7308 1149.52 35.7566 1164.64 50.4884C1176.45 61.9942 1160.27 94.9065 1154.01 107.207C1149.19 116.686 1140.3 133.079 1134.05 141.263C1130.19 146.301 1114.49 149.559 1108.24 151.625L1108.23 151.617Z" fill="#FDFDFD"/>
<path d="M256.97 206.397C255.418 205.872 256.397 199.237 256.158 197.283C254.256 181.693 237.593 159.563 220.772 159.563H206.45C206.02 159.563 204.309 161.272 203.672 159.968C210.279 150.529 229.433 142.932 240.65 142.837C241.669 142.829 243.349 143.806 243.437 143.695C243.612 143.48 243.007 142.09 243.938 141.24C247.927 137.608 263.641 136.75 268.943 137.696C272.566 138.347 288.782 145.34 289.268 148.812C289.443 150.076 288.249 152.483 288.288 154.279C288.4 158.88 291.521 164.029 290.382 169.082C297.117 166.579 294.665 154.001 291.17 149.249C296.568 148.733 301.121 154.359 303.518 158.753C307.395 165.872 306.997 172.15 308.589 179.849C308.302 185.221 289.451 197.45 284.547 200.183C277.485 204.116 262.853 210.807 254.972 211.172C250.936 211.355 256.485 206.882 256.962 206.397C262.009 204.018 262.009 204.018 256.962 206.397H256.97Z" fill="#FDFDFD"/>
<path d="M625.322 177.02C631.404 174.676 636.061 177.91 641.746 178.53C644.237 178.8 646.267 177.33 647.573 178.991C646.005 188.574 641.244 200.675 640.512 210.052C640.384 211.72 639.938 212.221 642.016 211.951L650.781 177.823C655.096 178.18 658.678 177.656 662.707 176.234C663.67 177.282 656.362 199.929 655.757 203.822C655.621 204.672 654.825 207.31 656.338 207.183L666.297 176.194C668.964 175.455 671.304 175.511 674.075 174.462C675.46 173.937 680.81 169.948 680.181 172.61C678.286 180.604 672.729 192.833 669.227 200.58C667.698 203.973 665.214 211.172 662.675 213.095C650.192 222.567 595.835 224.219 585.12 212.785C582.15 209.623 572.151 185.713 570.058 180.191C568.903 177.163 566.961 172.88 567.653 169.885C571.108 173.897 575.543 174.899 580.399 176.218C583.129 186.722 587.858 196.734 590.342 207.191C592.531 206.611 591.21 203.838 590.891 202.273C589.148 193.794 586.043 185.435 583.973 177.036L596.695 177.831C596.344 181.851 604.067 211.855 605.85 211.943C607.394 212.022 606.606 209.654 606.503 208.939C605.913 204.799 599.425 179.094 600.675 177.823C607.816 178.204 614.177 176.162 621.366 177.028C622.194 181.565 621.668 210.759 622.958 211.967C623.125 212.126 624.693 211.863 625.338 211.967V177.036L625.322 177.02Z" fill="#FDFDFD"/>
<path d="M217.898 145.968C212.198 148.376 204.882 151.53 201.411 156.91C200.543 158.26 199.826 161.431 199.5 161.757C198.322 162.933 189.071 166.723 185.775 169.893C182.48 173.064 181.429 178.03 179.797 179.802C179.216 180.43 170.865 185.428 170.252 184.959C183.578 158.165 161.423 126.484 131.681 128.622C129.659 128.765 127.677 129.615 125.774 129.877C122.239 130.354 125.344 127.049 126.578 125.904C135.749 117.362 163.899 110.95 176.135 112.039C193.657 113.596 216.775 126.54 217.906 145.976L217.898 145.968Z" fill="#FDFDFD"/>
<path d="M1105.84 222.266L1032.74 203.14C1032.55 194.002 1033.09 184.8 1031.16 175.813C1031.61 174.828 1032.07 175.114 1032.69 174.971C1038.5 173.597 1046.6 175.567 1052.81 173.914C1067.88 176.004 1081.56 187.955 1097.36 184.983L1102.86 168.885L1105.84 162.734V222.266Z" fill="#FDFDFD"/>
<path d="M673.86 142.098C688.142 147.788 689.814 164.792 674.401 170.831C671.4 172.007 656.219 175.027 652.668 175.337C644.492 176.052 632.598 171.022 626.715 172.476C625.163 172.865 623.977 174.494 621.748 174.518C618.484 174.55 613.309 171.213 610.642 171.475C609.074 171.634 605.372 174.025 602.435 174.431C595.007 175.464 577.509 173.271 570.957 169.735C559.836 163.727 560.289 152.396 569.691 144.943C577.533 138.721 575.606 141.677 579.157 146.469C593.152 165.348 609.321 151.801 624.9 151.562C632.805 151.443 640.806 155.217 648.783 155.575C658.535 156.012 670.986 152.563 673.852 142.091L673.86 142.098Z" fill="#FDFDFD"/>
<path d="M1028.68 138.912C1028.1 139.5 1021.37 137.839 1020.72 140.493C1048.82 146.532 1077.28 151.419 1105.84 154.796L1095.89 181.765C1093.83 184.252 1088.34 182.376 1085.62 181.725C1076.56 179.564 1064.54 172.372 1056.13 171.459C1048.34 170.616 1028.39 171.387 1020.31 172.237C1018.5 172.428 1017.47 172.976 1015.96 173.842C1017.67 162.71 1018.81 151.546 1019.29 140.255C1019.74 139.087 1026.24 135.098 1026.78 135.01C1028.79 134.692 1029.14 138.435 1028.68 138.904L1028.68 138.912Z" fill="#FDFDFD"/>
<path d="M1105.05 152.412L1058.46 144.529C1057.17 129.734 1059.69 112.221 1065.93 98.6888C1074.82 79.388 1089.72 82.5982 1098.28 100.032C1106.25 116.265 1105.99 134.78 1105.05 152.412Z" fill="#FDFDFD"/>
<path d="M213.217 215.916C215.374 211.466 217.436 208.081 217.245 202.813C216.632 186.23 199.094 176.273 183.785 178.602C181.882 176.901 192.558 168.518 193.879 167.644C217.189 152.197 250.354 173.31 252.185 199.651C252.448 203.369 251.286 206.5 251.954 209.996C240.403 215.638 226.073 216.639 213.224 215.908L213.217 215.916Z" fill="#FDFDFE"/>
<path d="M137.636 189.719C138.225 186.549 140.709 184.864 141.998 181.773C151.273 159.485 123.616 139.103 103.436 148.448C109.621 125.738 140.549 128.114 155.874 140.184C165.379 147.677 171.804 162.925 170.196 174.979C169.949 176.815 166.558 185.889 165.483 186.946C161.63 190.72 143.017 191.292 137.644 189.727L137.636 189.719Z" fill="#FDFDFD"/>
<path d="M599.855 121.455C598.923 128.495 608.508 132.468 614.144 133.795C621.89 135.623 645.399 133.001 651.187 127.82C653.081 126.119 653.997 121.535 655.772 121.59C659.275 121.709 664.481 124.649 667.108 127.001C679.814 138.356 668.868 149.481 655.748 152.222C644.738 154.526 636.849 149.441 626.118 149.242L634.063 144.872L634.867 143.696C620.25 147.232 604.607 157.967 589.267 150.688C569.277 141.209 583.073 122.536 599.863 121.455H599.855Z" fill="#FDFDFD"/>
<path d="M1162.32 165.11L1153.57 164.315L1152.65 200.708L1107.44 222.265L1108.24 159.556C1113.14 161.606 1118.16 185.706 1120.56 185.738C1124.35 182.249 1129 177.323 1133.43 174.78C1138.19 172.039 1144.09 171.944 1148.06 167.947L1152.78 145.269C1154.05 144.991 1154.42 145.666 1155.16 146.453C1156.72 148.113 1163.12 164.212 1162.32 165.11H1162.32Z" fill="#FDFDFD"/>
<path d="M133.663 185.754C131.076 183.449 136.856 176.798 136.036 173.85L128.911 182.21C123.155 186.357 104.55 183.616 97.4968 181.741C94.3762 180.914 91.3112 177.323 91.4863 182.567C99.1925 185.372 108.316 187.526 116.571 187.382C119.899 187.327 131.187 184.323 132.859 185.34C133.536 185.754 134.865 188.455 134.451 188.916C122.144 192.039 89.4324 193.954 82.5781 180.748C76.9895 169.981 93.8189 153.644 103.245 150.243C119.66 144.315 141.457 156.155 139.96 174.923C139.825 176.616 136.657 188.408 133.663 185.746V185.754Z" fill="#FDFDFD"/>
<path d="M171.056 207.986C170.697 210.139 171.255 210.354 172.982 211.172C179.009 214.017 188.665 213.882 195.313 213.532C198.911 213.342 206.307 211.021 209.228 212.372C212.357 213.818 211.983 215.098 208.894 215.98C200.137 218.491 179.128 218.292 170.506 215.28C143.798 205.96 175.673 179.071 192.916 180.207C201.904 180.803 211.72 190.251 213.018 199.071C213.32 201.113 214.061 208.773 211.919 209.472C198.123 209.853 184.557 212.007 171.064 208.002L171.056 207.986Z" fill="#FDFDFD"/>
<path d="M246.446 137.147L221.17 143.687C219.729 125.403 201.682 113.492 184.59 111.505C183.786 111.41 179.415 112.467 181.398 110.353C181.867 109.853 192.614 105.514 194.095 105.157C205.639 102.344 214.276 103.114 225.119 107.588C237.092 112.523 252.584 122.09 246.438 137.147H246.446Z" fill="#FDFDFD"/>
<path d="M654.762 84.9504C655.224 85.5145 654.635 87.803 653.504 88.0334C652.748 88.1923 648.935 87.1037 646.475 87.3898C638.195 88.3751 632.193 94.5889 629.311 102.01C636.579 102.082 643.84 103.862 648.393 109.941C661.17 127.016 635.584 131.315 623.372 131.8C589.65 133.135 601.32 97.664 626.907 102.408C628.172 93.3493 634.573 87.064 643.426 85.1411C645.304 84.7279 653.783 83.7505 654.762 84.9504Z" fill="#FDFDFD"/>
<path d="M1151.98 138.92C1153.34 140.462 1145.02 163.203 1145.46 167.327C1135.42 169.782 1128.09 174.407 1120.97 181.781C1118.63 172.118 1115.17 162.702 1109.03 154.796L1151.98 138.912V138.92Z" fill="#FDFDFD"/>
<path d="M310.275 177.816C310.817 162.385 302.299 149.401 288.526 142.758L276.855 137.347C281.385 136.743 286.249 135.297 290.787 134.963C297.395 134.478 313.308 135.646 319.024 138.515C337.756 147.915 324.74 171.951 310.267 177.816H310.275Z" fill="#FDFDFD"/>
<path d="M255.385 107.962C256.842 113.842 255.663 122.447 252.391 127.588C252.017 128.184 251.707 129.877 250.608 128.605C250.361 128.327 249.74 123.528 248.658 121.414C245.187 114.62 231.088 105.959 223.764 104.179C222.403 103.846 216.106 104.632 217.992 102.423C218.295 102.074 225.221 98.7919 226.312 98.4105C236.151 94.9619 255.226 93.8495 260.289 105.053C264.564 114.501 260.185 124.799 253.387 131.768C251.524 130.337 252.575 130.6 253.307 129.328C257.16 122.678 261.634 114.779 255.377 107.969L255.385 107.962Z" fill="#FDFDFD"/>
<path d="M943.551 188.932V218.3H911.333C909.017 218.3 912.703 208.391 913.419 206.89C918.896 195.416 931.339 189.909 943.551 188.932Z" fill="#FCFCFC"/>
<path d="M792.389 23.8141V51.6013H759.773C760.673 34.8749 776.165 23.4724 792.389 23.8141Z" fill="#FCFCFC"/>
<path d="M494.046 187.335C491.801 189.496 486.332 184.268 484.541 183.735C475.187 180.954 472.074 190.601 461.407 187.764C458.78 187.065 455.778 183.537 453.016 183.386C450.253 183.235 447.571 186.222 444.951 187.176C434.523 190.982 433.44 183.799 426.808 183.33C420.583 182.885 417.55 190.14 407.893 187.971C405.617 187.462 403.547 184.76 401.541 183.998C393.444 180.907 391.136 188.217 386.272 187.367C380.723 186.389 389.129 181.94 391.12 181.097C403.69 175.758 404.112 184.498 412.511 184.244C417.813 184.085 420.519 179.031 426.801 179.373C431.458 179.627 435.757 184.069 439.578 184.228C444.275 184.427 447.642 179.111 453.072 179.357C458.501 179.603 461.271 186.516 469.36 183.735C471.342 183.052 473.571 180.16 476.333 179.587C480.911 178.634 485.544 179.603 489.54 181.924C490.575 182.528 495.559 185.881 494.054 187.335H494.046Z" fill="#FCFCFC"/>
<path d="M494.047 211.157C491.73 213.39 486.436 208.161 484.708 207.383C476.166 203.537 473.563 211.673 465.817 212.007C459.114 212.293 456.797 207.486 452.268 207.144C446.082 206.683 442.5 214.542 433.138 211.197C430.264 210.172 428.624 207.375 425.209 207.136C419.286 206.723 416.635 213.843 408.093 211.578C404.653 210.664 402.393 206.516 398.157 206.342C393.078 206.127 391.311 210.672 388.596 211.165C387.227 211.411 383.74 211.197 384.25 209.194C384.361 208.749 391.088 204.451 391.884 204.101C395.697 202.416 399.16 202.44 402.982 203.99C405.856 205.158 407.639 207.796 410.911 208.042C416.316 208.439 419.246 203.354 424.452 203.195C430.431 203.012 433.09 208.694 439.459 207.939C445.851 207.184 447.411 200.756 456.041 204.228C457.88 204.967 459.679 207.112 461.383 207.629C471.7 210.728 474.176 197.816 487.598 204.498C488.816 205.102 495.599 209.655 494.031 211.165L494.047 211.157Z" fill="#FBFBFC"/>
<path d="M395.189 191.499C403.58 190.14 406.08 195.925 410.928 196.131C415.346 196.314 419.741 191.205 425.035 191.507C429.819 191.777 432.908 196.147 437.167 196.147C441.729 196.147 445.248 191.006 450.685 191.26C454.928 191.459 459.943 196.711 465.014 196.719C471.144 196.719 473.222 190.156 482.544 191.3C484.527 191.546 494.446 196.226 494.056 198.054C493.132 202.345 486.222 196.465 485.084 195.917C477.513 192.285 474.711 198.459 468.645 199.699C457.85 201.916 455.239 194.653 449.101 195.225C446.338 195.48 444.189 198.149 441.713 199.016C432.16 202.337 429.684 194.987 423.673 195.233C419.438 195.408 416.341 200.255 410.952 200.088C404.106 199.874 401.033 191.57 392.729 196.187C390.524 197.41 390.66 199.5 387.069 199.333C378.83 198.968 392.244 191.991 395.205 191.507L395.189 191.499Z" fill="#FBFBFC"/>
<path d="M500.971 71.5293C502.078 71.2353 502.428 71.6565 503.232 72.1889C508.311 75.5977 514.752 84.6641 520.285 88.5099L501.6 106.357L482.916 88.5099C486.594 86.5632 498.687 72.1253 500.963 71.5293H500.971Z" fill="#FBFCFC"/>
<path d="M924.181 73.1985C927.238 72.9124 939.594 87.6045 942.698 90.2108C943.009 91.9828 926.673 104.982 924.858 107.93L906.174 90.0996C909.589 87.6125 921.116 73.4845 924.181 73.1985Z" fill="#FBFBFC"/>
<path d="M158.049 33.5082C161.201 33.2142 173.294 47.9461 176.606 50.4094C173.74 52.6819 160.548 67.8429 158.033 67.3979L140.033 50.4094C143.448 47.9223 154.976 33.7943 158.041 33.5082H158.049Z" fill="#FBFCFC"/>
<path d="M165.476 227.827C164.831 226.572 166.806 226.604 167.865 227.033C207.629 230.203 255.474 226.397 292.755 211.538C307.754 205.563 332.194 193.445 330.96 174.637C335.283 178.483 329.71 187.366 326.955 190.894C299.331 226.222 206.634 232.039 165.476 227.827Z" fill="#D9DDEA"/>
<path d="M704.596 210.871C696.412 219.739 675.379 224.808 663.677 226.803C634.269 231.809 596.415 232.27 567.708 223.791C566.124 223.322 556.539 220.311 556.109 219.874C556.053 219.818 555.815 218.197 556.499 218.308C561.96 221.113 568.385 222.885 574.395 224.26C604.83 231.229 671.94 231.531 698.442 213.867C704.206 210.021 707.701 206.834 706.475 199.254C707.796 199.77 708.051 203.894 707.916 204.991C707.693 206.779 705.814 209.544 704.588 210.871H704.596Z" fill="#D0D5E5"/>
<path d="M1174.27 215.925C1165.42 222.369 1152.72 225.039 1141.92 226.906C1102.34 233.763 1059.94 226.707 1023.61 210.267L1013.57 204.021C1019.54 205.889 1025.17 209.814 1031.09 212.325C1074.01 230.466 1131.01 234.502 1174.27 215.933V215.925Z" fill="#CBD2E3"/>
<path d="M699.302 86.5241C699.342 96.7745 704.262 97.2512 712.04 99.6271C712.796 99.8575 713.847 99.7701 713.616 100.803C704.198 101.192 701.245 104.458 699.286 113.119C699.008 114.359 699.82 114.502 697.718 114.311C698.466 105.785 690.991 101.026 683.396 100.422C686.676 98.4034 689.924 99.4364 693.34 96.846C696.739 94.2715 696.596 91.3235 697.702 87.6922C698.045 86.5639 697.201 86.2857 699.302 86.5241Z" fill="#FBFBFC"/>
<path d="M101.829 85.7455L94.6243 88.463C89.3144 91.1726 88.8128 95.4714 87.9132 100.827C86.4405 92.2056 81.9983 87.4062 73.1855 86.1348C82.3963 84.6807 85.5568 80.9541 87.9132 72.2373C89.1949 80.7951 93.2152 84.7205 101.829 85.7534V85.7455Z" fill="#FCFCFC"/>
<path d="M1026.29 97.6479L1034.24 106.365C1024.23 107.445 1016.61 99.6423 1017.53 89.7019C1024.1 88.9311 1034.83 92.777 1036.46 99.7933C1036.73 100.977 1036.88 104.799 1035.44 104.767C1034.55 104.752 1029.09 96.8612 1026.29 97.6479Z" fill="#FCFCFC"/>
<path d="M1043.79 100.016L1044.58 88.1129C1042.31 87.7395 1043.26 88.5897 1042.89 89.9484C1041.96 93.3414 1042.16 96.5436 1042.19 100.016C1041.12 101.216 1037.94 96.6469 1037.51 95.5742C1034.05 86.9766 1040.35 82.2806 1044.98 76.2178C1048.18 78.8479 1050.41 85.2047 1050.19 89.273C1050.09 90.9576 1045.77 102.344 1043.79 100.016Z" fill="#FBFBFC"/>
<path d="M1015.95 108.756C1021.29 107.835 1028.65 107.302 1033.67 109.718C1036.23 110.95 1041.65 116.917 1039.47 119.921C1037.93 122.05 1028.69 121.097 1026 119.762C1022 117.791 1017.72 112.801 1015.96 108.749L1015.95 108.756Z" fill="#FBFBFC"/>
<path d="M996.054 50.02L989.399 52.4912C984.36 54.3824 983.444 59.595 982.927 64.299L978.5 54.4301C975.571 52.0065 971.757 51.3629 968.215 50.4014C976.009 48.7487 981.836 45.2286 982.146 36.5039C984.232 45.1491 986.748 48.8838 996.062 50.02H996.054Z" fill="#FBFBFC"/>
<path d="M1044.44 132.436C1042.94 135.034 1033.88 135.32 1031.04 134.581C1028.57 133.93 1021.49 127.962 1022.36 125.126C1024.05 119.619 1048.32 125.761 1044.44 132.436Z" fill="#FBFBFC"/>
<path d="M1046.98 114.311C1046.39 108.916 1045.34 105.682 1047.87 100.517C1049.16 97.8786 1057.02 88.3673 1058.75 94.2314C1060.67 100.779 1054.5 113.596 1046.98 114.311Z" fill="#FBFBFC"/>
<path d="M823.414 204.816L813.455 208.765C810.804 211.22 810.796 215.225 809.49 218.316C808.264 209.544 804.132 206.333 795.559 205.213C804.053 205.126 808.535 199.269 809.49 191.315C809.761 199.428 814.808 205.578 823.406 204.824L823.414 204.816Z" fill="#FAFAFB"/>
<path d="M1160.75 115.098L1164.73 103.6L1162.98 105.03L1159.95 111.927C1160.13 106.15 1158.39 100.986 1163.99 97.3146C1166.22 95.8525 1171.67 92.8489 1171.53 96.8378C1171.24 104.72 1170.43 114.255 1160.74 115.098H1160.75Z" fill="#FBFBFC"/>
<path d="M1162.33 124.625C1164.85 121.311 1169.38 121.343 1172.67 119.468C1170.01 117.823 1161.8 122.336 1165.12 116.703C1167.56 112.555 1179.7 112.157 1183 116.297C1178.02 125.983 1172.36 126.198 1162.33 124.625Z" fill="#FBFBFC"/>
<path d="M1173.47 134.169C1171.31 141.558 1161.11 146.239 1154.39 142.488C1153.14 138.531 1161.5 140.136 1163.13 137.728C1160.01 136.425 1156.74 138.134 1153.58 138.118C1157.99 130.768 1166.39 132.714 1173.47 134.169Z" fill="#FBFBFB"/>
<path d="M1118.57 48.4306C1117.75 50.0437 1114.77 49.5828 1113.07 50.4648C1110.32 51.903 1108.49 55.6615 1109.03 58.7366C1106.58 59.3166 1107.68 56.6786 1106.83 54.9861C1104.39 50.1708 1102.17 49.9563 1097.09 48.812C1103.84 47.8109 1107.03 44.9662 1107.84 38.085C1108.61 44.5133 1111.84 48.3989 1118.58 48.4227L1118.57 48.4306Z" fill="#F8F8FA"/>
<path d="M70.0077 107.97L62.8986 110.783C60.7969 112.841 60.2158 115.662 59.2764 118.284C58.5599 115.892 58.337 113.469 56.4264 111.593C53.5843 108.812 50.6468 110.608 48.5371 107.962C54.7625 108.852 58.4644 104.092 59.2764 98.4189C60.4944 104.378 63.424 108.407 70.0156 107.962L70.0077 107.97Z" fill="#F8F9FB"/>
<path d="M1054.92 143.679C1051.2 144.998 1048.61 140.373 1047.36 137.346C1045.95 133.937 1044.98 129.48 1043.41 125.419C1039.34 114.93 1048.39 115.359 1048.6 126.659C1048.64 128.693 1047.26 131.077 1047.87 132.833C1048.27 133.969 1049.91 134.191 1050.51 135.01C1051.39 136.218 1055.9 142.797 1054.93 143.687L1054.92 143.679Z" fill="#F5F6F8"/>
<path d="M1059.7 107.962C1057.25 111.697 1056.85 124.077 1055 126.5C1054.45 127.231 1053.27 126.945 1052.61 127.454C1051.7 128.169 1052.14 129.583 1050.96 129.377C1047.11 119.563 1050.85 116.369 1056.99 109.607C1057.8 108.725 1058.17 107.613 1059.7 107.946V107.962Z" fill="#F2F4F7"/>
<path d="M1093.91 69.8694C1095.64 71.8638 1090.08 71.2758 1088.68 72.1816C1086.99 73.2702 1086.91 76.8539 1085.09 74.9071C1082.98 72.6504 1082.44 70.0283 1078 70.6401C1080.23 67.7716 1083.82 67.3902 1085.55 63.5205C1086.97 65.0064 1087.77 67.0644 1089.52 68.2722C1090.82 69.1701 1093.75 69.6866 1093.91 69.8614V69.8694Z" fill="#F8F8FA"/>
<path d="M1046.97 142.885C1046.45 143.361 1034.01 140.986 1033.17 140.509C1028.68 138.014 1041.14 136.051 1043.23 136.655C1044.77 137.108 1047.56 142.344 1046.98 142.885H1046.97Z" fill="#F4F5F8"/>
<path d="M64.4356 174.645C59.6272 193.445 82.1168 201.089 93.8751 210.354C81.7984 204.935 59.4123 192.301 62.8753 176.623C63.1698 175.28 61.9757 174.247 64.4356 174.645Z" fill="#D0D6E7"/>
<path d="M1158.35 106.373C1158.25 109.289 1158.73 112.237 1157.99 115.121C1157.72 116.17 1154.21 123.52 1152.8 122.241C1150.73 116.837 1153.66 112.547 1156.38 107.938C1156.98 106.913 1156.23 105.936 1158.35 106.373Z" fill="#EFF1F5"/>
<path d="M1176.65 126.222C1175.73 131.172 1160.53 132.523 1159.95 129.774C1159.12 125.777 1173.82 126.945 1176.65 126.222Z" fill="#E4E7EE"/>
<path d="M1045.39 114.303C1045.27 114.406 1042.48 114.843 1042.16 114.7C1036.87 112.364 1039.02 97.4019 1043.17 105.006C1043.57 105.745 1045.75 113.993 1045.38 114.303H1045.39Z" fill="#F8F9FA"/>
<path d="M1146.4 134.16C1146.14 134.343 1143.82 132.269 1143.61 131.792C1143.26 131.013 1148.79 121.105 1150.38 119.873C1152.8 125.475 1148.73 129.535 1146.4 134.16Z" fill="#F4F5F7"/>
<path d="M1156.76 126.222C1157.84 131.379 1154.25 136.417 1148.81 135.741C1147.69 134.756 1155.53 124.744 1156.76 126.222Z" fill="#F2F4F7"/>
<path d="M1155.18 125.419C1154.46 124.768 1160.22 114.652 1162.76 118.268C1164.9 121.327 1158.91 127.072 1155.18 125.419Z" fill="#F0F2F6"/>
<path d="M282.222 23.925C285.86 23.4403 287.787 28.8833 284.284 30.0593C279.205 31.7677 277.008 24.6242 282.222 23.925Z" fill="#F1F2F4"/>
<path d="M844.621 152.587C849.493 152.134 849.796 160.962 843.037 158.634C839.852 157.538 841.453 152.881 844.621 152.587Z" fill="#F6F7F9"/>
<path d="M777.477 130.393C781.259 126.611 786.951 134.899 780.805 135.765C777.239 136.274 775.081 132.785 777.477 130.393Z" fill="#F1F2F6"/>
<path d="M250.338 23.997C253.769 23.695 255.871 28.9076 252.464 30.0598C247.249 31.8238 245.315 24.434 250.338 23.997Z" fill="#F3F5F7"/>
<path d="M777.487 153.397C779.644 151.514 784.89 154.088 783.282 157.179C781.005 161.55 773.602 156.798 777.487 153.397Z" fill="#F5F5F7"/>
<path d="M376.511 47.8268C378.446 45.8562 383.087 48.1049 382.363 50.8145C380.938 56.1701 372.547 51.8554 376.511 47.8268Z" fill="#F5F5F8"/>
<path d="M413.49 24.7994C417.597 28.3672 409.135 33.4288 407.646 27.7951C406.89 24.9424 411.579 23.1387 413.49 24.7994Z" fill="#F3F4F6"/>
<path d="M843.021 130.298C849.111 128.272 850.48 136.155 844.494 135.813C840.545 135.582 840.975 130.982 843.021 130.298Z" fill="#F7F7F9"/>
<path d="M282.159 47.0164C286.76 46.627 287.429 54.8432 281.403 53.0394C278.186 52.078 278.553 47.3263 282.159 47.0164Z" fill="#F6F7F9"/>
<path d="M378.415 23.9414C383.16 23.0356 384.187 32.0066 377.667 30.0201C374.005 28.9077 375.971 24.4102 378.415 23.9414Z" fill="#EEF0F4"/>
<path d="M346.602 23.9968C351.204 23.6075 351.872 31.8236 345.846 30.0199C342.63 29.0584 342.996 24.3067 346.602 23.9968Z" fill="#F7F7F8"/>
<path d="M248.428 47.8267C250.283 45.9435 253.834 47.4135 253.865 50.4012C253.929 56.3448 244.201 52.1255 248.428 47.8267Z" fill="#F3F4F7"/>
<path d="M409.493 47.7707C415.424 46.0067 416.268 54.0719 410.17 53.2137C406.858 52.7449 406.341 48.7083 409.493 47.7707Z" fill="#F3F4F7"/>
<path d="M311.979 29.2654C309.798 25.7691 315.641 21.8279 317.862 25.3957C320.418 29.4879 313.396 31.53 311.979 29.2654Z" fill="#F5F6F8"/>
<path d="M1148.81 136.544C1149.21 138.983 1148.15 137.784 1146.86 138.133C1143.51 139.039 1140.86 140.056 1137.68 141.296L1140.87 134.16C1143.68 135.058 1144.91 137.537 1148.82 136.544H1148.81Z" fill="#E9EBF0"/>
<path d="M745.962 153.294C750.946 151.633 753.891 159.174 747.435 158.832C743.47 158.618 743.94 153.969 745.962 153.294Z" fill="#F6F7F8"/>
<path d="M811.257 153.35C816.471 151.785 818.087 158.833 812.682 158.841C808.781 158.841 807.817 154.383 811.257 153.35Z" fill="#F4F5F7"/>
<path d="M313.174 47.7395C319.559 45.6099 319.901 53.2142 314.655 53.2619C310.802 53.2937 311.096 48.4387 313.174 47.7395Z" fill="#F7F7F9"/>
<path d="M745.985 130.29C749.376 129.138 752.895 132.721 749.894 135.01C745.42 138.427 741.965 131.657 745.985 130.29Z" fill="#F8F9FA"/>
<path d="M343.799 52.2844C340.607 47.191 351.609 45.1568 349.921 51.0448C349.173 53.667 344.603 53.5717 343.799 52.2844Z" fill="#F7F8F9"/>
<path d="M879.784 158.641C874.617 161.923 871.186 152.157 877.881 153.19C880.89 153.659 881.36 157.64 879.784 158.641Z" fill="#F7F8F9"/>
<path d="M875.636 130.274C880.89 128.51 882.825 135.797 877.117 135.813C873.232 135.829 873.582 130.958 875.636 130.274Z" fill="#F9F9FA"/>
<path d="M815.348 134.843C814.337 136.456 808.271 135.964 809.178 132.325C810.237 128.073 818.118 130.425 815.348 134.843Z" fill="#F5F6F8"/>
<path d="M1180.63 184.95L1164.72 177.028C1170.29 177.712 1176.96 180.636 1180.63 184.95Z" fill="#D3DBE9"/>
<path d="M566.443 185.762L548.148 192.095C552.75 187.804 560.345 185.913 566.443 185.762Z" fill="#C4CBDE"/>
<path d="M1055.72 130.195C1055.51 132.611 1056.02 135.4 1055.72 137.744C1055.58 138.833 1055.16 140.199 1054.14 138.928C1054.46 135.71 1050.53 131.141 1055.72 130.195Z" fill="#C2CAD9"/>
<path d="M544.168 195.289C541.533 198.507 539.344 201.384 540.355 205.833C540.761 207.613 543.117 208.758 542.186 210.363C537.576 206.906 538.42 196.974 544.168 195.289Z" fill="#C2CAE0"/>
<path d="M1003.21 190.513C1001.77 190.576 1001.54 190.91 1001.61 189.329C1001.73 186.786 1003.15 182.948 1005.59 181.788C1004.49 184.911 1002.37 186.762 1003.21 190.521V190.513Z" fill="#8092B7"/>
<path d="M697.717 191.308C695.042 190.601 692.654 189.226 690.05 188.209C688.912 187.772 687.734 188.972 688.172 186.557C691.364 187.359 695.583 188.631 697.717 191.308Z" fill="#A9B6D1"/>
<path d="M292.772 121.463C293.074 121.741 293.058 123.64 291.657 122.972L283.227 118.284C284.564 118.61 292.398 121.121 292.772 121.463Z" fill="#ACBAD3"/>
<path d="M686.582 185.761C687.45 188.908 679.17 186.596 678.629 184.975L686.582 185.761Z" fill="#8D9FC5"/>
<path d="M1021.51 185.761L1014.36 187.343L1014.36 184.967L1021.51 185.761Z" fill="#9EADCA"/>
<path d="M1130.51 69.8614C1134.64 69.8614 1137.93 72.5869 1142.04 73.0319C1152.35 74.1602 1165.01 70.9262 1161.2 57.8947C1161.78 56.0354 1156.02 51.4903 1156.77 50.8069C1159.71 48.1212 1170.18 64.2754 1161.14 71.4427C1153 77.8948 1137.58 77.7677 1130.51 69.8614Z" fill="#5548FF"/>
<path d="M1143.79 107.723C1146.05 105.157 1142.88 103.52 1143.24 103.202C1151.9 106.42 1144.57 111.975 1139.1 113.754C1131.47 116.242 1117.39 113.818 1111.5 108.28C1109.86 106.746 1107.95 102.773 1111.02 104.783C1113.16 106.19 1113.76 107.437 1116.77 108.574C1123.1 110.957 1138.86 113.302 1143.79 107.723H1143.79Z" fill="#5548FF"/>
<path d="M1116.19 88.1208C1123.71 89.7259 1131 93.1109 1138.89 92.9202C1143.99 92.801 1157.39 90.8145 1154.38 83.3611C1155.01 82.7334 1160.18 85.9436 1156.36 89.71C1147.88 98.0771 1124.47 96.6468 1116.19 88.1287V88.1208Z" fill="#5548FF"/>
<path d="M1140.06 57.9577C1139.8 58.9748 1135.93 61.6685 1135.28 61.1202C1136.19 59.3721 1137.84 57.6081 1140.06 57.9577Z" fill="#5548FF"/>
<path d="M251.165 149.408C262.128 146.881 264.03 162.201 251.85 160.31C245.529 159.325 244.59 150.926 251.165 149.408Z" fill="#7600FF"/>
<path d="M256.971 206.398C262.639 200.748 263.101 202.536 269.541 200.287C273.967 198.746 278.003 196.688 282.422 195.289L273.665 201.225C271.205 202.393 258.754 207.001 256.971 206.398Z" fill="#5548FF"/>
<path d="M286.402 177.815L277.956 164.426L276.873 161.145C281.482 164.959 286.418 171.657 286.402 177.807V177.815Z" fill="#7600FF"/>
<path d="M254.573 144.49C254.78 145.849 252.678 145.333 251.811 145.269C249.852 145.11 247.751 144.474 245.832 144.093C247.942 141.987 252.05 144.3 254.573 144.498V144.49Z" fill="#8290AC"/>
<path d="M177.41 121.462C177.044 123.099 174.019 122.154 173.032 123.822C172.044 125.491 172.403 129.853 174.624 129.393C176.24 129.059 177.187 124.418 178.748 123.918C186.048 121.566 187.847 138.443 176.654 134.518C168.104 131.514 165.652 118.713 177.418 121.47L177.41 121.462Z" fill="#5548FF"/>
<path d="M198.888 146.063C196.341 144.299 195.218 140.262 194.924 137.33C197.352 139.205 198.984 143.083 198.888 146.063Z" fill="#334A88"/>
<path d="M175.013 156.385C175.395 156.767 178.125 165.253 178.197 166.699C175.228 164.498 175.904 159.516 173.436 156.767C173.333 156.083 174.949 156.322 175.013 156.377V156.385Z" fill="#4F6692"/>
<path d="M1058.11 204.799C1055.55 203.679 1038.9 198.435 1038.33 197.553C1037.92 196.925 1038.05 189.106 1038.6 188.121C1039.48 186.556 1039.96 188.01 1040.43 188.709C1043.86 193.802 1040.68 196.639 1048.34 199.865C1052.07 201.438 1057.01 200.707 1058.11 204.799Z" fill="#7600FF"/>
<path d="M1097.89 197.664H1097.09V209.575H1097.89V197.664Z" fill="#7600FF"/>
<path d="M667.992 162.456C668.78 161.518 669.218 160.294 670.285 159.563C672.426 159.078 671.375 163.862 674.592 160.692C676.542 158.769 676.319 156.56 676.248 154.001C679.941 156.178 678.707 160.286 676.168 163.059C672.673 166.881 670.07 166.858 665.906 163.918C665.93 163.433 667.562 162.948 667.984 162.448L667.992 162.456Z" fill="#5548FF"/>
<path d="M582.356 159.572C582.953 162.408 578.973 161.272 577.588 162.337C579.108 165.444 582.094 164.53 583.964 165.499C585.222 166.151 584.084 167.422 583.535 167.502C582.659 167.621 577.747 165.428 576.816 164.689C570.089 159.405 576.139 155.162 582.348 159.572H582.356Z" fill="#5548FF"/>
<path d="M625.822 161.2C629.683 160.079 630.431 167.12 626.498 167.541C622.104 168.017 623.752 161.796 625.822 161.2Z" fill="#5548FF"/>
<path d="M1099.48 118.284C1100.15 121.057 1098.03 124.744 1098.67 127.239C1098.93 128.232 1102.11 128.177 1101.84 132.857C1101.78 133.938 1100.27 140.382 1099.85 141.264C1099.29 142.44 1094.96 146.731 1093.13 145.674C1093.69 143.409 1096.69 142.519 1097.36 141.097C1098.3 139.11 1101.57 129.766 1099.08 128.606L1093.17 136.178C1087.79 140.906 1079.34 144.498 1072.46 141.296L1082.16 139.484C1092.94 136.48 1094.67 129.408 1097.82 120.143C1098.23 118.92 1097.12 117.871 1099.49 118.284H1099.48Z" fill="#5548FF"/>
<path d="M1088.88 95.5185C1088.23 94.9623 1086.59 95.0894 1085.94 94.1041L1080.4 87.3262C1090.6 91.1561 1098.79 102.447 1089.57 111.959C1088.25 113.325 1080.63 118.331 1079.19 118.26C1078.57 118.228 1077.73 117.346 1078.84 116.337C1080.89 114.478 1084.2 113.302 1086.39 111.172C1090.22 107.453 1093.85 99.7616 1088.89 95.5185H1088.88Z" fill="#5548FF"/>
<path d="M1080.39 121.462C1078.73 124.45 1074.05 125.204 1070.85 125.419C1072.88 122.932 1077.42 122.479 1080.39 121.462Z" fill="#5548FF"/>
<path d="M241.853 207.199C241.845 208.304 239.569 208.796 238.653 209.146C236.615 209.933 224.411 212.753 223.567 211.943C223.169 211.562 223.527 209.067 224.881 208.9L241.853 207.199Z" fill="#5548FF"/>
<path d="M225.937 174.645C227.028 175.646 220.794 180.35 219.982 180.199C217.459 179.722 221.033 176.361 220.365 175.447C220.237 175.264 216.448 174.653 216.4 173.453C216.265 169.885 224.862 175.551 225.929 174.645H225.937Z" fill="#5548FF"/>
<path d="M147.978 185.753C147.603 183.496 148.447 184.426 149.817 184.061C153.24 183.139 157.491 183.226 160.643 181.327C162.673 180.103 163.024 178.133 164.68 177.028C164.282 184.768 154.147 186.119 147.986 185.753H147.978Z" fill="#5548FF"/>
<path d="M140.749 143.624C139.563 144.537 133.481 143.028 134.46 140.119C136.681 136.623 143.511 141.502 140.749 143.624Z" fill="#5548FF"/>
<path d="M661.115 132.57C662.213 137.052 659.013 146.786 653.178 144.068C651.362 143.226 649.858 141.366 650.885 139.467C653.289 135.026 655.502 137.393 659.53 137.33C660.183 136.686 658.074 131.672 661.123 132.57H661.115Z" fill="#5548FF"/>
<path d="M594.004 135.161C600.412 134.486 599.895 144.935 592.666 142.543C588.311 141.097 590.716 135.511 594.004 135.161Z" fill="#5548FF"/>
<path d="M1148.01 182.583V198.459L1141.64 199.651C1145.8 198.157 1143.51 193.175 1144.05 189.727L1145.62 190.529C1146.28 188.328 1146.13 185.913 1146.44 183.783C1146.65 182.385 1146.03 182.456 1148.02 182.591L1148.01 182.583Z" fill="#7600FF"/>
<path d="M1114.6 210.362V188.137C1115.12 188.074 1116.19 189.186 1116.19 189.329V209.178C1116.19 209.313 1115.12 210.426 1114.6 210.37V210.362Z" fill="#7600FF"/>
<path d="M108.165 169.846C107.847 170.227 102.592 170.799 101.502 170.648C98.3174 170.211 97.2665 167.208 95.7062 166.802C94.6394 166.524 88.812 169.893 89.9106 167.112C90.5714 165.428 99.2806 162.511 101.358 162.758C103.93 163.06 110.251 167.327 108.165 169.846Z" fill="#7600FF"/>
<path d="M184.574 191.315V193.691C182.281 193.985 178.436 193.962 176.406 194.677C175.339 195.05 172.362 199.182 171.844 196.457C171.175 192.96 181.978 190.402 184.574 191.315Z" fill="#5548FF"/>
<path d="M225.756 112.079C226.122 112.635 226.242 114.351 225.541 114.32C224.116 113.692 217.469 113.31 217.994 110.752C219.419 107.947 224.833 110.68 225.756 112.087V112.079Z" fill="#304784"/>
<path d="M222.46 123.902C225.851 122.861 230.254 128.701 224.753 128.677C221.385 128.661 219.817 124.72 222.46 123.902Z" fill="#4B669D"/>
<path d="M241.056 126.23C237.855 130.243 232.712 127.009 228.334 127.804C230.937 124.816 236.964 128.138 241.056 126.23Z" fill="#4B669D"/>
<path d="M625.075 111.292C634.158 108.526 634.708 118.665 628.052 119.063C622.153 119.42 620.219 112.77 625.075 111.292Z" fill="#5548FF"/>
<path d="M609.408 125.427V119.078C616.247 120.262 618.34 126.142 609.408 125.427Z" fill="#5548FF"/>
<path d="M314.258 170.672C314.887 166.564 319.416 163.513 321.048 159.595L323.787 152.42C325.101 160.453 320.252 166.127 314.258 170.672Z" fill="#7600FF"/>
<path d="M315.834 144.482C315.69 146.024 311.726 145.309 310.858 145.078C310.086 144.872 306.129 142.377 304.72 141.638C303.653 141.074 302.682 141.876 303.112 139.715C305.023 140.78 308.183 140.478 309.497 140.859C311.535 141.447 313.127 144.562 315.834 144.482Z" fill="#7600FF"/>
<path d="M249.815 104.775C247.976 104.76 246.2 103.917 244.537 103.266C243.414 102.821 242.212 104.037 242.658 101.621C246.097 99.841 248.023 101.947 249.815 104.775Z" fill="#2D4784"/>
<path d="M918.889 212.746C919.303 208.169 922.941 203.529 926.467 200.859C927.908 199.771 937.987 194.057 937.987 197.268V211.554C937.987 211.642 936.88 212.746 936.793 212.746H918.889Z" fill="#5548FF"/>
<path d="M786.029 30.1631V46.8338H767.727C769.12 37.3542 777.049 31.8397 786.029 30.1631Z" fill="#5548FF"/>
<path d="M501.608 76.2178C503.112 78.7923 513.971 86.7542 513.963 88.5102C513.963 90.8622 503.598 98.6016 501.608 100.787L488.496 88.5102L501.608 76.2178Z" fill="#5548FF"/>
<path d="M924.858 77.9346L937.125 90.7832C935.151 92.73 926.33 102.694 924.173 102.321C922.7 102.067 913.951 91.6255 911.746 90.0999C916.085 86.0156 919.85 81.2322 924.866 77.9346H924.858Z" fill="#5548FF"/>
<path d="M1038.22 119.857C1034.88 118.959 1030.93 116.989 1028.68 114.319C1032.4 114.041 1036.17 116.885 1038.22 119.857Z" fill="#5548FF"/>
<path d="M1042.2 132.563C1040.62 133.302 1034.67 129.059 1035.85 127.812C1038.06 129.067 1040.92 130.267 1042.2 132.563Z" fill="#5548FF"/>
<path d="M251.971 151.729C256.262 150.545 258.777 157.585 252.592 157.244C248.309 157.005 249.36 152.452 251.971 151.729Z" fill="#C9DBF0"/>
<path d="M501.609 78.6016L512.332 88.5102C510.23 90.0358 503.456 98.4983 501.593 98.4824C499.953 97.0204 491.45 90.1391 491.721 88.6215L501.609 78.6016Z" fill="#FCFCFC"/>
<path d="M935.598 89.7185L924.747 99.9688C923.609 100.167 915.33 92.4201 914.175 90.7832C913.865 89.0033 921.396 83.4967 922.909 82.1618C923.8 81.3672 923.187 79.6509 924.843 80.1912C928.473 83.1233 931.275 87.9624 935.606 89.7185H935.598Z" fill="#FCFCFD"/>
<path d="M158.033 40.5402L168.669 49.6383L158.614 60.2701C157.133 60.5323 149.857 51.7758 147.994 50.4012L158.033 40.5322V40.5402Z" fill="#FCFCFD"/>
</g>
<defs>
<clipPath id="clip0_1486_9157">
<path d="M0 20C0 8.9543 8.95431 0 20 0H1202C1213.05 0 1222 8.95431 1222 20V210H0V20Z" fill="white"/>
</clipPath>
</defs>
</svg>
