<svg width="158" height="36" viewBox="0 0 158 36" fill="none" xmlns="http://www.w3.org/2000/svg">
<g clip-path="url(#clip0_1508_287)">
<path d="M157.942 18.3292C157.991 18.4335 157.987 18.572 157.942 18.6729C157.959 18.7828 157.978 18.8973 158 19.0166V31.4461C155.051 31.4103 152.092 31.5224 149.149 31.3815C147.453 31.1868 146.183 30.5375 145.849 28.7571C145.654 27.7156 145.658 24.4287 145.995 23.4535C146.923 20.7642 150.591 21.458 152.806 21.3651V23.0834H150.931C150.758 23.0834 150.285 23.1791 150.094 23.2262C149.286 23.4247 148.944 23.9702 148.88 24.7711C148.816 25.5695 148.789 28.0517 149.068 28.7125C149.287 29.2304 149.735 29.4253 150.264 29.5307C150.354 29.5487 150.701 29.6132 150.758 29.6132H154.884V18.358C154.884 18.2145 154.74 17.6289 154.68 17.4716C154.538 17.0934 154.28 16.7956 153.902 16.6403C153.766 16.5843 153.244 16.4391 153.124 16.4391H147.988C147.982 16.4391 147.901 16.3593 147.901 16.3533V14.6063C150.157 14.6428 152.426 14.5286 154.674 14.6708C156.908 14.9515 157.83 16.1403 157.942 18.3293V18.3292Z" fill="white"/>
<path d="M15.7523 35.8564L18.1571 35.7672C21.3126 35.8975 24.4652 35.867 27.6196 35.8287C27.8218 35.8262 28.0209 35.8683 28.2168 35.9137C28.2672 35.93 28.2665 35.9491 28.2168 35.971H2.53752C2.48713 35.9548 2.48785 35.9356 2.53752 35.9137C2.7363 35.8682 2.93833 35.8267 3.14324 35.8287C6.72863 35.8645 10.3091 35.833 13.895 35.7333C14.4152 35.6903 14.9189 35.7313 15.406 35.8563C15.5213 35.8563 15.637 35.8563 15.7522 35.8563L15.7523 35.8564Z" fill="white"/>
<path d="M0.000120255 21.1931C0.150919 21.1526 0.177496 21.363 0.173287 21.4795C0.221509 21.7233 0.266364 21.9697 0.265883 22.2188C0.263718 23.575 0.253256 24.9376 0.230768 26.2936C0.22668 26.5447 0.171002 26.7916 0.115444 27.0355L0 26.9782V21.1931H0.000120255Z" fill="white"/>
<path d="M158 18.6728C157.983 18.7228 157.964 18.7221 157.942 18.6728C157.94 18.5587 157.947 18.443 157.942 18.3291H158V18.6728Z" fill="white"/>
<path d="M157.999 19.0166C157.901 18.9544 157.942 18.7811 157.941 18.6729H157.999V19.0166Z" fill="white"/>
<path d="M23.2572 0V0.0572852C23.2366 0.219454 23.0101 0.207136 22.9688 0.0572852V0H23.2572Z" fill="white"/>
<path d="M2.54035 35.9134V35.9707H2.36719V35.9134C2.40278 35.7599 2.46856 35.7746 2.54035 35.9134Z" fill="white"/>
<path d="M28.3919 35.9134V35.9707H28.2188V35.9134C28.2558 35.7585 28.3202 35.7734 28.3919 35.9134Z" fill="white"/>
<path d="M0.171355 21.4794C2.55853 27.4198 9.05516 30.6705 15.2906 30.7583C14.8 28.3079 12.2747 26.5497 9.93434 26.0225C7.32337 25.4345 5.41361 24.8753 3.26105 23.1953C2.26787 22.4202 0.402123 20.4174 0.402123 19.1024V10.6538H1.23885C1.54755 10.6538 2.26462 10.8722 2.58174 10.982C5.89367 12.1283 8.03456 15.8986 8.27771 19.247C11.3608 20.5365 14.0569 22.8731 15.5022 25.8922L21.893 25.8852C25.8005 24.761 28.8403 22.7506 30.5671 19.0274C30.6048 18.9462 30.5329 18.8713 30.6977 18.9023C31.0519 26.7899 22.3428 31.0688 15.4056 30.8156L15.4058 35.8563C11.2066 35.7858 6.72955 36.1475 2.53724 35.9136C2.48012 35.9104 2.42072 35.9192 2.36408 35.9136C1.00195 35.7791 0.42894 34.7886 0.113512 33.6224C0.113873 31.4277 0.113031 29.2301 0.113512 27.0355C0.113873 25.1821 0.104854 23.3171 0.171234 21.4795L0.171355 21.4794Z" fill="white"/>
<path d="M7.7345 4.63928C9.62417 4.81903 11.2695 6.17677 12.3404 7.65698C13.5361 9.30976 14.2145 11.4221 14.2558 13.4599C15.454 13.1749 16.4746 12.1512 17.0376 11.0931C17.0773 11.0185 17.0721 10.8827 17.083 10.8827H30.7594C30.7392 12.4628 30.2795 13.9671 29.3637 15.2538C27.9783 17.2005 25.6299 18.4199 23.1998 18.2715V23.3693C22.8616 23.4402 22.5557 23.6034 22.2189 23.6844C18.6613 24.5403 15.5194 21.7071 15.4016 18.222C12.0849 17.3507 9.10528 14.9348 8.03958 11.6393C7.97212 11.4306 7.73438 10.671 7.73438 10.5102V4.63916L7.7345 4.63928Z" fill="white"/>
<path d="M95.2148 14.4341V16.2669H92.1852C92.0914 16.2669 91.6301 16.3653 91.5099 16.3985C90.5393 16.6667 90.3587 17.6521 90.307 18.5267C90.1283 21.5503 90.3881 24.817 90.3822 27.8511C90.4959 28.4443 90.7289 29.0158 91.3318 29.2571C91.4738 29.3139 91.9965 29.4409 92.1275 29.4409H96.946V9.39355H99.9755C99.9817 9.39355 100.062 9.47344 100.062 9.47942V31.1879C100.062 31.2354 99.9223 31.2892 99.8631 31.2768C97.0431 31.1668 94.125 31.4125 91.3169 31.2765C88.4734 31.1389 87.3524 29.9997 87.1912 27.1808C87.0294 24.3512 87.3191 21.3724 87.1912 18.527C87.3494 16.6538 87.7857 15.147 89.8004 14.6445C91.4989 14.2209 93.4709 14.5332 95.2147 14.4341H95.2148Z" fill="white"/>
<path d="M82.9801 31.2742H79.8639L79.8667 18.928C79.7499 18.0089 79.8256 16.8394 78.7833 16.4521C78.6268 16.3938 78.1317 16.2673 77.9884 16.2673H73.1122V31.2742H69.9961V14.4344L78.7991 14.4316C81.9766 14.5859 82.8316 15.9101 82.9795 18.9313L82.9801 31.2742Z" fill="white"/>
<path d="M55.3984 14.5201C55.418 14.4571 55.531 14.4256 55.5974 14.4312C59.1375 14.8207 65.3549 12.8457 65.4964 18.2437C65.6262 22.5818 65.5205 26.9323 65.5551 31.2743L57.3292 31.2763C55.7367 31.1577 54.0927 30.8404 53.51 29.1674C53.125 28.0619 53.1344 24.4594 53.4932 23.34C54.3746 20.5903 58.0643 21.2882 60.3035 21.1929V22.9112C59.5575 22.9282 58.7699 22.8702 58.0308 22.9752C57.3536 23.0714 56.7398 23.2808 56.5108 23.9867C56.2846 24.6837 56.3241 26.782 56.3767 27.5821C56.4287 28.3746 56.6054 29.022 57.4309 29.285C57.5728 29.3302 58.0181 29.4409 58.1394 29.4409H62.4385L62.4412 19.0994C62.3347 18.1707 62.4375 16.9009 61.3991 16.468C61.2404 16.4018 60.7138 16.2669 60.563 16.2669H55.4849C55.4787 16.2669 55.3983 16.187 55.3983 16.181C55.3983 15.8567 55.3327 14.73 55.3983 14.52L55.3984 14.5201Z" fill="white"/>
<path d="M116.28 14.6062C118.283 14.69 120.378 14.495 122.371 14.6038C125.132 14.7546 126.221 15.9136 126.381 18.6419L126.379 31.4462L118.326 31.4483C116.555 31.3307 114.825 31.0103 114.302 29.085C114.041 28.125 114.04 25.0481 114.218 24.0439C114.808 20.7284 118.624 21.4385 121.127 21.3649V23.0832H119.31C119.11 23.0832 118.492 23.2023 118.287 23.2707C117.602 23.4989 117.318 24.0216 117.259 24.7135C117.193 25.4849 117.172 27.9896 117.407 28.6376C117.564 29.07 117.917 29.3477 118.357 29.4707C118.509 29.5134 119.004 29.6129 119.137 29.6129H123.263V18.415C123.263 18.1225 123.039 17.3447 122.859 17.0978C122.596 16.7376 121.94 16.4388 121.503 16.4388H116.28V14.6059V14.6062Z" fill="white"/>
<path d="M137.718 29.6128C139.763 29.4342 139.716 27.4834 139.595 25.8589C139.503 24.6042 138.961 24.1504 137.717 24.0576C134.076 23.7859 130.551 25.1503 130.245 20.0755C129.811 12.8661 135.663 14.9274 140.606 14.603C140.665 14.5906 140.805 14.6444 140.805 14.6918V16.3529C140.805 16.359 140.725 16.4387 140.719 16.4387H134.775C134.333 16.4387 133.669 16.7881 133.428 17.164C132.959 17.8971 132.94 20.2067 133.428 20.9254C133.807 21.4827 134.612 21.5607 135.234 21.5961C139.123 21.8175 142.302 20.6689 142.478 25.9188C142.593 29.3417 141.513 31.2631 137.893 31.448C135.62 31.5641 133.248 31.3538 130.963 31.4486C130.904 31.461 130.764 31.4072 130.764 31.3597V29.6987C130.764 29.6926 130.845 29.6128 130.851 29.6128H137.718Z" fill="white"/>
<path d="M49.9141 10.0239V11.8568H44.1146C44.0106 11.8568 43.4858 12.079 43.374 12.1528C42.662 12.6233 42.4127 13.7204 42.3553 14.521C42.0742 18.4334 42.5664 22.6633 42.3518 26.6088C42.4587 27.6563 42.6987 28.8735 43.7978 29.2975C43.8659 29.3238 44.1991 29.4413 44.2299 29.4413H49.9717V31.2742L43.3042 31.2766C40.4297 31.0953 39.2781 29.1572 39.1205 26.4938C39.2847 22.685 38.9106 18.7078 39.1205 14.9189C39.2389 12.7847 40.0051 10.711 42.2966 10.167C42.4726 10.1251 42.9243 10.0239 43.0757 10.0239H49.9139H49.9141Z" fill="white"/>
<path d="M104.678 31.4457L104.676 18.6416C104.831 15.9172 105.926 14.7543 108.686 14.6035C109.621 14.5524 111.378 14.4991 112.269 14.6029C112.328 14.6097 112.469 14.629 112.469 14.6918V16.3528C112.469 16.3589 112.388 16.4387 112.382 16.4387H109.554C109.117 16.4387 108.462 16.7374 108.198 17.0976C108.009 17.3563 107.794 18.1056 107.794 18.4148V31.3597C107.794 31.3658 107.714 31.4456 107.708 31.4456H104.678L104.678 31.4457Z" fill="white"/>
<path d="M28.3917 35.9134C28.3351 35.919 28.2758 35.9102 28.2185 35.9134C24.1892 36.1382 19.8007 35.8532 15.7539 35.8561H15.9271C16.2332 35.8215 16.541 35.8024 16.8504 35.7988C17.9588 35.6803 19.0762 35.4969 20.1521 35.2097C25.3406 33.8253 29.9811 29.8873 30.5853 24.3432C30.6074 24.3271 30.7 24.4184 30.7 24.429V33.4217C30.7 34.5932 29.5572 35.7981 28.3917 35.9133V35.9134Z" fill="white"/>
<path d="M22.9682 0.057211C23.0429 0.0502746 23.1893 0.0447733 23.2567 0.057211C23.5814 0.117127 23.7115 1.00559 23.7579 1.30672C24.2773 4.67411 22.5549 8.00072 19.4109 9.3855C17.9349 10.0356 17.7434 9.73794 17.5508 8.2124C17.1302 4.8785 19.0051 1.62508 22.1212 0.333591C22.3741 0.228708 22.6975 0.0820864 22.9682 0.057211Z" fill="white"/>
<path d="M16.8491 35.799C16.5242 35.8337 16.2724 35.8563 15.9258 35.8563C16.1864 35.727 16.5553 35.8313 16.8491 35.799Z" fill="white"/>
</g>
<defs>
<clipPath id="clip0_1508_287">
<rect width="158" height="36" fill="white"/>
</clipPath>
</defs>
</svg>
