<svg width="158" height="36" viewBox="0 0 158 36" fill="none" xmlns="http://www.w3.org/2000/svg">
<g clip-path="url(#clip0_915_4847)">
<path d="M157.942 18.3292C157.991 18.4335 157.987 18.572 157.942 18.6729C157.959 18.7828 157.978 18.8973 158 19.0166V31.4461C155.051 31.4103 152.092 31.5224 149.149 31.3815C147.453 31.1868 146.183 30.5375 145.849 28.7571C145.654 27.7156 145.658 24.4287 145.995 23.4535C146.923 20.7642 150.591 21.458 152.806 21.3651V23.0834H150.931C150.758 23.0834 150.285 23.1791 150.094 23.2262C149.286 23.4247 148.944 23.9702 148.88 24.7711C148.816 25.5695 148.789 28.0517 149.068 28.7125C149.287 29.2304 149.735 29.4253 150.264 29.5307C150.354 29.5487 150.701 29.6132 150.758 29.6132H154.884V18.358C154.884 18.2145 154.74 17.6289 154.68 17.4716C154.538 17.0934 154.28 16.7956 153.902 16.6403C153.766 16.5843 153.244 16.4391 153.124 16.4391H147.988C147.982 16.4391 147.901 16.3593 147.901 16.3533V14.6063C150.157 14.6428 152.426 14.5286 154.674 14.6708C156.908 14.9515 157.83 16.1403 157.942 18.3293V18.3292Z" fill="white"/>
<path d="M15.7538 35.8564L18.1586 35.7672C21.3141 35.8975 24.4667 35.867 27.6211 35.8287C27.8232 35.8262 28.0224 35.8683 28.2183 35.9137C28.2686 35.93 28.2679 35.9491 28.2183 35.971H2.53898C2.4886 35.9548 2.48932 35.9356 2.53898 35.9137C2.73777 35.8682 2.93979 35.8267 3.14471 35.8287C6.73009 35.8645 10.3106 35.833 13.8964 35.7333C14.4166 35.6903 14.9204 35.7313 15.4074 35.8563C15.5227 35.8563 15.6384 35.8563 15.7536 35.8563L15.7538 35.8564Z" fill="white"/>
<path d="M0.000120255 21.1931C0.150919 21.1526 0.177496 21.363 0.173287 21.4795C0.221509 21.7233 0.266364 21.9697 0.265883 22.2188C0.263718 23.575 0.253256 24.9376 0.230768 26.2936C0.22668 26.5447 0.171002 26.7916 0.115444 27.0355L0 26.9782V21.1931H0.000120255Z" fill="white"/>
<path d="M158 18.6728C157.984 18.7228 157.964 18.7221 157.942 18.6728C157.941 18.5587 157.948 18.443 157.942 18.3291H158V18.6728Z" fill="white"/>
<path d="M158 19.0166C157.903 18.9544 157.944 18.7811 157.942 18.6729H158V19.0166Z" fill="white"/>
<path d="M23.2558 0V0.0572852C23.2351 0.219454 23.0087 0.207136 22.9673 0.0572852V0H23.2558Z" fill="white"/>
<path d="M2.53889 35.9134V35.9707H2.36572V35.9134C2.40132 35.7599 2.4671 35.7746 2.53889 35.9134Z" fill="white"/>
<path d="M28.3914 35.9134V35.9707H28.2183V35.9134C28.2553 35.7585 28.3198 35.7734 28.3914 35.9134Z" fill="white"/>
<path d="M0.173308 21.4794C2.56048 27.4198 9.05711 30.6705 15.2925 30.7583C14.8019 28.3079 12.2767 26.5497 9.93629 26.0225C7.32533 25.4345 5.41556 24.8753 3.26301 23.1953C2.26982 22.4202 0.404076 20.4174 0.404076 19.1024V10.6538H1.24081C1.5495 10.6538 2.26658 10.8722 2.58369 10.982C5.89562 12.1283 8.03651 15.8986 8.27966 19.247C11.3628 20.5365 14.0589 22.8731 15.5042 25.8922L21.895 25.8852C25.8024 24.761 28.8422 22.7506 30.5691 19.0274C30.6067 18.9462 30.5348 18.8713 30.6997 18.9023C31.0538 26.7899 22.3448 31.0688 15.4075 30.8156L15.4078 35.8563C11.2086 35.7858 6.73151 36.1475 2.5392 35.9136C2.48207 35.9104 2.42267 35.9192 2.36603 35.9136C1.00391 35.7791 0.430893 34.7886 0.115465 33.6224C0.115826 31.4277 0.114984 29.2301 0.115465 27.0355C0.115826 25.1821 0.106807 23.3171 0.173187 21.4795L0.173308 21.4794Z" fill="white"/>
<path d="M7.73254 4.63928C9.62222 4.81903 11.2675 6.17677 12.3384 7.65698C13.5341 9.30976 14.2126 11.4221 14.2538 13.4599C15.452 13.1749 16.4726 12.1512 17.0357 11.0931C17.0754 11.0185 17.0702 10.8827 17.081 10.8827H30.7574C30.7372 12.4628 30.2775 13.9671 29.3618 15.2538C27.9763 17.2005 25.628 18.4199 23.1979 18.2715V23.3693C22.8596 23.4402 22.5538 23.6034 22.217 23.6844C18.6593 24.5403 15.5175 21.7071 15.3996 18.222C12.083 17.3507 9.10332 14.9348 8.03763 11.6393C7.97016 11.4306 7.73242 10.671 7.73242 10.5102V4.63916L7.73254 4.63928Z" fill="white"/>
<path d="M95.2153 14.4341V16.2669H92.1857C92.0919 16.2669 91.6306 16.3653 91.5104 16.3985C90.5398 16.6667 90.3592 17.6521 90.3074 18.5267C90.1287 21.5503 90.3886 24.817 90.3827 27.8511C90.4964 28.4443 90.7294 29.0158 91.3323 29.2571C91.4743 29.3139 91.997 29.4409 92.128 29.4409H96.9465V9.39355H99.976C99.9822 9.39355 100.063 9.47344 100.063 9.47942V31.1879C100.063 31.2354 99.9228 31.2892 99.8636 31.2768C97.0436 31.1668 94.1255 31.4125 91.3173 31.2765C88.4739 31.1389 87.3529 29.9997 87.1916 27.1808C87.0299 24.3512 87.3196 21.3724 87.1916 18.527C87.3499 16.6538 87.7862 15.147 89.8009 14.6445C91.4994 14.2209 93.4713 14.5332 95.2151 14.4341H95.2153Z" fill="white"/>
<path d="M82.9816 31.2742H79.8654L79.8682 18.928C79.7514 18.0089 79.827 16.8394 78.7848 16.4521C78.6282 16.3938 78.1331 16.2673 77.9899 16.2673H73.1137V31.2742H69.9976V14.4344L78.8006 14.4316C81.978 14.5859 82.833 15.9101 82.981 18.9313L82.9816 31.2742Z" fill="white"/>
<path d="M55.3979 14.5201C55.4175 14.4571 55.5306 14.4256 55.5969 14.4312C59.137 14.8207 65.3544 12.8457 65.4959 18.2437C65.6257 22.5818 65.52 26.9323 65.5546 31.2743L57.3287 31.2763C55.7362 31.1577 54.0922 30.8404 53.5096 29.1674C53.1245 28.0619 53.1339 24.4594 53.4927 23.34C54.3741 20.5903 58.0638 21.2882 60.303 21.1929V22.9112C59.557 22.9282 58.7694 22.8702 58.0303 22.9752C57.3531 23.0714 56.7394 23.2808 56.5103 23.9867C56.2841 24.6837 56.3236 26.782 56.3762 27.5821C56.4282 28.3746 56.6049 29.022 57.4305 29.285C57.5724 29.3302 58.0177 29.4409 58.1389 29.4409H62.438L62.4407 19.0994C62.3342 18.1707 62.437 16.9009 61.3986 16.468C61.2399 16.4018 60.7133 16.2669 60.5625 16.2669H55.4844C55.4782 16.2669 55.3978 16.187 55.3978 16.181C55.3978 15.8567 55.3323 14.73 55.3978 14.52L55.3979 14.5201Z" fill="white"/>
<path d="M116.278 14.6062C118.281 14.69 120.376 14.495 122.369 14.6038C125.13 14.7546 126.219 15.9136 126.379 18.6419L126.377 31.4462L118.324 31.4483C116.553 31.3307 114.823 31.0103 114.3 29.085C114.039 28.125 114.038 25.0481 114.216 24.0439C114.806 20.7284 118.622 21.4385 121.126 21.3649V23.0832H119.308C119.108 23.0832 118.49 23.2023 118.285 23.2707C117.6 23.4989 117.316 24.0216 117.257 24.7135C117.191 25.4849 117.17 27.9896 117.405 28.6376C117.562 29.07 117.915 29.3477 118.355 29.4707C118.507 29.5134 119.002 29.6129 119.135 29.6129H123.261V18.415C123.261 18.1225 123.037 17.3447 122.857 17.0978C122.594 16.7376 121.938 16.4388 121.501 16.4388H116.278V14.6059V14.6062Z" fill="white"/>
<path d="M137.716 29.6128C139.761 29.4342 139.714 27.4834 139.594 25.8589C139.501 24.6042 138.96 24.1504 137.716 24.0576C134.074 23.7859 130.549 25.1503 130.244 20.0755C129.81 12.8661 135.661 14.9274 140.605 14.603C140.664 14.5906 140.804 14.6444 140.804 14.6918V16.3529C140.804 16.359 140.723 16.4387 140.717 16.4387H134.773C134.332 16.4387 133.667 16.7881 133.427 17.164C132.957 17.8971 132.939 20.2067 133.427 20.9254C133.805 21.4827 134.61 21.5607 135.233 21.5961C139.121 21.8175 142.301 20.6689 142.477 25.9188C142.591 29.3417 141.512 31.2631 137.892 31.448C135.618 31.5641 133.246 31.3538 130.962 31.4486C130.903 31.461 130.763 31.4072 130.763 31.3597V29.6987C130.763 29.6926 130.843 29.6128 130.849 29.6128H137.716Z" fill="white"/>
<path d="M49.916 10.0239V11.8568H44.1165C44.0125 11.8568 43.4877 12.079 43.376 12.1528C42.664 12.6233 42.4147 13.7204 42.3572 14.521C42.0762 18.4334 42.5684 22.6633 42.3537 26.6088C42.4606 27.6563 42.7007 28.8735 43.7998 29.2975C43.8678 29.3238 44.2011 29.4413 44.2319 29.4413H49.9736V31.2742L43.3061 31.2766C40.4317 31.0953 39.28 29.1572 39.1225 26.4938C39.2866 22.685 38.9125 18.7078 39.1225 14.9189C39.2408 12.7847 40.0071 10.711 42.2985 10.167C42.4746 10.1251 42.9263 10.0239 43.0777 10.0239H49.9158H49.916Z" fill="white"/>
<path d="M104.679 31.4457L104.677 18.6416C104.832 15.9172 105.927 14.7543 108.687 14.6035C109.622 14.5524 111.379 14.4991 112.27 14.6029C112.329 14.6097 112.469 14.629 112.469 14.6918V16.3528C112.469 16.3589 112.389 16.4387 112.383 16.4387H109.555C109.118 16.4387 108.462 16.7374 108.199 17.0976C108.01 17.3563 107.795 18.1056 107.795 18.4148V31.3597C107.795 31.3658 107.715 31.4456 107.709 31.4456H104.679L104.679 31.4457Z" fill="white"/>
<path d="M28.3917 35.9134C28.3351 35.919 28.2758 35.9102 28.2185 35.9134C24.1892 36.1382 19.8007 35.8532 15.7539 35.8561H15.9271C16.2332 35.8215 16.541 35.8024 16.8504 35.7988C17.9588 35.6803 19.0762 35.4969 20.1521 35.2097C25.3406 33.8253 29.9811 29.8873 30.5853 24.3432C30.6074 24.3271 30.7 24.4184 30.7 24.429V33.4217C30.7 34.5932 29.5572 35.7981 28.3917 35.9133V35.9134Z" fill="white"/>
<path d="M22.9672 0.057211C23.0419 0.0502746 23.1884 0.0447733 23.2557 0.057211C23.5804 0.117127 23.7105 1.00559 23.7569 1.30672C24.2763 4.67411 22.5539 8.00072 19.41 9.3855C17.934 10.0356 17.7424 9.73794 17.5499 8.2124C17.1292 4.8785 19.0041 1.62508 22.1203 0.333591C22.3732 0.228708 22.6965 0.0820864 22.9672 0.057211Z" fill="white"/>
<path d="M16.8501 35.799C16.5251 35.8337 16.2733 35.8563 15.9268 35.8563C16.1873 35.727 16.5563 35.8313 16.8501 35.799Z" fill="white"/>
</g>
<defs>
<clipPath id="clip0_915_4847">
<rect width="158" height="36" fill="white"/>
</clipPath>
</defs>
</svg>
