<svg width="696" height="810" viewBox="0 0 696 810" fill="none" xmlns="http://www.w3.org/2000/svg">
<g clip-path="url(#clip0_917_9678)">
<path d="M0 -140.317H695.318V903H0V-140.317ZM191.32 118.3C195.293 114.278 186.385 109.781 186.092 115.485C185.922 118.873 189.432 120.213 191.32 118.3ZM215.06 113.157C210.027 114.656 216.389 122.785 218.997 117.094C220.276 114.303 217.766 112.353 215.06 113.157ZM242.188 113.145C239.824 113.974 239.995 117.691 242.432 118.812C247.611 121.188 249.013 110.769 242.188 113.145ZM270.047 113.157C267.732 113.852 267.305 117.459 269.742 118.654C274.605 121.042 276.104 111.341 270.047 113.157ZM300.636 118.3C304.78 114.157 295.067 109.513 295.335 116.106C295.457 119.165 298.784 120.152 300.636 118.3ZM323.377 118.3C326.167 121.115 331.115 116.387 327.691 113.657C324.266 110.927 320.647 115.546 323.377 118.3ZM269.06 143.429C272.277 146.695 277.055 139.749 272.265 137.811C269.023 136.495 266.659 141.004 269.06 143.429ZM186.19 142.784C187.957 145.83 193.685 143.173 191.832 139.517C189.98 135.861 183.887 138.835 186.19 142.784ZM218.546 138.274C214.963 136.032 210.454 141.845 215.28 143.966C219.338 145.745 220.337 139.383 218.546 138.274ZM242.164 138.262C240.165 138.932 240.433 143.868 243.541 144.124C247.733 144.478 248.111 136.264 242.164 138.262ZM296.151 138.274C294.36 139.396 295.359 145.745 299.417 143.966C304.243 141.845 299.722 136.032 296.151 138.274ZM324.376 138.287C319.343 139.786 325.704 147.914 328.312 142.223C329.592 139.432 327.081 137.482 324.376 138.287ZM119.979 141.638C118.809 141.943 103.186 157.676 103.186 158.882C104.88 161.368 119.15 176.224 120.527 176.224C122.867 174.616 138.003 160.186 137.796 158.968C132.495 154.678 127.328 145.83 121.917 142.199C121.234 141.735 120.93 141.382 119.991 141.626L119.979 141.638ZM574.449 143.6C556.169 143.466 542.02 157.883 543.214 176.2H574.449V143.6ZM636.236 233.953C632.97 233.344 620.149 217.599 618.931 217.599C616.445 219.317 601.577 233.576 601.577 234.965C603.124 237.232 617.615 252.453 618.821 252.234L635.907 235.318L636.224 233.953H636.236ZM267.537 244.812C249.695 243.642 235.132 259.107 236.302 276.742H267.537V244.812ZM461.538 273.439C459.15 274.097 458.65 278.96 461.404 279.471C467.741 280.654 466.218 272.147 461.538 273.439ZM492.115 274.182C489.544 271.586 484.986 275.425 487.46 278.484C490.08 281.738 495.235 277.339 492.115 274.182ZM517.244 273.439C512.808 274.036 514.392 280.897 518.999 279.362C522.046 278.35 520.608 272.976 517.244 273.439ZM544.384 273.439C541.825 274.134 540.643 278.423 543.702 279.337C549.369 281.031 549.271 272.111 544.384 273.439ZM572.243 273.439C567.966 274.024 569.148 280.775 573.974 279.337C577.471 278.301 575.399 273.012 572.243 273.439ZM137.845 284.882C137.309 285.528 134.603 285.833 133.592 286.406C130.862 287.941 128.339 291.597 125.268 291.719C120.759 291.914 118.87 286.15 113.057 285.565C106.878 284.931 107.402 286.71 103.429 289.526C95.971 294.815 95.642 288.124 89.9995 286.211C80.1038 282.847 78.483 291.719 72.9989 291.719C68.1607 291.719 65.7843 284.602 57.3632 285.553C54.999 285.821 46.5292 292.085 45.8102 293.742C44.8352 295.96 47.7235 297.569 49.7587 297.021C51.1114 296.655 53.4757 293.06 55.0356 292.06C63.0057 286.905 64.2975 296.594 71.6583 297.142C79.5919 297.727 80.4085 291.329 85.2344 290.976C90.5479 290.586 92.6196 296.96 98.8227 297.167C105.026 297.374 106.5 291.317 111.034 290.976C115.567 290.635 116.177 293.645 119.418 295.522C124.135 298.251 128.144 297.496 132.41 294.413C134.944 295.582 137.942 294.108 137.162 291.012C138.113 290.756 138.21 290.257 139.88 290.33C140.124 293.73 138.734 296.496 139.88 299.836L137.845 300.518C130.752 300.64 127.425 309.305 122.294 306.246C117.249 303.236 116.42 298.312 107.938 300.823C104.672 301.786 102.223 306.733 98.7861 306.672C95.3495 306.612 93.0096 301.712 89.6582 300.823C80.9934 298.544 80.4328 303.784 74.9366 306.526C69.7816 309.098 67.4539 302.078 63.1885 300.811C54.999 298.385 49.7343 303.638 45.5299 309.597C45.8467 311.596 49.3931 311.218 49.5759 311.377C49.8074 311.572 51.0139 316.056 52.2935 316.812C51.7451 317.178 46.712 322.272 46.4926 322.893C46.2489 323.576 45.8955 325.038 46.2489 325.562C51.8304 328.475 52.6835 320.553 58.0701 320.163C64.9312 319.664 66.5155 329.096 76.5453 325.794C79.9332 324.672 82.3218 319.859 86.575 320.139C89.6339 320.334 92.254 325.952 97.4578 326.33C104.904 326.878 106.049 320.176 111.01 320.127C115.97 320.078 117.347 325.83 123.208 326.342C132.495 327.146 133.433 318.737 140.879 320.212C143.78 320.785 149.873 331.156 153.395 324.027C153.273 323.32 150.836 321.54 150.056 320.87C149.434 320.346 148.825 320.285 148.703 320.188C148.46 319.993 148.265 319.688 148.021 319.505C148.703 316.617 151.311 314.472 150.738 311.352C151.994 311.352 152.286 310.779 152.774 310.67C154.48 310.28 155.979 311.73 155.503 308.964C155.028 306.197 153.298 308.001 152.774 307.952C149.325 307.66 147.241 303.309 144.621 301.834C146.229 300.64 148.386 299.153 148.691 297.081C149.569 297.325 151.287 296.813 152.091 297.081C152.896 297.35 154.809 300.945 155.418 296.009C155.589 294.62 154.565 287.966 154.005 287.027C153.164 285.638 147.899 285.455 146.266 285.516C145.388 285.553 144.718 286.223 144.621 286.223C143.95 286.223 143.256 286.259 142.585 286.223C143.56 284.895 138.089 283.322 137.845 283.517C137.65 283.676 137.967 284.687 137.833 284.858L137.845 284.882ZM461.538 298.593C458.991 299.348 458.979 303.699 461.538 304.467C466.998 306.1 467.364 296.862 461.538 298.593ZM488.703 298.593C485.022 299.689 486.96 306.575 491.615 304.259C495.284 302.444 492.81 297.374 488.703 298.593ZM516.537 298.593C513.82 299.397 513.966 304.174 517.11 304.613C522.484 305.356 521.924 296.996 516.537 298.593ZM543.665 298.568C540.399 299.653 541.764 306.66 546.614 304.259C550.392 302.383 547.577 297.276 543.665 298.568ZM571.536 298.556C566.905 299.86 570.281 307.05 574.741 303.845C577.666 301.737 574.912 297.618 571.536 298.556ZM423.028 331.071C421.907 329.913 421.882 331.436 421.614 332.021C418.75 338.371 419.689 341.076 412.17 344.306C410.744 344.915 403.505 345.999 406.917 347.523C410.037 348.912 414.156 348.985 416.922 351.776C419.494 354.372 420.871 362.196 421.687 362.988C423.125 364.389 423.918 358.576 424.271 357.772C426.55 352.459 427.427 351.532 432.558 349.083C434.045 348.376 440.284 347.413 437.031 345.951C431.083 343.282 427.293 344.025 424.381 336.872C423.881 335.641 423.247 331.29 423.04 331.071H423.028ZM351.053 370.471C348.798 366.778 345.215 369.008 341.986 370.568C330.14 376.308 330.14 387.557 341.974 393.48C353.661 399.341 382.738 399.792 392.171 389.519C395.827 385.534 395.242 378.819 391.793 374.882C388.856 371.531 380.338 368.996 379.728 368.265C378.034 366.242 378.583 362.513 374.098 359.295C372.16 357.906 365.384 356.212 365.275 355.749C364.641 353.08 367.054 347.243 369.406 345.695C372.465 343.696 373.562 345.305 376.487 345.354C381.946 345.439 386.59 345.341 388.393 339.224C376.072 333.35 361.692 342.636 361.875 356.163C355.33 354.811 346.117 364.499 351.723 369.776L351.041 370.459L351.053 370.471ZM600.675 337.907C597.994 338.358 598.701 343.672 601.187 343.257C603.868 342.807 603.161 337.493 600.675 337.907ZM608.158 342.685C606.391 342.977 602.869 350.228 605.355 350.777C606.695 351.069 608.474 346.06 610.4 345.61C610.79 344.452 609.315 342.502 608.158 342.697V342.685ZM588.037 396.283C587.952 396.185 586.904 396.161 586.307 395.637C585.161 394.637 585.173 393.029 582.602 392.882C579.543 387.228 575.558 382.463 568.928 381.098C555.84 378.392 549.174 392.139 545.944 402.388C543.945 401.974 544.738 403.387 544.408 404.545C544.128 405.532 543.251 409.517 543.08 409.725C542.8 410.066 541.935 409.773 541.874 409.846C541.337 404.423 538.681 404.228 535.073 407.653L531.698 414.599C532.295 412.576 530.211 408.006 531.125 406.556C531.247 406.349 533.83 405.557 534.635 404.984C541.252 400.304 540.606 394.089 541.191 386.752C539.582 387.35 539.631 389.36 538.449 390.457C537.694 391.164 536.28 391.359 535.415 392.188C532.709 394.796 530.089 396.977 529.638 401.011C528.712 401.377 529.017 398.245 527.615 399.658C527.469 399.805 528.797 402.486 527.615 403.716C526.201 402.571 525.495 400.853 523.886 399.658C518.865 395.929 509.969 396.197 515.111 403.68C516.659 405.935 519.742 408.25 522.533 408.506C524.093 409.493 527.956 406.678 528.651 407.787C529.577 409.286 529.65 412.771 529.662 414.587C525.775 409.53 511.309 407.373 518.804 416.964C521.473 420.388 526.604 422.033 530.333 419.352C530.942 419.852 532.929 432.343 534.476 434.574C535.476 436.024 536.499 436.121 537.815 434.976C538.157 434.683 538.51 434.098 538.51 433.623H539.168C539.339 436.341 541.142 435.293 542.58 435.658C542.849 435.731 543.287 436.219 543.933 436.341L542.58 439.741C529.467 438.071 516.245 436.974 503.266 434.354L488.946 463.188C488.325 464.87 490.604 463.932 490.982 464.2C491.043 464.249 490.799 465.114 491.116 465.382C492.066 466.162 497.221 464.773 498.184 468.246C498.806 470.464 495.052 470.269 495.028 474.035C495.003 478.312 497.977 478.178 499.122 481.176C494.954 481.798 488.057 486.587 490.299 491.364C482.646 494.277 472.64 501.102 480.769 509.389C493.967 522.843 550.197 529.339 569.379 530.106C595.191 531.142 633.53 529.997 657.526 520.418C670.079 515.409 678.719 507.439 663.242 498.043C662.084 497.336 659.586 497.019 658.708 496.129C658.562 495.983 658.891 494.972 658.708 494.777C658.27 494.326 657.441 495.447 657.368 495.459C656.1 495.557 655.601 495.057 654.65 494.777C655.26 492.607 652.786 493.899 652.566 493.058C652.03 490.974 653.98 484.747 653.882 482.176C653.858 481.481 651.189 475.899 650.848 475.79C647.777 474.79 646.826 480.299 643.78 479.836C643.67 478.8 643.268 477.252 643.097 475.765C644.243 474.571 644.462 470.964 642.415 471.695C642.329 471.037 642.488 470.318 642.415 469.66C647.862 467.259 650.909 472.109 656.198 470.878C656.6 470.781 662.498 468.185 662.791 467.966C663.486 467.442 665.167 464.492 665.362 463.688C666.41 459.386 657.685 458.533 656.807 455.596C656.076 453.146 657.063 449.052 656.637 446.261C656.234 443.641 653.773 440.935 654.638 437.73C655.601 437.316 657.27 435.853 658.562 435.195C659.549 434.695 663.278 433.83 663.461 433.647C665.496 431.6 659.232 433.197 658.513 433.002C657.953 432.843 657.794 431.856 657.283 431.393C656.844 430.991 656.113 431.064 655.979 430.942C655.869 430.844 656.198 429.967 655.881 429.638C655.394 429.126 654.687 430.259 654.614 430.259C653.212 430.284 651.201 430.065 649.861 429.577C650.982 429.016 652.042 428.553 653.261 428.224C658.014 429.748 661.84 427.322 665.521 424.507C665.509 423.691 669.018 421.522 668.202 420.754C667.995 420.559 663.498 418.974 662.962 418.865C658.209 417.951 655.857 419.767 651.92 421.765C652.518 421.192 653.151 420.681 653.212 419.767C653.432 416.281 651.993 409.859 651.908 406.13C651.884 404.874 652.737 403.692 652.591 402.4C651.019 401.974 651.457 402.766 651.043 403.253C649.373 405.203 646.083 409.651 645.132 411.894L643.109 412.576L641.744 409.176C650.726 395.6 671.468 360.307 654.967 346.706C644.157 337.786 628.583 348.352 620.003 355.846C607.134 367.107 598.335 382.792 588.098 396.27L588.037 396.283ZM598.896 351.447C599.2 348.266 591.291 345.573 590.072 347.389C588.098 350.326 597.153 350.984 598.896 351.447ZM518.78 367.765C517.293 368.801 517.281 377.283 517.707 379.343C518.231 381.805 521.973 386.643 524.495 386.07C526.47 385.631 526.957 379.136 526.604 377.234C526.153 374.846 521.339 365.986 518.78 367.765ZM533.026 370.471C529.492 370.312 533.087 376.004 532.929 376.832C532.782 377.588 528.907 380.817 527.908 382.67C526.652 384.973 525.994 387.532 526.238 390.177L525.214 388.812C523.411 388.398 524.922 390.213 523.532 390.165C521.339 385.534 516.44 381.683 510.968 382.706C507.848 383.291 510.505 386.838 511.699 388.751C514.453 393.126 518.292 396.77 523.898 396.356C525.543 396.234 524.337 394.784 525.555 394.918C525.555 396.173 525.836 397.916 527.591 397.623C526.713 393.309 529.285 394.016 531.332 392.188C535.695 388.3 536.511 384.035 535.805 378.234C535.622 376.771 534.318 377.222 533.855 376.101C533.282 374.748 533.306 372.018 533.026 370.434V370.471ZM150.738 377.941C150.519 378.392 150.324 378.88 150.056 379.294C149.69 379.903 148.825 380.415 148.703 381.329C148.569 381.244 146.229 380.086 145.986 379.976C145.876 377.576 146.9 376.016 143.95 376.589L144.633 379.306C144.158 379.136 143.195 379.428 142.598 379.306C142.659 378.148 142.841 377.722 141.586 377.953L141.245 378.624C140.806 378.575 140.331 378.648 139.892 378.624C140.355 375.809 134.42 377.929 133.774 377.271C132.739 376.199 136.748 371.421 128.059 372.579C121.697 373.42 123.367 376.759 122.112 377.832C121.758 378.136 119.979 378.014 119.028 378.465C117.249 379.318 115.116 381.256 113.422 381.707C106.208 383.608 98.713 378.77 93.9846 388.02C90.4382 387.922 81.944 385.936 79.1776 387.532C74.4857 390.238 74.7416 399.683 72.353 401.754C68.4776 405.13 60.6171 403.631 58.0701 407.165C56.2664 410.956 53.6097 424.69 49.2225 425.482C47.5529 425.787 45.6395 425.153 43.9456 425.641C42.7757 425.97 41.886 427.859 40.2774 428.09C38.6687 428.322 34.0865 427.761 35.3173 425.494C26.4941 428.334 36.8285 429.467 37.8522 431.113C38.2543 431.771 38.0106 432.965 38.6809 434.013C40.5455 436.95 44.4209 437.279 47.5529 437.718C47.5041 437.925 47.5772 438.169 47.5529 438.4C45.8467 440.886 48.5156 443.799 44.1649 443.836C45.2252 441.033 41.3742 441.142 40.8258 442.909C40.1555 445.042 42.4466 446.76 42.6782 448.394C42.8244 449.478 41.7398 452.184 42.1297 452.659C25.1414 469.855 50.8433 481.737 64.8703 486.636C108.657 501.943 180.584 501.48 223.213 482.663C232.39 478.617 244.979 471.951 245.832 460.812C244.028 460.471 244.65 461.19 244.175 462.165C237.167 476.606 220.045 481.859 205.384 485.88C199.181 487.587 179.219 492.656 173.869 492.047C173.491 491.998 172.248 490.048 172.516 492.729C172.078 492.778 171.602 492.681 171.164 492.729C169.774 491.048 165.411 493.156 164.375 491.023C163.34 488.891 169.226 491.474 168.446 488.659C172.492 488.232 176.635 487.343 180.511 486.124C182.266 485.576 190.711 482.346 191.589 481.53C192.564 480.616 191.564 479.604 191.784 478.934C192.271 477.447 193.234 476.582 193.514 474.668C193.965 471.61 193.319 468.014 193.575 464.882C193.819 465.029 194.757 464.468 194.964 465.309C195.525 467.649 194.708 472.329 196.293 475.071C195.549 477.423 194.27 478.617 192.893 480.494C194.087 480.555 195.269 480.555 196.463 480.335C205.287 478.763 228.917 464.87 236.022 458.777C246.892 449.454 264.807 429.053 252.986 414.599C249.415 410.236 236.253 406.19 230.489 405.179C223.713 403.997 219.155 405.057 212.574 405.776C211.014 405.947 208.37 404.46 207.821 407.811C207.456 407.702 206.883 407.897 206.469 407.811C206.664 406.105 203.264 404.472 202.569 403.509C202.142 402.912 202.471 401.779 202.386 401.693C206.895 401.852 206.006 393.979 207.139 390.823C208.809 388.739 208.614 395.234 208.528 395.953C208.285 398.257 207.285 399.536 207.139 401.681C209.077 401.681 215.243 402.035 216.328 400.353C216.511 400.073 217.254 394.515 217.242 393.796C217.108 382.146 204.763 377.698 195.427 375.016C185.617 372.189 181.352 372.677 171.822 375.187C171.212 375.345 170.627 375.833 170.469 375.87C169.799 376.004 168.531 375.906 167.751 375.87C168.324 374.054 166.203 373.895 165.034 375.187C163.912 375.126 162.767 375.224 161.633 375.187C162.194 372.494 157.929 370.775 156.04 371.238C152.652 372.067 151.982 375.419 150.763 377.905L150.738 377.941ZM294.372 373.871C292.276 374.444 293.885 379.355 296.383 378.624C298.601 377.966 297.114 373.128 294.372 373.871ZM511.297 381.341C511.845 380.769 506.934 372.762 505.874 373.871C505.715 375.163 510.285 382.389 511.297 381.341ZM303.524 380.659C301.952 379.087 297.736 383.486 300.112 385.107C303.11 387.142 304.609 381.756 303.524 380.659ZM292.447 384.266C291.362 382.877 286.597 380.72 285.195 383.048C284.074 386.606 291.423 384.717 293.007 386.765C293.214 386.265 292.678 384.571 292.447 384.266ZM408.087 411.906C408.806 411.406 412.45 406.836 412.669 405.971C414.851 397.452 407.27 390.701 399.812 388.605C395.34 387.35 397.07 388.946 394.791 391.469C383.47 404.009 352.6 402.413 338.817 394.589C334.028 391.871 332.456 390.055 330.932 384.668C323.462 385.132 314.005 388.934 311.994 396.928C311.519 398.817 311.982 403.034 311.58 403.643C311.385 403.96 306.656 405.423 304.865 406.775C300.989 409.712 300.356 411.76 298.771 415.964C298.272 417.293 296.578 418.536 297.419 420.997C293.86 422.935 294.08 413.905 289.717 415.355C288.242 415.842 285.695 421.266 285.878 423.033C286.073 424.958 288.608 429.224 290.46 430.052C291.143 430.357 297.991 432.331 298.381 432.246C299.844 431.905 298.418 429.382 300.807 429.553C301.477 430.71 301.16 432.672 301.489 433.623C297.077 434.683 299.222 441.41 298.796 444.847C298.589 446.541 297.614 447.626 297.431 448.954C297.138 451.087 298.077 452.549 298.04 454.292C297.943 458.618 295.444 455.718 293.763 455.986C293.068 456.096 293.409 457.339 293.336 457.4C293.117 457.582 288.973 458.362 287.73 458.923C262.942 470.171 283.221 480.859 298.247 485.429C331.968 495.679 384.042 497.214 418.287 489C426.404 487.05 451.374 480.092 440.711 467.917C435.58 462.055 430.438 461.568 423.71 460.13C419.396 459.203 415.314 458.862 412.17 455.377C412.316 455.011 412.048 454 412.365 453.22C414.924 446.797 418.653 440.557 419.64 433.647C417.751 433.733 417.617 435.658 415.789 436.926C414.302 437.962 412.511 438.51 410.817 439.083C409.135 437.876 399.69 440.192 399.276 438.742C398.825 437.169 400.738 437.767 401.652 437.73C404.163 437.645 406.271 437.864 408.83 437.401C409.964 437.194 411.207 437.328 410.829 435.695C420.444 433.343 426.002 423.52 419.957 414.685C418.97 413.247 413.9 408.335 412.267 409.286C411.962 409.469 410.098 413.807 409.464 414.636L408.111 411.918L408.087 411.906ZM503.071 402.315C506.824 399.951 499.732 384.473 494.065 386.131C491.713 386.826 493.151 395.698 494.43 397.879C495.649 399.939 500.828 403.729 503.071 402.315ZM504.509 397.306C503.997 400.889 504.887 405.471 504.509 409.188C501.816 405.752 500.792 403.595 496.344 402.071C492.639 400.804 485.01 400.024 488.898 405.447C493.029 411.211 495.552 409.31 501.389 409.932C502.047 410.005 503.948 410.224 503.826 411.224H493.98C493.041 411.224 491.335 412.905 491.567 414.258C491.652 414.77 496.917 417.792 498.099 417.975C500.097 418.28 503.461 418.085 505.167 416.976C506.654 416.013 506.008 414.161 507.897 414.636L511.285 421.095C507.629 419.352 503.522 418.853 499.464 419.425C491.603 420.522 498.318 425.251 502.206 426.786C508.933 429.443 511.394 424.617 513.649 424.775C514.063 424.8 515.526 428.87 517.415 428.212C515.124 424.495 519.864 422.57 518.438 419.413L514.709 413.953C514.709 414.941 514.782 415.94 514.624 416.915C514.466 417.829 514.368 420.595 513.357 420.729C512.15 417.561 508.007 415.136 509.615 411.224C511.248 417.402 514.795 411.687 514.746 408.153C514.709 405.191 512.126 405.825 511.589 403.814C510.968 401.511 512.004 400.475 511.931 398.732C511.87 397.148 510.151 392.712 509.274 391.322C507.568 388.629 504.728 395.795 504.521 397.306H504.509ZM431.169 394.93C429.682 394.491 424.49 393.772 425.063 396.612C425.575 399.122 430.608 396.453 431.169 394.93ZM482.11 394.247C481.159 395.222 486.107 399.878 487.204 400.341C487.216 399.22 483.28 393.053 482.11 394.247ZM670.188 399C668.458 397.452 666.593 402.522 665.643 403.107C664.412 403.851 662.109 403.887 660.524 404.606C655.004 407.117 654.004 411.662 654.577 417.341C661.121 417.451 664.193 413.368 666.484 407.848C666.971 406.678 666.666 405.155 667.178 403.79C667.544 402.802 670.883 399.622 670.201 399H670.188ZM433.204 403.083C432.01 402.473 427.988 400.877 427.098 401.718C426.721 402.071 427.05 403.997 428.22 404.35C429.06 404.606 432.851 404.326 433.204 403.071V403.083ZM35.6707 408.518C33.5137 409.152 35.1345 414.343 36.9747 413.941C39.7899 413.32 38.8028 407.616 35.6707 408.518ZM46.8582 416.659C47.6382 415.867 46.6876 412.406 43.8725 413.32C42.7391 413.466 42.4588 416.318 42.7878 416.659C42.9341 416.805 46.7242 416.805 46.8704 416.659H46.8582ZM28.2855 418.121C23.9471 419.511 29.9673 422.509 33.6234 422.131C39.4608 421.534 32.8678 416.647 28.2855 418.121ZM42.0932 420.742C40.0092 419.011 39.473 423.8 39.3755 425.482H42.081C41.2279 424.41 42.2638 420.888 42.081 420.742H42.0932ZM532.344 434.318C531.978 432.867 531.027 426.518 529.918 426.238C522.497 428.687 514.076 429.662 507.227 433.306L532.344 434.318ZM142.585 544.365C141.44 543.244 141.44 544.719 141.172 545.316C138.235 551.823 139.405 554.821 131.398 557.953C129.936 558.526 125.816 559.087 125.609 559.306C125.536 559.379 125.548 561.256 125.609 561.329C125.829 561.597 130.898 562.414 132.397 563.048C136.626 564.851 138.284 567.679 140.002 571.737C140.684 573.358 141.184 579.256 142.659 576.002C143.743 573.614 144.036 570.213 145.413 567.886C147.789 563.84 153.712 561.658 158.209 561.329C159.818 559.855 150.519 557.271 149.581 556.723C143.195 552.957 144.511 546.254 142.585 544.353V544.365ZM475.309 631.989C473.871 630.429 471.483 638.765 471.044 639.606C467.583 646.113 458.479 646.43 457.663 647.966C457.017 649.184 458.65 648.989 459.162 649.16C464.451 650.842 468.314 650.61 471.166 656.192C472.543 658.897 472.628 662.115 474.31 664.589L477.552 656.301C479.587 651.561 485.497 649.696 490.25 648.965C490.482 647.807 489.97 647.576 489.093 647.076C486.521 645.626 482.231 645.187 479.782 642.798C477.637 640.702 475.37 635.048 475.309 631.989Z" fill="#5548FF"/>
<path d="M0 -140.318V-141H696V903H695.318V-140.33L0 -140.318Z" fill="white"/>
<path d="M642.354 432.965C642.451 432.38 642.585 432.477 643.036 432.282C642.829 432.526 642.634 432.794 642.354 432.965Z" fill="#5548FF"/>
<path d="M585.99 402.4C588.793 402.01 587.988 408.469 588.708 409.188L591.425 406.471C592.034 408.762 592.303 410.431 592.778 412.588C591.084 410.334 588.793 408.92 589.378 412.93C589.487 413.685 591.974 413.112 592.778 413.271C593.034 414.416 594.508 420.169 594.801 420.425C597.384 422.667 610.534 423.8 614.166 423.459C615.908 423.289 624.147 420.851 624.695 421.436C625.219 421.985 624.695 424.702 623.635 425.458C621.807 426.762 610.083 427.103 607.402 426.859C602.881 426.445 598.506 424.775 594.837 422.119L595.179 439.79L601.613 437.73C601.504 436.45 598.506 436.584 598.225 435.354C597.519 432.221 605.123 435.085 607.195 434.878C609.401 434.659 624.354 429.894 626.316 428.821C629.204 427.249 637.174 414.538 638.283 414.648C638.405 414.648 638.637 415.842 640.319 415.318C640.672 413.454 639.746 413.953 638.283 413.966C638.734 411.979 640.794 410.553 641.683 409.213L643.048 412.613L645.071 411.93C643.67 415.233 643.39 419.669 645.437 422.777C646.741 424.775 648.459 422.984 647.119 426.871C650.348 425.299 651.469 427.664 653.224 428.236C652.018 428.578 650.958 429.041 649.824 429.589C647.228 430.881 645.34 431.32 643.036 432.307C643.67 431.563 643.95 429.918 645.059 429.248L642.366 430.272C643.548 425.945 643.048 422.216 641.671 418.048C637.613 419.389 635.59 424.41 636.285 428.541C636.65 430.71 640.124 434.403 642.354 432.989C641.391 438.766 650.726 439.375 654.577 437.742C653.712 440.947 656.161 443.653 656.576 446.273C657.002 449.064 656.015 453.159 656.746 455.608C657.624 458.533 666.35 459.386 665.301 463.7C665.106 464.505 663.425 467.454 662.73 467.978C662.438 468.197 656.539 470.793 656.137 470.89C650.848 472.133 647.801 467.283 642.354 469.672C642.342 469.525 641.744 468.904 641.647 468.026C641.403 465.857 642.524 463.079 640.66 461.531C636.443 463.225 615.104 474.985 612.277 474.315C608.84 473.498 598.359 454.365 594.825 451.318C595.264 457.509 595.154 463.798 595.508 469.989C596.178 481.883 598.493 498.518 596.897 510.108C596.8 510.815 594.74 515.068 594.484 515.177C594.216 515.287 592.717 515.421 592.778 514.763L592.108 451.318L579.762 474.607C578.702 476.24 577.812 478.142 575.85 478.861L504.875 468.953C505.399 481.396 507.153 494.46 509.25 506.695L593.643 521.149C610.936 513.642 627.547 504.526 644.986 497.397C645.815 496.117 643.938 488.769 643.719 486.624C646.899 487.818 646.631 481.785 643.719 481.871C643.646 481.201 643.792 480.494 643.719 479.836C646.753 480.299 647.704 474.79 650.787 475.79C651.128 475.899 653.797 481.481 653.822 482.175C653.919 484.747 651.969 490.974 652.505 493.058C652.725 493.911 655.199 492.607 654.589 494.777C653.882 494.57 653.212 494.435 652.554 494.094C651.311 495.666 658.44 497.957 659.793 498.737C679.426 510.047 659.915 517.079 647.935 520.394C609.681 530.96 533.489 529.034 496.185 515.007C488.91 512.277 474.127 505.769 484.133 497.141C486.521 495.081 494.272 492.132 495.015 491.377C497.367 488.964 490.799 491.182 490.263 491.377C488.02 486.599 494.93 481.81 499.086 481.188C497.94 478.203 494.967 478.324 494.991 474.047C495.003 470.281 498.769 470.476 498.147 468.258C497.185 464.785 492.03 466.174 491.079 465.394C490.762 465.126 491.006 464.261 490.945 464.212L575.107 474.388L590.085 445.201C578.007 444.031 565.821 443.238 553.768 441.788C550.039 441.337 546.249 440.228 542.556 439.765L543.909 436.365C549.088 437.291 558.594 438.156 563.944 438.4C570.074 438.681 573.364 437.425 578.202 433.647C581.066 431.405 583.114 428.054 585.673 425.507C589.158 430.978 580.433 436.621 576.509 439.424C577.52 439.375 579.506 440.435 580.238 440.435H590.085C591.096 434.074 590.036 428.675 589.414 422.435C588.659 414.928 588.074 409.81 586.014 402.4H585.99ZM647.314 447.699C645.669 445.676 644.425 444.311 642.756 442.398C639.307 438.437 634.835 434.257 632.836 429.565L594.825 444.506C594.252 445.152 599.712 450.941 600.541 452.025C602.552 454.694 611.789 468.88 614.166 468.941C622.489 465.674 630.423 461.397 638.795 458.24C640.611 457.558 642.402 457.473 644.206 456.851C646.948 455.913 649.191 453.183 651.872 454.682C652.408 454.024 650.08 450.112 649.471 449.259C648.837 448.369 647.752 448.198 647.326 447.687L647.314 447.699Z" fill="#5548FF"/>
<path d="M643.706 486.624C643.914 488.781 645.803 496.117 644.974 497.397C627.535 504.526 610.924 513.63 593.631 521.149L509.237 506.695C507.141 494.46 505.386 481.408 504.862 468.953L575.838 478.861C577.8 478.129 578.69 476.241 579.75 474.607L592.095 451.318L592.766 514.763C592.705 515.421 594.204 515.287 594.472 515.178C594.74 515.068 596.787 510.815 596.885 510.108C598.469 498.518 596.166 481.883 595.496 469.989C595.142 463.798 595.264 457.509 594.813 451.318C598.335 454.353 608.828 473.498 612.265 474.315C615.092 474.985 636.431 463.225 640.648 461.531C642.512 463.079 641.379 465.845 641.635 468.027C641.732 468.904 642.329 469.526 642.342 469.672C642.415 470.33 642.256 471.049 642.342 471.707C642.524 473.121 642.902 474.729 643.024 475.777C643.195 477.264 643.597 478.824 643.706 479.848C643.78 480.518 643.633 481.225 643.706 481.883C643.877 483.406 643.56 485.1 643.706 486.636V486.624ZM637.601 482.541V470.659C637.601 469.574 636.784 467.758 635.224 468.27C633.811 468.733 635.017 482.09 635.578 482.541C635.773 482.7 637.04 482.456 637.601 482.541ZM600.931 470.318H598.896C599.822 473.194 599.59 476.167 599.578 479.153C600.419 480.25 600.809 479.141 600.931 478.154C601.235 475.729 600.711 472.816 600.931 470.33V470.318ZM583.955 477.447C582.809 488.781 584.808 501.906 583.955 513.447C584.564 514.958 586.672 514.337 586.672 513.447V477.447C586.672 476.704 585.32 474.498 585.99 473.035C584.844 471.451 584.04 476.63 583.955 477.447ZM517.415 501.565L513.893 477.581L511.309 476.436C511.004 479.348 513.137 500.651 514.051 501.528C514.368 501.833 516.61 501.431 517.415 501.565ZM538.425 504.331C538.218 504.002 531.917 502.625 531.015 502.528C527.664 502.138 527.054 503.941 530.54 505.075C532.38 505.684 540.557 507.731 538.425 504.331Z" fill="white"/>
<path d="M47.5285 437.718C44.3965 437.267 40.5211 436.95 38.6565 434.013C37.9984 432.965 38.23 431.771 37.8278 431.112C36.8163 429.467 26.4697 428.322 35.293 425.494C34.0499 427.761 38.6565 428.322 40.253 428.09C41.8495 427.859 42.7635 425.97 43.9212 425.641C45.6152 425.153 47.5285 425.787 49.1981 425.482C53.5854 424.69 56.2421 410.968 58.0457 407.165C60.605 403.643 68.4532 405.13 72.3286 401.754C74.7173 399.67 74.4613 390.238 79.1533 387.532C81.9197 385.936 90.4138 387.922 93.9602 388.02C98.6887 378.77 106.184 383.608 113.398 381.707C115.08 381.268 117.213 379.33 119.004 378.465C119.955 378.002 121.734 378.136 122.087 377.831C123.343 376.759 121.685 373.42 128.034 372.579C136.711 371.433 132.714 376.211 133.75 377.271C134.396 377.941 140.331 375.808 139.868 378.624C132.86 378.319 124.074 379.989 118.59 384.169C117.822 384.754 117.2 384.876 117.469 386.094C123.172 385.57 128.912 388.373 133.714 391.249C143.56 397.135 152.164 407.251 156.186 418.024L172.687 411.114C174.99 409.871 171.614 404.496 170.542 402.632C166.313 395.259 155.443 385.521 148.703 381.353C148.825 380.439 149.69 379.915 150.056 379.318C163.059 385.412 173.04 396.551 178.244 409.883C183.521 406.544 189.907 403.57 196.22 403.083C196.244 404.594 195.549 407.531 197.914 406.471C200.083 405.496 198.352 403.741 198.255 403.083C198.023 401.352 197.694 397.733 196.902 396.295L197.585 394.942C198.121 395.953 199.425 396.867 199.998 398.318C200.412 399.378 200.071 401.267 200.412 401.669C200.717 402.035 202.191 401.596 202.337 401.742C202.423 401.827 202.081 402.961 202.52 403.558C203.215 404.521 206.615 406.154 206.42 407.86C198.962 406.3 190.053 408.567 183.545 412.479C183.119 412.735 178.939 415.221 179.95 416.001C187.859 415.72 196.354 419.511 202.362 424.483C210.734 431.405 224.274 448.479 222.75 459.849C222.616 460.824 220.947 464.858 220.349 464.894C219.082 464.98 218.985 452.927 217.632 451.318C207.7 425.177 173.918 403.802 150.751 428.565C159.196 428.797 167.434 430.796 174.722 435.146C186.604 442.251 200.838 460.617 196.244 475.083C194.66 472.341 195.476 467.649 194.916 465.321C194.708 464.48 193.77 465.041 193.526 464.894C192.125 464.041 190.796 458.679 189.566 456.291C181.437 440.521 159.415 426.579 141.684 433.745C135.919 436.072 127.401 442.129 126.304 448.588C149.3 440.764 170.969 467.71 158.891 488.659C159.367 489.305 166.959 488.817 168.397 488.659C169.189 491.486 163.254 488.817 164.327 491.023C165.399 493.229 169.726 491.047 171.115 492.729C162.986 493.68 155.491 493.887 147.351 494.082C149.276 491.45 146.071 490.755 146.668 494.082C136.724 494.289 128.169 494.192 118.151 493.4C118.529 491.267 116.372 491.377 116.798 493.4C95.7638 491.608 67.2468 487.66 49.125 476.533C44.5306 473.706 38.3641 468.429 38.6809 462.518C38.8637 459.094 43.7994 453.098 43.4581 452.647C43.3485 452.513 42.2151 452.793 42.1054 452.647C41.7154 452.159 42.8 449.454 42.6538 448.381C42.4223 446.748 40.1311 445.03 40.8014 442.897C41.362 441.13 45.213 441.033 44.1406 443.823C48.5035 443.787 45.8224 440.874 47.5285 438.388C44.8718 459.301 77.3009 461.348 91.5716 459.337C93.1803 455.462 95.2764 453.39 95.7273 448.905C96.9094 437.303 91.3644 426.713 80.8107 421.729C79.982 421.339 75.3388 419.364 75.0219 419.364H64.4925C62.957 415.343 70.7444 415.245 73.4498 415.452C91.0719 416.817 106.513 439.083 97.8965 455.157C97.0069 456.827 95.118 457.534 95.0448 459.435H110.327C110.644 459.435 113.191 455.242 114.044 454.328C116.018 452.22 120.101 449.88 121.161 448.54C122.221 447.199 122.136 445.2 123.001 443.58C124.586 440.63 130.447 436.243 130.362 434.037C130.179 429.601 123.562 419.425 120.527 415.952C111.838 405.971 94.0333 396.112 80.7985 401.364C76.4843 403.083 66.5765 410.748 64.1879 414.636C62.8473 416.817 63.5542 418.718 62.7986 420.035C62.4573 420.62 54.4628 426.238 52.9395 428.029C51.7817 429.394 47.8454 436.182 47.5163 437.706L47.5285 437.718ZM144.45 428.017C144.852 427.761 147.777 423.849 149.045 422.764C151.835 420.376 153.712 422.143 152.128 416.964C147.655 402.327 124.415 385.265 108.987 386.777C104.733 387.191 90.5479 392.809 88.9514 396.624C88.3787 398.001 89.8898 397.586 90.6332 397.635C112.935 399.122 125.987 412.308 134.14 432.27C136.236 431.576 137.857 430.174 139.88 429.236C141.318 428.565 143.658 428.517 144.45 428.029V428.017ZM126.292 488.659C125.512 490.341 122.697 490.523 122.904 492.729C126.657 492.23 130.825 494.777 129.692 489.341C137.747 490.718 146.388 491.303 154.346 489.353C167.142 470.464 147.338 445.688 126.121 451.465C121.234 452.793 113.215 462.823 111.704 467.612C108.194 478.666 116.494 486.002 126.304 488.659H126.292ZM156.856 492.729C158.575 491.108 154.139 488.89 152.786 490.706C151.616 492.29 156.113 493.424 156.856 492.729ZM142.586 492.059C141.842 491.316 140.489 492.668 141.233 493.412C141.976 494.155 143.329 492.802 142.586 492.059Z" fill="#5548FF"/>
<path d="M298.771 415.977C300.356 411.772 300.989 409.725 304.865 406.788C306.656 405.435 311.373 403.96 311.58 403.656C311.97 403.046 311.519 398.817 311.994 396.941C314.017 388.946 323.462 385.144 330.932 384.681C332.456 390.067 334.028 391.883 338.817 394.601C352.6 402.413 383.47 404.009 394.791 391.481C397.07 388.958 395.352 387.35 399.812 388.617C407.27 390.713 414.851 397.465 412.669 405.983C412.45 406.849 408.806 411.419 408.087 411.918C405.942 413.417 398.118 416.001 395.352 416.501C378.522 419.572 348.225 412.796 330.555 409.664C327.666 409.152 318.441 406.215 316.784 406.446C315.833 406.58 314.968 407.08 315.065 408.165C315.37 409.505 324.705 411.943 326.472 412.394C337.111 415.063 350.224 417.439 361.119 419.169C372.014 420.9 402.335 424.093 409.452 414.624C410.073 413.795 411.938 409.444 412.255 409.274C413.888 408.323 418.958 413.234 419.945 414.673C426.002 423.508 420.444 433.331 410.817 435.683C406.966 436.621 402.371 436.572 398.593 437.035C397.948 437.121 397.155 436.914 396.558 437.035C392.902 437.754 388.369 440.362 385.334 440.46C380.728 440.618 376.353 436.853 371.77 436.975C364.653 437.169 357.682 441.325 348.689 440.423C341.608 439.704 335.039 433.989 329.507 433.111C325.716 432.514 320.001 434.037 315.431 433.623C310.861 433.209 308.155 431.308 304.219 430.235C300.673 425.251 297.419 423.545 298.784 415.977H298.771ZM327.959 390.847C326.716 389.629 320.635 395.71 321.853 396.953C325.558 396.819 328.129 394.698 327.959 390.847ZM395.291 405.203C395.096 405.545 395.071 406.483 395.206 406.812C396.887 411.126 409.05 399.89 400.629 397.647C402.128 401.596 395.851 404.216 395.291 405.203ZM312.348 411.906C310.727 411.528 311.251 412.186 310.836 412.784C309.776 414.331 308.033 416.708 308.765 418.487C309.813 421.022 318.258 428.541 321.195 426.53C324.936 423.971 313.651 418.926 312.311 416.842C311.324 415.306 312.555 413.527 312.36 411.906H312.348ZM414.193 420.059C412.572 418.962 411.658 421.643 410.975 422.107C409.306 423.228 406.466 425.056 404.699 425.836C402.164 426.957 399.178 426.019 399.934 428.895C404.443 429.382 413.01 428.59 414.448 423.313C414.656 422.545 414.583 420.339 414.18 420.071L414.193 420.059Z" fill="white"/>
<path d="M304.207 430.247C304.316 430.405 304.134 431.502 304.56 432.246C307.107 436.608 315.065 436.84 315.748 437.73C315.857 437.876 314.931 439.911 315.029 441.422C315.358 446.187 321.098 465.296 323.194 470C323.913 471.621 324.339 474.059 326.606 472.694C323.901 460.97 321.146 449.088 317.088 437.73C321.414 439.143 325.753 436.864 330.189 437.864C332.639 438.424 335.685 442.117 338.817 441.8C338.988 443.128 337.696 443.604 337.477 444.871C336.672 449.429 339.378 467.051 340.353 472.523C340.694 474.4 341.047 477.569 343.57 476.094C343.07 464.87 342.23 453.512 340.17 442.483C346.982 444.262 352.747 445.322 359.864 443.835C359.803 444.493 359.961 445.237 359.864 445.871C358.755 452.646 357.682 468.611 358.475 475.448C358.84 478.58 361.399 478.909 361.704 475.923C362.435 468.965 362.521 460.751 362.581 453.682C362.606 451.476 364.178 448.052 361.899 445.858C361.546 444.177 362.691 444.42 363.739 444.006C365.713 443.214 370.734 441.361 372.599 441.264C375.731 441.093 379.545 444.201 382.946 443.835C381.069 453.329 377.157 465.199 376.803 474.778C376.755 475.96 377.425 478.873 378.863 477.8C380.082 476.886 384.749 451.647 385.615 448.162L384.311 444.53C389.88 445.42 394.889 441.325 399.763 440.63C404.224 439.984 406.027 440.691 410.792 439.095C412.499 438.522 414.278 437.973 415.765 436.938C417.593 435.67 417.715 433.745 419.616 433.659C418.629 440.569 414.899 446.809 412.34 453.231C412.023 454.024 412.291 455.023 412.145 455.388C412.109 455.486 411.17 455.973 410.744 457.021C408.184 463.322 405.747 469.745 403.822 476.277C384.055 484.832 359.669 484.856 338.671 481.005C333.65 480.091 318.941 476.91 316.077 473.035C311.519 460.738 307.107 448.405 302.83 435.999C302.513 435.085 301.672 434.305 301.465 433.659C301.148 432.709 301.465 430.734 300.782 429.589C301.538 429.638 303.378 430.052 304.182 430.271L304.207 430.247ZM406.052 441.118C404.662 440.057 402.688 445.078 402.347 445.883C399.678 452.013 396.534 462.396 394.864 468.965C394.547 470.208 393.195 475.119 393.841 475.753C393.975 475.887 395.413 475.972 395.925 475.326C396.899 474.12 400.763 462.603 401.616 460.093C402.981 456.12 406.003 448.247 406.466 444.506C406.637 443.128 406.442 442.397 406.052 441.105V441.118Z" fill="white"/>
<path d="M212.538 405.788C219.119 405.069 223.676 404.009 230.452 405.191C236.217 406.202 249.378 410.248 252.949 414.611C264.77 429.053 246.868 449.466 235.985 458.789C228.88 464.882 205.25 478.775 196.427 480.347C195.232 480.554 194.05 480.567 192.856 480.506C194.233 478.617 195.501 477.435 196.256 475.083C200.851 460.605 186.616 442.251 174.734 435.146C167.447 430.795 159.22 428.797 150.763 428.565C173.93 403.802 207.712 425.177 217.644 451.318C218.997 452.915 219.094 464.967 220.362 464.894C220.959 464.858 222.628 460.824 222.762 459.849C224.286 448.491 210.746 431.417 202.374 424.483C196.354 419.51 187.872 415.72 179.962 416.001C178.963 415.208 183.131 412.735 183.557 412.479C190.065 408.567 198.974 406.3 206.432 407.86C206.846 407.945 207.431 407.75 207.785 407.86C210.064 408.53 214.256 411.309 216.608 412.613C217.047 412.856 217.534 413.039 217.961 413.295C227.235 418.791 235.485 425.726 239.812 435.926C240.506 437.584 242.054 444.262 242.408 444.542C243.98 445.712 244.455 442.336 244.504 441.496C244.991 431.039 228.039 411.65 217.961 409.907C217.339 409.797 216.571 409.98 215.926 409.907C215.048 407.116 213.305 408.043 210.49 407.86L212.525 405.825L212.538 405.788ZM242.371 412.637C242.213 412.406 237.204 411.053 236.984 411.223C235.705 412.284 237.947 412.686 238.325 412.905C238.995 413.307 240.896 414.441 241.42 414.599C242.822 415.013 242.712 413.125 242.383 412.625L242.371 412.637ZM213.89 422.094C215.463 420.388 207.48 414.94 206.432 415.988C205.725 416.695 206.725 417.975 207.541 418.609C208.114 419.047 213.647 422.374 213.89 422.106V422.094ZM169.75 426.164C171.809 424.166 164.229 421.168 163.644 423.8C163.169 425.921 169.165 426.737 169.75 426.164ZM249.196 422.777C247.453 421.119 247.855 426.286 247.697 427.03C247.136 429.65 245.954 430.905 247.173 434.317C251.767 434.244 251.048 424.531 249.196 422.777ZM198.267 436.353C201.277 433.233 186.409 423.837 184.691 425.494C183.838 426.311 185.227 427.517 185.812 428.102C187.494 429.808 193.258 433.806 195.537 435.353C196.146 435.768 197.597 437.047 198.267 436.353ZM236.29 445.188C233.901 444.944 235.485 447.881 233.877 449.904C231.89 452.403 225.992 453.634 226.784 458.094C231.513 456.144 237.703 450.892 236.278 445.2L236.29 445.188ZM207.785 468.282C210.478 469.123 217.9 463.517 217.291 461.165C217.071 460.324 215.194 459.739 214.597 460.154C214.475 460.239 214.207 462.055 213.549 462.835C212.891 463.615 206.749 467.393 207.785 468.282Z" fill="white"/>
<path d="M641.671 409.188C640.782 410.529 638.722 411.954 638.271 413.941V414.623C637.162 414.514 629.192 427.225 626.304 428.797C624.342 429.869 609.388 434.634 607.183 434.854C605.111 435.061 597.506 432.197 598.213 435.329C598.493 436.56 601.491 436.426 601.601 437.705L595.166 439.765L594.825 422.094C598.493 424.751 602.869 426.433 607.39 426.835C610.071 427.078 621.795 426.737 623.623 425.433C624.695 424.665 625.207 421.96 624.683 421.412C624.135 420.839 615.896 423.276 614.154 423.435C610.522 423.776 597.372 422.642 594.789 420.4C594.508 420.156 593.022 414.404 592.766 413.246C592.717 413.027 592.814 412.783 592.766 412.564C592.278 410.407 592.022 408.737 591.413 406.446C591.145 405.422 590.938 402.059 590.73 401.693C594.813 402.412 595.764 399.89 595.483 396.258C594.557 395.198 591.255 399.902 591.401 401.011C590.779 401.437 588.61 396.916 588.013 396.258C598.25 382.779 607.049 367.082 619.918 355.834C628.497 348.327 644.072 337.773 654.882 346.694C671.383 360.307 650.629 395.588 641.659 409.164L641.671 409.188ZM642.354 350.094C638.673 348.814 634.31 350.923 631.044 352.69C629.619 353.458 622.136 358.308 624.037 360.27L635.334 354.262C636.248 353.628 643.78 352.02 642.366 350.094H642.354ZM628.095 367.753C627.267 368.557 630.642 371.287 631.264 371.713C637.199 375.833 642.354 374.468 648.886 373.931C650.031 373.834 651.969 375.248 652.505 373.481C654.102 368.204 643.207 372.043 640.002 371.835C635.736 371.555 632.178 368.728 628.107 367.765L628.095 367.753ZM650.495 382.682C652.968 379.355 640.903 382.024 640.002 382.048C630.581 382.316 620.612 376.734 616.189 368.435C608.511 370.239 619.26 377.953 622.294 379.988C628.705 384.278 634.091 386.179 642 385.399C643.451 385.253 649.885 383.498 650.495 382.682ZM641.671 396.965C635.456 395.831 630.435 398.378 623.854 397.464C616.335 396.428 611.326 391.042 604.331 389.494C601.918 392.163 615.08 398.415 616.859 399.024C624.074 401.498 628.656 401.035 635.968 400.426C638.576 400.206 641.269 402.193 641.671 396.965ZM634.883 407.835C628.887 409.164 623.135 410.504 616.896 409.858C609.644 409.115 603.222 404.569 596.178 403.753C595.227 406.812 599.371 408.177 601.833 409.31C608.365 412.296 616.396 414.404 623.598 413.856C627.291 413.575 635.005 412.588 634.883 407.835Z" fill="white"/>
<path d="M47.5285 437.718C47.8575 436.206 51.7939 429.406 52.9516 428.041C54.475 426.25 62.4695 420.644 62.8107 420.047C63.5663 418.73 62.8595 416.829 64.2 414.648C66.6008 410.76 76.4965 403.095 80.8106 401.376C94.0455 396.124 111.838 405.983 120.54 415.964C123.574 419.437 130.192 429.613 130.374 434.049C130.46 436.255 124.61 440.63 123.013 443.592C122.148 445.2 122.27 447.175 121.173 448.552C120.076 449.929 116.043 452.232 114.056 454.34C113.203 455.255 110.656 459.447 110.339 459.447H95.057C95.1423 457.546 97.0191 456.839 97.9087 455.169C106.525 439.083 91.0841 416.829 73.462 415.464C70.7565 415.257 62.957 415.355 64.5047 419.376H75.0341C75.3509 419.376 79.9941 421.351 80.8228 421.741C91.3766 426.725 96.9094 437.328 95.7394 448.917C95.2885 453.402 93.1924 455.474 91.5838 459.349C77.313 461.36 44.884 459.301 47.5407 438.4C47.5651 438.181 47.4919 437.937 47.5407 437.718H47.5285ZM60.4343 433.635C59.764 432.94 56.4858 434.013 56.4005 435.987C56.1689 441.325 64.9678 454.438 71.9752 451.976C72.5358 448.735 69.0869 449.185 67.1858 447.613C65.565 446.273 61.5189 439.204 60.7634 437.059C60.3856 435.999 60.5684 433.769 60.4465 433.647L60.4343 433.635Z" fill="white"/>
<path d="M301.489 433.647C301.708 434.306 302.549 435.073 302.854 435.987C307.119 448.394 311.543 460.727 316.101 473.023C318.965 476.886 333.674 480.067 338.695 480.993C359.693 484.844 384.079 484.82 403.846 476.265C405.784 469.745 408.209 463.31 410.768 457.01C411.195 455.962 412.121 455.486 412.17 455.377C415.314 458.862 419.396 459.203 423.71 460.13C435.532 465.394 450.119 473.62 430.486 482.188C403.773 493.838 347.226 491.913 318.441 486.977C302.488 484.235 255.752 474.4 293.848 458.253L293.336 457.412C293.409 457.351 293.068 456.12 293.763 455.998C295.444 455.73 297.931 458.631 298.04 454.304C298.077 452.561 297.151 451.111 297.431 448.966C297.614 447.638 298.589 446.553 298.796 444.859C299.222 441.411 297.077 434.696 301.489 433.635V433.647Z" fill="#5548FF"/>
<path d="M542.532 439.753C546.224 440.228 550.027 441.337 553.744 441.776C565.796 443.226 577.983 444.018 590.06 445.188L575.083 474.376L490.921 464.2C490.543 463.932 488.264 464.882 488.885 463.188L503.205 434.354C516.184 436.974 529.407 438.071 542.52 439.741L542.532 439.753ZM504.509 447.236C503.095 445.712 499.768 453.317 499.366 453.963C498.586 455.23 494.808 459.093 495.686 460.129C507.629 463.773 502.084 454.365 504.509 447.236ZM520.766 460.86C520.254 460.032 509.03 459.154 507.227 459.447C504.935 461.433 516.196 462.762 517.074 462.835C518.889 462.981 522.253 463.298 520.754 460.86H520.766ZM539.144 464.882C539.631 461.397 529.212 461.36 528.285 462.177C527.883 465.406 538.705 465.272 539.144 464.882ZM571.731 463.529C569.867 463.286 569.355 465.674 567.868 466.101C566.637 466.454 564.907 466.223 563.444 466.43C562.567 466.564 559.8 466.54 560.203 467.929C561.019 469.233 562.104 468.806 563.237 468.965C568.282 469.696 572.511 470.244 571.731 463.517V463.529Z" fill="white"/>
<path d="M582.602 392.882C583.126 393.845 585.88 399.305 586.002 399.67C586.221 400.341 585.795 401.669 586.002 402.388C588.062 409.786 588.647 414.916 589.402 422.423C590.024 428.663 591.084 434.062 590.072 440.423H580.226C579.494 440.423 577.508 439.363 576.496 439.412C580.421 436.621 589.146 430.966 585.661 425.494C583.102 428.029 581.054 431.393 578.19 433.635C573.364 437.413 570.062 438.656 563.932 438.388C558.582 438.144 549.076 437.291 543.897 436.353C543.239 436.231 542.812 435.744 542.544 435.67C542.483 431.588 541.666 427.92 541.837 423.752C542.105 417.268 543.97 408.64 545.932 402.388C549.161 392.139 555.828 378.392 568.916 381.098C575.546 382.463 579.543 387.228 582.59 392.882H582.602ZM563.591 401.73C568.136 405.91 571.987 400.682 574.766 397.611C575.57 396.721 577.532 396.027 577.8 395.161C578.763 391.932 571.402 385.692 568.014 386.094C565.589 386.375 571.926 391.188 572.328 391.968C574.632 396.368 567.527 401.255 563.591 401.73ZM585.307 407.153C584.674 406.532 583.236 407.555 582.578 408.152C577.861 412.503 577.008 415.684 570.171 418.828C568.575 419.559 564.127 419.572 565.662 422.033C567.807 425.47 579.543 417.536 581.542 415.257C582.456 414.209 586.27 408.092 585.307 407.153Z" fill="white"/>
<path d="M168.397 488.659C166.959 488.805 159.367 489.305 158.891 488.659C170.969 467.71 149.3 440.765 126.304 448.589C127.389 442.13 135.907 436.085 141.684 433.745C159.415 426.579 181.449 440.509 189.566 456.291C190.796 458.679 192.125 464.054 193.526 464.895C193.27 468.027 193.916 471.622 193.465 474.681C193.185 476.594 192.222 477.447 191.735 478.946C191.516 479.616 192.515 480.628 191.54 481.542C190.675 482.358 182.217 485.576 180.462 486.136C176.587 487.355 172.443 488.257 168.397 488.671V488.659ZM164.327 444.506C164.765 444.945 168.092 444.482 167.715 442.824C167.13 440.216 162.779 442.958 164.327 444.506Z" fill="white"/>
<path d="M351.735 369.788C346.129 364.511 355.343 354.823 361.887 356.175C361.704 342.648 376.084 333.361 388.405 339.236C386.589 345.353 381.959 345.463 376.499 345.366C373.586 345.317 372.489 343.708 369.418 345.707C367.066 347.254 364.641 353.08 365.287 355.761C365.397 356.224 372.16 357.918 374.11 359.307C378.607 362.525 378.047 366.242 379.741 368.277C380.35 369.008 388.856 371.543 391.805 374.894C395.254 378.818 395.839 385.546 392.183 389.531C382.751 399.804 353.673 399.353 341.986 393.491C330.165 387.569 330.152 376.32 341.998 370.58C345.228 369.02 348.81 366.79 351.065 370.483C351.236 370.763 350.967 371.884 351.699 372.883C353.051 374.748 362.033 377.904 363.288 376.588C363.386 376.491 363.349 374.041 363.24 373.919C363.032 373.688 358.401 373.322 357.171 372.859C356.707 372.688 351.967 370.007 351.747 369.8L351.735 369.788ZM369.296 362.403C368.772 361.574 364.361 361.684 363.081 361.489C361.704 361.282 359.644 358.869 358.645 362.122C355.635 372.006 372.916 368.228 369.284 362.403H369.296ZM347.653 374.553C345.081 373.371 339.11 379.074 339.561 380.927C342.473 383.364 350.395 389.543 351.053 382.694C343.582 382.73 346.69 379.074 347.653 374.541V374.553ZM376.17 389.482C380.594 390.469 388.04 385.448 386.748 380.647C386.248 378.806 383.25 374.175 381.605 376.929C385.164 382.255 384.006 383.608 379.119 386.655C377.352 387.751 375.573 386.606 376.182 389.47L376.17 389.482Z" fill="white"/>
<path d="M150.738 311.377C151.311 314.496 148.715 316.641 148.021 319.53C144.694 317.08 142.902 314.704 138.174 314.728C131.873 314.752 129.338 321.614 124.598 321.614C120.722 321.614 117.871 316.032 113.069 315.447C111.473 315.252 108.767 315.289 107.244 315.764C103.332 316.97 101.674 323.064 95.7516 320.541C94.338 319.944 91.6691 316.385 89.6704 315.764C81.4321 313.217 80.6034 318.213 75.6312 320.809C70.1106 323.685 68.8919 319.091 65.4187 316.934C61.6042 314.557 56.0836 314.301 52.2935 316.824C51.0139 316.081 49.8074 311.584 49.5759 311.389C52.6104 309.573 54.1703 305.515 58.0701 305.234C64.9434 304.735 67.8926 315.337 77.6421 310.597C80.3719 309.268 82.5411 305.649 85.2832 305.295C91.3888 304.503 93.8017 314.63 103.039 310.877C106.086 309.646 106.976 305.027 111.692 305.234C117.359 305.478 119.76 315.618 129.741 310.414C131.922 309.28 133.433 306.77 135.42 305.905C143.17 302.541 144.743 311.425 150.751 311.389L150.738 311.377Z" fill="#5548FF"/>
<path d="M139.88 378.623C140.331 378.648 140.794 378.575 141.233 378.623C141.33 378.623 141.976 379.172 142.585 379.306C143.195 379.44 144.145 379.135 144.621 379.306C145.096 379.476 145.522 379.781 145.973 379.988C146.217 380.098 148.557 381.256 148.691 381.341C155.443 385.521 166.301 395.246 170.53 402.619C171.602 404.484 174.966 409.858 172.675 411.101L156.174 418.011C152.152 407.238 143.548 397.123 133.701 391.237C128.912 388.373 123.16 385.558 117.456 386.082C117.188 384.863 117.822 384.741 118.577 384.156C124.062 379.976 132.848 378.307 139.856 378.611L139.88 378.623ZM150.738 392.2C151.043 389.128 148.581 388.47 145.998 388.812L150.738 392.2Z" fill="white"/>
<path d="M396.546 437.035C396.692 438.217 398.13 437.864 398.581 437.035C402.359 436.572 406.954 436.621 410.805 435.682C411.195 437.315 409.952 437.181 408.806 437.389C406.247 437.852 404.139 437.632 401.628 437.718C400.714 437.754 398.801 437.157 399.252 438.729C399.666 440.179 409.111 437.876 410.792 439.07C406.04 440.667 404.224 439.96 399.763 440.606C394.889 441.313 389.88 445.395 384.311 444.506L385.615 448.137C384.762 451.623 380.082 476.862 378.863 477.776C377.425 478.848 376.767 475.948 376.804 474.753C377.157 465.187 381.069 453.305 382.946 443.811C379.546 444.177 375.719 441.069 372.599 441.24C370.734 441.349 365.714 443.189 363.739 443.982C362.679 444.408 361.546 444.152 361.899 445.834C361.326 445.286 360.473 445.334 359.864 445.834C359.961 445.2 359.803 444.457 359.864 443.799C352.759 445.273 346.995 444.225 340.17 442.446C342.23 453.475 343.07 464.833 343.57 476.057C341.047 477.532 340.694 474.351 340.353 472.487C339.366 467.015 336.672 449.393 337.477 444.835C337.696 443.567 338.988 443.092 338.817 441.764C335.685 442.08 332.639 438.376 330.189 437.827C325.753 436.828 321.415 439.107 317.088 437.693C321.146 449.051 323.901 460.934 326.606 472.657C324.339 474.022 323.913 471.585 323.194 469.964C321.098 465.26 315.358 446.151 315.029 441.386C314.931 439.875 315.857 437.839 315.748 437.693C315.053 436.804 307.107 436.56 304.56 432.209C304.134 431.478 304.316 430.381 304.207 430.21C308.155 431.283 310.873 433.184 315.419 433.598C319.964 434.013 325.704 432.489 329.494 433.087C335.027 433.964 341.596 439.68 348.676 440.399C357.67 441.301 364.641 437.145 371.758 436.95C376.34 436.828 380.715 440.594 385.322 440.435C388.357 440.326 392.89 437.718 396.546 437.011V437.035Z" fill="#5548FF"/>
<path d="M300.807 429.565C298.418 429.394 299.844 431.917 298.381 432.258C297.979 432.355 291.143 430.369 290.46 430.064C288.608 429.236 286.061 424.97 285.878 423.045C285.707 421.29 288.242 415.854 289.717 415.367C294.092 413.917 293.86 422.947 297.419 421.01C296.578 418.56 298.272 417.305 298.771 415.976C297.407 423.557 300.648 425.251 304.207 430.235C303.415 430.016 301.562 429.613 300.807 429.553V429.565Z" fill="#5548FF"/>
<path d="M490.25 491.376C490.787 491.169 497.355 488.951 495.003 491.376C494.272 492.132 486.509 495.081 484.12 497.141C474.115 505.769 488.898 512.265 496.173 515.007C533.477 529.034 609.669 530.959 647.923 520.393C659.903 517.078 679.414 510.047 659.781 498.737C658.428 497.957 651.299 495.678 652.542 494.094C653.2 494.435 653.87 494.569 654.577 494.776C655.528 495.057 656.027 495.544 657.295 495.459L658.648 496.141C659.525 497.031 662.023 497.36 663.181 498.055C678.67 507.451 670.018 515.421 657.465 520.43C633.47 530.009 595.13 531.154 569.318 530.118C550.136 529.351 493.906 522.855 480.708 509.401C472.58 501.114 482.585 494.289 490.238 491.376H490.25Z" fill="white"/>
<path d="M164.997 375.223C165.241 375.223 166.338 375.845 167.715 375.906C168.495 375.942 169.762 376.04 170.432 375.906L183.277 383.778C186.945 386.923 191.735 390.676 194.879 394.247C195.403 394.844 196.841 396.16 196.914 396.282C197.706 397.732 198.035 401.34 198.267 403.07C197.597 403.107 196.902 403.021 196.232 403.07C189.919 403.558 183.521 406.531 178.256 409.87C173.052 396.538 163.059 385.399 150.068 379.306C150.324 378.879 150.531 378.392 150.751 377.953L161.609 375.235C162.742 375.272 163.876 375.174 165.009 375.235L164.997 375.223ZM181.888 388.214C181.498 387.52 174.759 383.145 173.162 384.059C172.078 385.021 179.804 390.701 180.365 390.786C181.669 390.981 182.461 389.214 181.888 388.214Z" fill="white"/>
<path d="M42.0932 452.659C42.2029 452.805 43.3362 452.524 43.4459 452.659C43.7871 453.097 38.8515 459.105 38.6687 462.53C38.3518 468.441 44.5062 473.717 49.1128 476.545C67.2345 487.671 95.7516 491.62 116.786 493.411C117.237 493.448 117.7 493.375 118.139 493.411C128.156 494.204 136.711 494.301 146.656 494.094C146.887 494.094 147.107 494.094 147.338 494.094C155.479 493.899 162.986 493.692 171.103 492.741C171.541 492.692 172.017 492.79 172.455 492.741C173.028 492.68 173.613 492.741 173.808 492.059C179.158 492.668 199.12 487.586 205.323 485.892C219.996 481.87 237.106 476.618 244.114 462.176C244.589 461.189 243.967 460.482 245.771 460.824C244.918 471.975 232.329 478.629 223.152 482.675C180.523 501.479 108.597 501.942 64.8094 486.648C50.7824 481.749 25.0926 469.879 42.0688 452.671L42.0932 452.659Z" fill="white"/>
<path d="M574.449 143.6V176.2H543.214C542.02 157.883 556.169 143.466 574.449 143.6ZM566.978 152.436C559.057 154.519 552.927 160.625 551.355 168.742H566.978V152.436Z" fill="white"/>
<path d="M267.537 244.812V276.741H236.302C235.132 259.107 249.695 243.642 267.537 244.812ZM260.066 253.647C252.608 255.232 245.832 261.544 245.125 269.271H260.066V253.647Z" fill="white"/>
<path d="M293.336 457.412L293.848 458.253C255.752 474.4 302.488 484.235 318.441 486.977C347.226 491.925 403.773 493.85 430.486 482.187C450.119 473.62 435.52 465.382 423.71 460.129C430.425 461.567 435.58 462.067 440.711 467.917C451.375 480.104 426.404 487.05 418.287 489C384.043 497.214 331.98 495.691 298.247 485.429C283.209 480.859 262.93 470.171 287.73 458.923C288.973 458.362 293.117 457.594 293.336 457.399V457.412Z" fill="white"/>
<path d="M142.598 286.247C143.268 286.284 143.963 286.247 144.633 286.247C145.035 289.27 152.53 292.499 153.407 293.791C153.846 294.437 152.371 296.326 152.103 297.118C151.299 296.85 149.581 297.362 148.703 297.118C145.583 296.228 142.951 290.476 139.88 290.33C138.223 290.245 138.113 290.756 137.162 291.012C136.699 291.134 136.102 290.805 135.347 291.22C134.944 291.439 132.946 294.022 132.41 294.412C128.144 297.508 124.135 298.251 119.418 295.521C116.177 293.645 115.701 290.635 111.034 290.976C106.366 291.317 105.172 297.362 98.8227 297.167C92.4734 296.972 90.5479 290.586 85.2344 290.976C80.4207 291.329 79.592 297.727 71.6584 297.142C64.2975 296.594 63.0179 286.905 55.0356 292.06C53.4757 293.072 51.1114 296.655 49.7587 297.02C47.7113 297.569 44.8352 295.96 45.8102 293.742C46.5414 292.085 54.999 285.821 57.3632 285.553C65.7843 284.602 68.1607 291.719 72.9989 291.719C78.4952 291.719 80.1038 282.847 89.9995 286.211C95.642 288.124 95.971 294.802 103.429 289.526C107.402 286.71 106.878 284.943 113.057 285.565C118.87 286.15 120.759 291.914 125.268 291.719C128.339 291.585 130.862 287.941 133.592 286.406C134.603 285.833 137.309 285.528 137.845 284.882C139.246 285.358 141.16 286.162 142.598 286.235V286.247Z" fill="white"/>
<path d="M148.021 319.529C148.265 319.712 148.46 320.005 148.703 320.212L150.056 320.894C150.836 321.552 153.273 323.332 153.395 324.051C149.861 331.18 143.768 320.809 140.879 320.236C133.421 318.762 132.483 327.171 123.209 326.366C117.347 325.854 115.848 320.102 111.01 320.151C106.171 320.2 104.904 326.902 97.4578 326.354C92.2662 325.976 89.6461 320.358 86.575 320.163C82.3096 319.883 79.9332 324.697 76.5453 325.818C66.5155 329.12 64.9313 319.688 58.0701 320.187C52.6835 320.577 51.8305 328.499 46.2489 325.586C45.8833 325.062 46.2489 323.588 46.4926 322.917C46.712 322.296 51.7452 317.202 52.2936 316.836C56.0837 314.313 61.6043 314.569 65.4187 316.946C68.892 319.115 70.1107 323.697 75.6313 320.821C80.6035 318.225 81.4322 313.217 89.6705 315.776C91.6691 316.397 94.338 319.956 95.7517 320.553C101.674 323.076 103.332 316.982 107.244 315.776C108.767 315.301 111.473 315.264 113.069 315.459C117.871 316.044 120.71 321.626 124.598 321.626C129.338 321.626 131.873 314.776 138.174 314.74C142.902 314.716 144.694 317.092 148.021 319.542V319.529Z" fill="white"/>
<path d="M137.845 300.506C140.124 300.469 142.61 300.725 144.633 301.858C147.253 303.333 149.337 307.672 152.786 307.976C153.48 308.878 153.468 309.804 152.786 310.694C152.298 310.804 152.006 311.364 150.751 311.376C144.73 311.413 143.17 302.529 135.42 305.892C133.433 306.758 131.922 309.268 129.741 310.401C119.76 315.593 117.359 305.466 111.692 305.222C106.976 305.027 106.086 309.634 103.039 310.864C93.8017 314.618 91.3888 304.479 85.2832 305.283C82.5533 305.636 80.3719 309.256 77.642 310.584C67.8926 315.325 64.9434 304.734 58.0701 305.222C54.1703 305.502 52.6104 309.548 49.5759 311.376C49.3931 311.23 45.8589 311.608 45.5298 309.597C49.7343 303.638 54.999 298.385 63.1885 300.81C67.4539 302.078 69.7816 309.097 74.9366 306.526C80.445 303.784 81.0056 298.544 89.6582 300.823C93.0096 301.7 95.5201 306.611 98.7861 306.672C102.223 306.733 104.672 301.785 107.938 300.823C116.42 298.312 117.249 303.223 122.294 306.246C127.425 309.305 130.752 300.64 137.845 300.518V300.506Z" fill="white"/>
<path d="M171.797 375.223C181.327 372.701 185.58 372.225 195.403 375.053C204.738 377.746 217.096 382.194 217.217 393.833C217.217 394.552 216.474 400.109 216.303 400.389C215.219 402.071 209.052 401.718 207.115 401.718C207.273 399.561 208.26 398.281 208.504 395.99C208.577 395.259 208.784 388.775 207.115 390.859C205.981 394.016 206.871 401.9 202.362 401.73C202.215 401.596 200.753 402.022 200.436 401.657C200.095 401.254 200.436 399.366 200.022 398.305C199.449 396.867 198.145 395.953 197.609 394.93C197.377 394.491 197.195 393.991 196.926 393.577C196.293 392.553 196.195 391.408 195.257 390.152C189.797 382.865 180.291 377.904 171.797 375.236V375.223Z" fill="white"/>
<path d="M537.779 435C536.463 436.145 535.439 436.06 534.44 434.598C532.904 432.367 530.918 419.876 530.296 419.376C526.567 422.07 521.436 420.412 518.767 416.988C511.273 407.397 525.738 409.566 529.626 414.611C529.626 412.795 529.553 409.31 528.614 407.811C527.92 406.702 524.057 409.517 522.497 408.53C519.706 408.274 516.623 405.958 515.075 403.704C509.932 396.221 518.828 395.953 523.849 399.682C525.47 400.889 526.177 402.607 527.579 403.74C528.761 402.497 527.444 399.816 527.579 399.682C528.98 398.269 528.688 401.388 529.602 401.035C530.052 396.989 532.673 394.82 535.378 392.212C536.231 391.383 537.657 391.188 538.413 390.481C539.582 389.384 539.546 387.374 541.155 386.776C540.57 394.101 541.216 400.328 534.598 405.008C533.782 405.581 531.21 406.385 531.088 406.58C530.174 408.03 532.258 412.6 531.661 414.623L535.037 407.677C538.644 404.265 541.301 404.459 541.837 409.87C540.216 411.954 539.266 415.952 537.048 417.646C535.805 418.596 533.806 418.572 533.684 418.706C533.367 419.047 534.805 428.102 537.754 425.494C536.329 428.845 537.962 431.587 537.754 435H537.779Z" fill="white"/>
<path d="M636.236 233.953L635.919 235.318L618.833 252.234C617.627 252.441 603.137 237.232 601.589 234.965C601.589 233.588 616.457 219.317 618.943 217.599C620.149 217.599 632.982 233.344 636.248 233.953H636.236ZM630.13 235.976C630.581 235.538 629.923 233.637 629.484 232.893C629.046 232.15 619.564 222.571 618.833 222.449C616.725 223.668 606.415 233.6 606.525 234.977C608.462 236.683 617.322 246.884 618.918 246.884C620.905 246.884 625.755 239.62 627.4 238.036C624.719 237.171 620.137 244.69 618.918 244.702C615.116 242.058 611.497 238.718 609.327 234.599C609.559 233.685 616.445 226.507 617.529 225.764C618.248 225.276 618.26 224.923 619.248 225.423C619.808 225.715 627.73 233.637 628.132 234.295C628.704 235.209 627.998 235.952 628.083 235.989C628.241 236.074 630.045 236.062 630.118 235.989L630.13 235.976Z" fill="white"/>
<path d="M504.509 397.306C504.728 395.795 507.556 388.629 509.262 391.322C510.139 392.699 511.845 397.148 511.918 398.732C511.992 400.475 510.956 401.51 511.577 403.814C512.126 405.825 514.709 405.191 514.734 408.152C514.77 411.686 511.224 417.402 509.603 411.223C507.994 415.135 512.15 417.573 513.344 420.729C514.356 420.583 514.453 417.816 514.612 416.915C514.782 415.928 514.709 414.928 514.697 413.953L518.426 419.413C519.864 422.569 515.111 424.483 517.403 428.212C515.514 428.87 514.039 424.812 513.637 424.775C511.382 424.617 508.921 429.443 502.193 426.786C498.306 425.25 491.591 420.522 499.451 419.425C503.522 418.852 507.629 419.352 511.273 421.095L507.885 414.636C505.996 414.173 506.642 416.013 505.155 416.976C503.449 418.085 500.085 418.28 498.086 417.975C496.917 417.792 491.652 414.77 491.554 414.258C491.323 412.917 493.029 411.223 493.967 411.223H503.814C503.936 410.224 502.035 409.993 501.377 409.932C495.539 409.31 493.017 411.211 488.885 405.447C484.998 400.024 492.627 400.816 496.332 402.071C500.78 403.594 501.803 405.739 504.497 409.188C504.875 405.471 503.985 400.889 504.497 397.306H504.509ZM504.85 411.236C504.18 411.711 505.216 412.174 505.545 412.564C506.215 412.113 505.228 411.662 504.85 411.236Z" fill="white"/>
<path d="M408.087 411.906L409.44 414.623C402.323 424.093 371.734 420.851 361.107 419.169C350.48 417.487 337.099 415.062 326.46 412.393C324.693 411.955 315.37 409.505 315.053 408.164C314.955 407.08 315.821 406.58 316.771 406.446C318.429 406.215 327.654 409.152 330.542 409.663C348.213 412.795 378.51 419.571 395.34 416.5C398.094 416.001 405.93 413.417 408.075 411.918L408.087 411.906Z" fill="#5548FF"/>
<path d="M475.309 631.989C475.358 635.048 477.625 640.714 479.782 642.798C482.231 645.187 486.521 645.626 489.093 647.076C489.97 647.576 490.482 647.807 490.25 648.965C485.497 649.696 479.575 651.561 477.552 656.301L474.31 664.589C472.628 662.115 472.543 658.885 471.166 656.192C468.314 650.598 464.451 650.842 459.162 649.16C458.65 649.001 457.017 649.184 457.663 647.966C458.479 646.43 467.583 646.113 471.044 639.605C471.483 638.777 473.871 630.429 475.309 631.989Z" fill="white"/>
<path d="M142.585 544.365C144.511 546.254 143.195 552.969 149.581 556.735C150.507 557.283 159.805 559.867 158.209 561.341C153.7 561.67 147.789 563.852 145.413 567.898C144.036 570.226 143.743 573.626 142.659 576.014C141.184 579.268 140.684 573.358 140.002 571.749C138.284 567.679 136.626 564.863 132.397 563.06C130.911 562.426 125.841 561.61 125.609 561.341C125.548 561.268 125.536 559.392 125.609 559.318C125.816 559.099 129.936 558.538 131.398 557.966C139.405 554.821 138.235 551.836 141.172 545.328C141.44 544.719 141.44 543.256 142.585 544.377V544.365Z" fill="white"/>
<path d="M119.979 141.638C120.917 141.394 121.222 141.748 121.904 142.211C127.315 145.842 132.483 154.702 137.784 158.98C138.003 160.186 122.855 174.616 120.515 176.236C119.138 176.236 104.88 161.381 103.173 158.895C103.173 157.688 118.797 141.955 119.967 141.65L119.979 141.638ZM119.979 147.073C119.26 147.268 109.779 156.664 109.279 157.493C106.963 161.356 113.8 162.989 115.092 166.694L121.1 171.398C125.122 167.559 129.387 163.794 132.312 159.004C132.141 157.92 123.257 148.536 121.904 147.634C121.222 147.171 120.917 146.817 119.979 147.061V147.073Z" fill="white"/>
<path d="M423.028 331.071C423.235 331.29 423.857 335.641 424.369 336.872C427.281 344.025 431.071 343.27 437.018 345.951C440.272 347.413 434.033 348.376 432.546 349.083C427.415 351.532 426.526 352.459 424.259 357.772C423.918 358.576 423.113 364.402 421.675 362.988C420.871 362.196 419.494 354.372 416.91 351.776C414.132 348.985 410.013 348.912 406.905 347.523C403.493 346 410.719 344.915 412.157 344.306C419.677 341.076 418.738 338.358 421.602 332.021C421.87 331.424 421.907 329.901 423.016 331.071H423.028Z" fill="white"/>
<path d="M533.026 370.471C533.294 372.055 533.282 374.785 533.855 376.138C534.33 377.259 535.634 376.796 535.805 378.27C536.524 384.071 535.695 388.324 531.332 392.224C529.297 394.052 526.713 393.333 527.591 397.66C525.824 397.94 525.543 396.197 525.556 394.954C524.337 394.808 525.543 396.27 523.898 396.392C518.304 396.807 514.453 393.163 511.699 388.788C510.493 386.874 507.836 383.316 510.968 382.743C516.452 381.719 521.351 385.57 523.533 390.201C524.922 390.25 523.411 388.434 525.214 388.848L526.238 390.213C525.994 387.581 526.652 385.022 527.908 382.706C528.907 380.854 532.795 377.624 532.929 376.869C533.087 376.04 529.492 370.361 533.026 370.507V370.471Z" fill="white"/>
<path d="M645.071 411.906C646.022 409.664 649.312 405.215 650.982 403.265C651.396 402.778 650.958 401.986 652.53 402.412C652.676 403.704 651.823 404.886 651.847 406.142C651.933 409.871 653.371 416.293 653.151 419.779C653.09 420.693 652.457 421.205 651.859 421.777C655.796 419.779 658.136 417.963 662.901 418.877C663.449 418.987 667.946 420.571 668.141 420.766C668.958 421.534 665.448 423.703 665.46 424.519C661.779 427.322 657.953 429.76 653.2 428.236C651.445 427.676 650.324 425.299 647.094 426.871C648.447 422.996 646.729 424.775 645.413 422.777C643.365 419.657 643.658 415.233 645.047 411.93L645.071 411.906Z" fill="white"/>
<path d="M545.932 402.4C543.957 408.652 542.105 417.28 541.837 423.764C541.666 427.932 542.483 431.6 542.544 435.682C541.118 435.317 539.302 436.377 539.132 433.647H538.473C538.473 434.135 538.12 434.707 537.779 435C537.986 431.588 536.353 428.845 537.779 425.494C534.83 428.102 533.392 419.059 533.708 418.706C533.83 418.572 535.829 418.596 537.072 417.646C539.278 415.952 540.24 411.954 541.861 409.871C541.922 409.797 542.788 410.09 543.068 409.749C543.238 409.542 544.116 405.556 544.396 404.569C544.725 403.399 543.933 401.998 545.932 402.412V402.4Z" fill="#5548FF"/>
<path d="M503.071 402.315C500.829 403.729 495.649 399.951 494.43 397.879C493.151 395.697 491.701 386.813 494.065 386.131C499.744 384.473 506.824 399.951 503.071 402.315Z" fill="white"/>
<path d="M518.78 367.765C521.339 365.986 526.153 374.846 526.604 377.234C526.957 379.148 526.469 385.631 524.495 386.07C521.973 386.643 518.231 381.804 517.707 379.343C517.268 377.283 517.293 368.801 518.78 367.765Z" fill="white"/>
<path d="M670.188 399C670.871 399.609 667.544 402.79 667.166 403.789C666.654 405.167 666.959 406.678 666.471 407.848C664.18 413.368 661.109 417.451 654.565 417.341C653.992 411.662 654.991 407.117 660.512 404.606C662.096 403.887 664.4 403.85 665.63 403.107C666.581 402.522 668.446 397.452 670.176 399H670.188Z" fill="white"/>
<path d="M532.344 434.318L507.227 433.306C514.088 429.662 522.497 428.687 529.918 426.238C531.027 426.518 531.978 432.88 532.344 434.318Z" fill="white"/>
<path d="M654.577 430.247L655.93 430.929C656.052 431.051 656.795 430.978 657.234 431.38C657.746 431.843 657.904 432.843 658.465 432.989C659.184 433.184 665.436 431.587 663.413 433.635C663.218 433.83 659.501 434.683 658.513 435.183C657.222 435.841 655.564 437.303 654.589 437.717C650.738 439.351 641.403 438.741 642.366 432.965C642.646 432.794 642.841 432.526 643.048 432.282C645.352 431.295 647.241 430.856 649.836 429.564C651.177 430.04 653.188 430.271 654.589 430.247H654.577Z" fill="white"/>
<path d="M642.354 432.965C640.124 434.378 636.65 430.686 636.285 428.516C635.578 424.385 637.613 419.364 641.671 418.023C643.036 422.191 643.536 425.921 642.366 430.247L645.059 429.223C643.95 429.893 643.67 431.539 643.036 432.282C642.585 432.477 642.451 432.38 642.354 432.965Z" fill="white"/>
<path d="M171.797 375.224C180.291 377.88 189.797 382.84 195.257 390.14C196.195 391.396 196.293 392.541 196.926 393.565L194.891 394.247C191.747 390.689 186.945 386.923 183.289 383.779L170.445 375.906C170.603 375.87 171.188 375.394 171.797 375.224Z" fill="#5548FF"/>
<path d="M139.88 290.317C142.963 290.464 145.583 296.228 148.703 297.105C148.399 299.177 146.242 300.664 144.633 301.858C142.61 300.713 140.124 300.457 137.845 300.506L139.88 299.823C138.747 296.484 140.136 293.718 139.88 290.317Z" fill="#5548FF"/>
<path d="M144.633 286.247C144.718 286.247 145.401 285.577 146.278 285.54C147.911 285.479 153.164 285.662 154.017 287.051C154.589 287.99 155.613 294.644 155.43 296.033C154.821 300.981 152.883 297.374 152.103 297.106C152.371 296.313 153.846 294.425 153.407 293.779C152.53 292.487 145.035 289.257 144.633 286.235V286.247Z" fill="#5548FF"/>
<path d="M161.609 375.223L150.751 377.941C151.969 375.455 152.64 372.104 156.027 371.275C157.904 370.812 162.182 372.53 161.621 375.223H161.609Z" fill="#5548FF"/>
<path d="M582.602 392.882C585.173 393.016 585.161 394.625 586.307 395.637C586.904 396.161 587.952 396.185 588.037 396.282C588.634 396.941 590.804 401.462 591.425 401.035C591.279 399.926 594.581 395.234 595.508 396.282C595.788 399.914 594.837 402.425 590.755 401.718C590.718 401.657 589.792 401.888 589.353 401.267C588.293 399.768 589.573 397.781 586.002 399.683C585.88 399.317 583.126 393.857 582.602 392.895V392.882Z" fill="#5548FF"/>
<path d="M351.735 369.788C351.967 370.007 356.695 372.676 357.158 372.847C358.389 373.31 363.02 373.676 363.227 373.907C363.337 374.029 363.361 376.479 363.276 376.576C362.021 377.88 353.039 374.724 351.686 372.871C350.955 371.872 351.223 370.751 351.053 370.471L351.735 369.788Z" fill="#5548FF"/>
<path d="M488.703 298.592C492.81 297.374 495.284 302.443 491.615 304.259C486.96 306.575 485.022 299.689 488.703 298.592Z" fill="white"/>
<path d="M543.665 298.568C547.577 297.276 550.38 302.383 546.614 304.259C541.764 306.672 540.411 299.653 543.665 298.568Z" fill="white"/>
<path d="M571.536 298.556C574.9 297.605 577.666 301.737 574.741 303.845C570.281 307.05 566.905 299.86 571.536 298.556Z" fill="white"/>
<path d="M516.537 298.592C521.936 296.996 522.497 305.356 517.11 304.613C513.954 304.174 513.807 299.397 516.537 298.592Z" fill="white"/>
<path d="M242.188 113.145C249.013 110.769 247.623 121.188 242.432 118.812C239.995 117.691 239.824 113.974 242.188 113.145Z" fill="white"/>
<path d="M461.538 298.592C467.363 296.862 466.998 306.112 461.538 304.466C458.991 303.699 458.991 299.348 461.538 298.592Z" fill="white"/>
<path d="M300.636 118.3C298.784 120.152 295.444 119.177 295.335 116.106C295.079 109.501 304.792 114.144 300.636 118.3Z" fill="white"/>
<path d="M269.06 143.429C266.659 140.992 269.023 136.495 272.265 137.811C277.055 139.749 272.277 146.695 269.06 143.429Z" fill="white"/>
<path d="M461.538 273.439C466.218 272.147 467.741 280.666 461.404 279.471C458.65 278.96 459.15 274.097 461.538 273.439Z" fill="white"/>
<path d="M191.321 118.3C189.432 120.213 185.91 118.873 186.092 115.485C186.385 109.781 195.293 114.278 191.321 118.3Z" fill="white"/>
<path d="M544.384 273.439C549.259 272.11 549.369 281.031 543.702 279.337C540.643 278.423 541.825 274.146 544.384 273.439Z" fill="white"/>
<path d="M296.151 138.274C299.734 136.032 304.243 141.845 299.417 143.965C295.359 145.745 294.36 139.383 296.151 138.274Z" fill="white"/>
<path d="M218.546 138.274C220.337 139.395 219.338 145.745 215.28 143.965C210.454 141.845 214.975 136.032 218.546 138.274Z" fill="white"/>
<path d="M323.377 118.3C320.647 115.534 324.412 111.049 327.691 113.657C330.969 116.265 326.167 121.115 323.377 118.3Z" fill="white"/>
<path d="M186.19 142.784C183.899 138.835 190.053 135.983 191.832 139.517C193.612 143.052 187.957 145.818 186.19 142.784Z" fill="white"/>
<path d="M492.115 274.182C495.235 277.338 490.092 281.738 487.46 278.484C484.986 275.425 489.544 271.574 492.115 274.182Z" fill="white"/>
<path d="M572.243 273.438C575.387 273.012 577.471 278.301 573.974 279.337C569.16 280.775 567.966 274.011 572.243 273.438Z" fill="white"/>
<path d="M517.244 273.439C520.608 272.976 522.046 278.35 518.999 279.362C514.392 280.897 512.808 274.036 517.244 273.439Z" fill="white"/>
<path d="M324.376 138.286C327.081 137.482 329.592 139.432 328.312 142.223C325.704 147.902 319.355 139.773 324.376 138.286Z" fill="white"/>
<path d="M28.2855 418.121C32.8678 416.659 39.4608 421.533 33.6233 422.13C29.9673 422.508 23.947 419.498 28.2855 418.121Z" fill="white"/>
<path d="M270.047 113.157C276.104 111.341 274.605 121.042 269.743 118.653C267.305 117.459 267.732 113.852 270.047 113.157Z" fill="white"/>
<path d="M215.06 113.157C217.766 112.353 220.276 114.303 218.997 117.094C216.389 122.773 210.039 114.644 215.06 113.157Z" fill="white"/>
<path d="M242.164 138.262C248.099 136.275 247.733 144.477 243.541 144.124C240.445 143.868 240.165 138.932 242.164 138.262Z" fill="white"/>
<path d="M608.158 342.684C609.315 342.489 610.79 344.439 610.4 345.597C608.475 346.048 606.695 351.069 605.355 350.764C602.869 350.216 606.403 342.965 608.158 342.672V342.684Z" fill="white"/>
<path d="M212.538 405.788L210.502 407.823C213.318 408.006 215.06 407.08 215.938 409.87C216.182 410.626 215.901 411.796 216.62 412.588C214.268 411.284 210.064 408.506 207.797 407.835C208.345 404.472 210.99 405.971 212.55 405.8L212.538 405.788Z" fill="#5548FF"/>
<path d="M598.896 351.447C597.153 350.984 588.098 350.325 590.072 347.388C591.291 345.573 599.2 348.266 598.896 351.447Z" fill="white"/>
<path d="M292.446 384.266C292.678 384.559 293.214 386.265 293.007 386.765C291.423 384.729 284.074 386.618 285.195 383.048C286.597 380.72 291.362 382.877 292.446 384.266Z" fill="white"/>
<path d="M35.6707 408.518C38.8028 407.604 39.7899 413.32 36.9747 413.941C35.1223 414.343 33.5137 409.152 35.6707 408.518Z" fill="white"/>
<path d="M600.675 337.907C603.149 337.493 603.868 342.806 601.187 343.257C598.713 343.672 597.994 338.358 600.675 337.907Z" fill="white"/>
<path d="M303.524 380.659C304.621 381.756 303.122 387.142 300.112 385.107C297.723 383.486 301.952 379.087 303.524 380.659Z" fill="white"/>
<path d="M294.372 373.871C297.114 373.115 298.601 377.965 296.383 378.624C293.872 379.367 292.276 374.456 294.372 373.871Z" fill="white"/>
<path d="M511.297 381.341C510.285 382.402 505.715 375.163 505.874 373.871C506.946 372.762 511.845 380.769 511.297 381.341Z" fill="white"/>
<path d="M431.169 394.929C430.608 396.453 425.575 399.122 425.063 396.611C424.49 393.772 429.682 394.491 431.169 394.929Z" fill="white"/>
<path d="M46.8582 416.659C46.712 416.805 42.9219 416.805 42.7757 416.659C42.4466 416.317 42.7391 413.466 43.8603 413.319C46.6754 412.405 47.626 415.867 46.8461 416.659H46.8582Z" fill="white"/>
<path d="M433.204 403.083C432.863 404.338 429.061 404.618 428.22 404.362C427.05 404.009 426.721 402.083 427.098 401.73C427.988 400.889 432.01 402.473 433.204 403.095V403.083Z" fill="white"/>
<path d="M137.162 291C137.942 294.084 134.944 295.57 132.41 294.4C132.946 294.01 134.944 291.427 135.347 291.207C136.102 290.793 136.699 291.122 137.162 291Z" fill="#5548FF"/>
<path d="M42.0932 420.741C42.276 420.888 41.2401 424.41 42.0932 425.482H39.3877C39.473 423.788 40.0092 419.011 42.1053 420.741H42.0932Z" fill="#5548FF"/>
<path d="M482.11 394.247C483.28 393.053 487.228 399.219 487.204 400.34C486.107 399.877 481.147 395.21 482.11 394.247Z" fill="white"/>
<path d="M152.774 307.977C153.298 308.025 155.016 306.124 155.504 308.988C155.991 311.852 154.48 310.304 152.774 310.694C153.456 309.805 153.468 308.878 152.774 307.977Z" fill="#5548FF"/>
<path d="M137.845 284.882C137.991 284.712 137.662 283.688 137.857 283.542C138.101 283.347 143.573 284.919 142.598 286.247C141.16 286.162 139.246 285.37 137.845 284.895V284.882Z" fill="#5548FF"/>
<path d="M642.354 471.682C644.401 470.951 644.182 474.558 643.036 475.753C642.914 474.705 642.537 473.096 642.354 471.682Z" fill="#5548FF"/>
<path d="M144.633 379.306L143.95 376.589C146.9 376.028 145.876 377.576 145.986 379.977C145.535 379.769 145.096 379.465 144.633 379.294V379.306Z" fill="#5548FF"/>
<path d="M164.997 375.224C166.167 373.92 168.287 374.09 167.715 375.906C166.338 375.845 165.241 375.236 164.997 375.224Z" fill="#5548FF"/>
<path d="M654.577 430.247C654.65 430.247 655.345 429.114 655.845 429.625C656.161 429.954 655.845 430.832 655.942 430.929L654.589 430.247H654.577Z" fill="#5548FF"/>
<path d="M173.832 492.059C173.637 492.729 173.052 492.68 172.48 492.741C172.224 490.06 173.455 492.022 173.832 492.059Z" fill="#5548FF"/>
<path d="M141.233 378.624L141.574 377.953C142.829 377.722 142.646 378.148 142.586 379.306C141.976 379.172 141.33 378.636 141.233 378.624Z" fill="#5548FF"/>
<path d="M657.295 495.447C657.368 495.447 658.197 494.313 658.635 494.764C658.83 494.971 658.501 495.971 658.635 496.117L657.283 495.434L657.295 495.447Z" fill="#5548FF"/>
<path d="M150.068 320.882L148.715 320.2C148.837 320.297 149.459 320.358 150.068 320.882Z" fill="#5548FF"/>
<path d="M647.314 447.699C647.728 448.21 648.825 448.381 649.459 449.271C650.092 450.16 652.396 454.036 651.859 454.694C649.178 453.195 646.936 455.925 644.194 456.863C642.39 457.472 640.611 457.558 638.783 458.252C630.411 461.397 622.477 465.686 614.154 468.952C611.777 468.904 602.539 454.706 600.529 452.037C599.712 450.94 594.24 445.164 594.813 444.518L632.824 429.577C634.835 434.269 639.307 438.449 642.744 442.409C644.413 444.323 645.644 445.688 647.302 447.711L647.314 447.699ZM643.706 451.976C644.84 450.843 637.418 443.616 636.273 442.775C633.116 440.46 632.58 442.373 634.505 445.225C635.371 446.504 642.329 453.353 643.706 451.976ZM613.849 464.2L617.212 461.823C614.726 460.714 607.524 448.198 605.013 450.623C603.575 452 614.044 461.506 613.849 464.2Z" fill="white"/>
<path d="M585.99 399.682C589.561 397.781 588.293 399.768 589.341 401.267C589.78 401.888 590.706 401.657 590.743 401.717C590.95 402.083 591.145 405.447 591.425 406.47L588.707 409.188C587.988 408.469 588.793 402.01 585.99 402.4C585.783 401.681 586.209 400.353 585.99 399.682Z" fill="#5548FF"/>
<path d="M643.707 481.871C646.619 481.785 646.887 487.818 643.707 486.623C643.56 485.088 643.877 483.394 643.707 481.871Z" fill="#5548FF"/>
<path d="M592.79 413.259C591.998 413.088 589.5 413.661 589.39 412.918C588.793 408.92 591.096 410.334 592.79 412.576C592.839 412.796 592.741 413.039 592.79 413.259Z" fill="#5548FF"/>
<path d="M638.283 413.941C639.746 413.941 640.672 413.429 640.319 415.294C638.637 415.818 638.405 414.636 638.283 414.624V413.941Z" fill="#5548FF"/>
<path d="M583.955 477.447C584.04 476.63 584.832 471.451 585.99 473.035C585.32 474.498 586.672 476.716 586.672 477.447V513.447C586.672 514.337 584.564 514.958 583.955 513.447C584.808 501.906 582.809 488.781 583.955 477.447Z" fill="#5548FF"/>
<path d="M517.415 501.565C516.61 501.431 514.368 501.833 514.051 501.528C513.137 500.663 511.004 479.348 511.309 476.436L513.893 477.581L517.415 501.565Z" fill="#5548FF"/>
<path d="M637.601 482.541C637.04 482.456 635.773 482.699 635.578 482.541C635.017 482.078 633.799 468.733 635.224 468.27C636.784 467.758 637.601 469.574 637.601 470.659V482.541Z" fill="#5548FF"/>
<path d="M538.425 504.331C540.557 507.731 532.38 505.684 530.54 505.074C527.055 503.929 527.664 502.137 531.015 502.527C531.905 502.625 538.218 504.014 538.425 504.331Z" fill="#5548FF"/>
<path d="M600.931 470.317C600.711 472.816 601.248 475.716 600.931 478.141C600.809 479.129 600.419 480.25 599.578 479.141C599.59 476.167 599.822 473.181 598.896 470.317H600.931Z" fill="#5548FF"/>
<path d="M126.292 488.658C116.494 486.002 108.194 478.665 111.692 467.612C113.203 462.822 121.222 452.805 126.109 451.464C147.326 445.688 167.13 470.464 154.334 489.353C146.376 491.303 137.735 490.718 129.68 489.341C128.51 489.146 127.437 488.975 126.28 488.658H126.292ZM133.677 481.273C133.506 480.993 130.777 480.579 130.362 479.494L121.88 465.577C118.163 471.134 124.586 480.725 129.984 482.589C131.581 483.138 135.42 484.015 133.665 481.273H133.677Z" fill="white"/>
<path d="M144.45 428.017C143.67 428.517 141.318 428.566 139.88 429.224C137.857 430.162 136.236 431.576 134.14 432.258C125.987 412.296 112.935 399.11 90.6332 397.623C89.8898 397.574 88.3786 397.989 88.9514 396.612C90.5357 392.797 104.733 387.179 108.987 386.765C124.415 385.253 147.655 402.315 152.128 416.951C153.712 422.131 151.835 420.376 149.045 422.752C147.777 423.837 144.852 427.749 144.45 428.005V428.017ZM111.351 395.6C112.886 394.089 107.743 390.469 106.61 393.236C105.55 395.832 111.07 395.88 111.351 395.6ZM135.797 405.788C137.028 402.157 125.049 393.467 123.586 394.93C123.355 396.234 123.793 396.77 124.561 397.684C125.11 398.342 131.276 403.863 132.08 404.423C133.263 405.252 134.238 406.02 135.81 405.776L135.797 405.788Z" fill="white"/>
<path d="M129.692 489.341C130.825 494.776 126.657 492.242 122.904 492.729C122.697 490.523 125.512 490.34 126.292 488.659C127.437 488.976 128.522 489.134 129.692 489.341Z" fill="#5548FF"/>
<path d="M156.856 492.729C156.125 493.424 151.616 492.278 152.786 490.706C154.126 488.89 158.562 491.109 156.856 492.729Z" fill="#5548FF"/>
<path d="M198.279 403.07C198.364 403.728 200.107 405.483 197.938 406.458C195.574 407.518 196.268 404.581 196.244 403.07C196.914 403.021 197.609 403.107 198.279 403.07Z" fill="#5548FF"/>
<path d="M196.914 393.565C197.17 393.991 197.365 394.479 197.597 394.918L196.914 396.27C196.841 396.149 195.403 394.82 194.879 394.235L196.914 393.553V393.565Z" fill="#5548FF"/>
<path d="M146.668 494.094C146.071 490.767 149.264 491.462 147.351 494.094C147.119 494.094 146.9 494.094 146.668 494.094Z" fill="#5548FF"/>
<path d="M142.586 492.059C143.329 492.802 141.976 494.155 141.233 493.412C140.489 492.668 141.842 491.316 142.586 492.059Z" fill="#5548FF"/>
<path d="M116.786 493.412C116.372 491.389 118.517 491.279 118.139 493.412C117.688 493.375 117.225 493.448 116.786 493.412Z" fill="#5548FF"/>
<path d="M312.348 411.906C312.543 413.527 311.324 415.318 312.299 416.842C313.639 418.938 324.924 423.971 321.183 426.53C318.246 428.541 309.813 421.022 308.752 418.487C308.021 416.72 309.764 414.331 310.824 412.783C311.239 412.174 310.715 411.528 312.335 411.906H312.348Z" fill="#5548FF"/>
<path d="M414.193 420.059C414.583 420.327 414.668 422.533 414.461 423.3C413.023 428.577 404.455 429.369 399.946 428.882C399.178 426.018 402.164 426.956 404.711 425.823C406.478 425.043 409.318 423.215 410.987 422.094C411.67 421.631 412.584 418.95 414.205 420.047L414.193 420.059Z" fill="#5548FF"/>
<path d="M395.291 405.203C395.851 404.216 402.128 401.596 400.629 397.647C409.038 399.89 396.875 411.126 395.206 406.812C395.084 406.495 395.096 405.557 395.291 405.203Z" fill="#5548FF"/>
<path d="M327.959 390.847C328.129 394.698 325.558 396.819 321.853 396.953C320.635 395.71 326.704 389.628 327.959 390.847Z" fill="#5548FF"/>
<path d="M398.581 437.035C398.13 437.864 396.692 438.217 396.546 437.035C397.143 436.913 397.935 437.12 398.581 437.035Z" fill="#5548FF"/>
<path d="M217.961 409.871C228.039 411.613 244.991 431.015 244.504 441.459C244.467 442.3 243.98 445.676 242.408 444.506C242.042 444.238 240.506 437.547 239.812 435.89C235.485 425.689 227.235 418.755 217.961 413.259V409.858V409.871Z" fill="#5548FF"/>
<path d="M198.267 436.353C197.597 437.047 196.146 435.768 195.537 435.353C193.258 433.806 187.494 429.796 185.812 428.102C185.227 427.517 183.838 426.311 184.691 425.494C186.409 423.849 201.265 433.233 198.267 436.353Z" fill="#5548FF"/>
<path d="M236.29 445.188C237.703 450.892 231.525 456.132 226.796 458.082C226.004 453.621 231.89 452.403 233.889 449.892C235.498 447.869 233.913 444.932 236.302 445.176L236.29 445.188Z" fill="#5548FF"/>
<path d="M249.196 422.776C251.048 424.543 251.767 434.244 247.173 434.317C245.954 430.905 247.136 429.662 247.697 427.03C247.855 426.286 247.453 421.107 249.196 422.776Z" fill="#5548FF"/>
<path d="M207.785 468.282C206.749 467.393 212.891 463.602 213.549 462.835C214.207 462.067 214.488 460.239 214.597 460.154C215.194 459.739 217.071 460.336 217.291 461.165C217.9 463.517 210.49 469.123 207.785 468.282Z" fill="#5548FF"/>
<path d="M213.89 422.094C213.647 422.362 208.114 419.035 207.541 418.597C206.725 417.963 205.725 416.683 206.432 415.977C207.48 414.928 215.463 420.376 213.89 422.082V422.094Z" fill="#5548FF"/>
<path d="M169.75 426.164C169.165 426.737 163.181 425.921 163.644 423.8C164.229 421.168 171.809 424.166 169.75 426.164Z" fill="#5548FF"/>
<path d="M242.371 412.637C242.712 413.137 242.81 415.026 241.408 414.611C240.884 414.453 238.995 413.319 238.313 412.917C237.947 412.698 235.693 412.284 236.972 411.236C237.192 411.053 242.2 412.418 242.359 412.649L242.371 412.637Z" fill="#5548FF"/>
<path d="M217.961 409.871V413.271C217.522 413.015 217.047 412.832 216.608 412.589C215.889 411.797 216.169 410.627 215.926 409.871C216.584 409.944 217.339 409.761 217.961 409.871Z" fill="#5548FF"/>
<path d="M634.883 407.836C634.993 412.588 627.291 413.576 623.598 413.856C616.396 414.404 608.365 412.308 601.833 409.31C599.383 408.189 595.24 406.824 596.178 403.753C603.222 404.557 609.644 409.115 616.896 409.859C623.135 410.492 628.887 409.152 634.883 407.836Z" fill="#5548FF"/>
<path d="M650.495 382.682C649.885 383.499 643.451 385.266 642 385.4C634.103 386.18 628.705 384.278 622.294 379.989C619.26 377.954 608.499 370.239 616.189 368.436C620.613 376.723 630.581 382.316 640.002 382.048C640.904 382.024 652.968 379.355 650.495 382.682Z" fill="#5548FF"/>
<path d="M641.671 396.965C641.269 402.193 638.576 400.194 635.968 400.426C628.656 401.047 624.073 401.51 616.859 399.024C615.067 398.415 601.906 392.163 604.331 389.494C611.326 391.054 616.335 396.428 623.854 397.464C630.447 398.378 635.456 395.831 641.671 396.965Z" fill="#5548FF"/>
<path d="M628.095 367.753C632.166 368.716 635.724 371.543 639.99 371.823C643.195 372.03 654.09 368.192 652.493 373.469C651.957 375.248 650.019 373.834 648.874 373.919C642.342 374.456 637.199 375.821 631.252 371.701C630.63 371.275 627.267 368.545 628.083 367.741L628.095 367.753Z" fill="#5548FF"/>
<path d="M642.354 350.094C643.78 352.02 636.236 353.628 635.322 354.262L624.025 360.27C622.136 358.308 629.619 353.458 631.032 352.69C634.298 350.923 638.673 348.815 642.342 350.094H642.354Z" fill="#5548FF"/>
<path d="M406.052 441.118C406.442 442.398 406.637 443.129 406.466 444.518C406.003 448.26 402.969 456.132 401.616 460.105C400.763 462.603 396.899 474.132 395.925 475.339C395.413 475.985 393.975 475.899 393.841 475.765C393.195 475.132 394.547 470.22 394.864 468.977C396.534 462.408 399.678 452.025 402.347 445.895C402.7 445.091 404.675 440.07 406.052 441.13V441.118Z" fill="#5548FF"/>
<path d="M361.923 445.871C364.202 448.052 362.63 451.489 362.606 453.695C362.545 460.763 362.46 468.977 361.728 475.936C361.412 478.922 358.865 478.593 358.499 475.46C357.707 468.624 358.791 452.659 359.888 445.883C360.498 445.383 361.351 445.335 361.923 445.883V445.871Z" fill="#5548FF"/>
<path d="M60.4343 433.635C60.5562 433.757 60.3734 435.987 60.7512 437.048C61.519 439.192 65.5528 446.261 67.1736 447.601C69.0748 449.173 72.5236 448.723 71.963 451.964C64.9556 454.426 56.1568 441.313 56.3883 435.975C56.4736 434.001 59.7519 432.928 60.4222 433.623L60.4343 433.635Z" fill="#5548FF"/>
<path d="M504.509 447.236C502.084 454.365 507.629 463.773 495.686 460.129C494.808 459.093 498.586 455.23 499.366 453.963C499.768 453.305 503.095 445.7 504.509 447.236Z" fill="#5548FF"/>
<path d="M571.731 463.53C572.499 470.257 568.27 469.696 563.237 468.977C562.104 468.819 561.019 469.233 560.203 467.941C559.8 466.552 562.567 466.576 563.444 466.442C564.907 466.223 566.637 466.467 567.868 466.113C569.355 465.675 569.867 463.298 571.731 463.542V463.53Z" fill="#5548FF"/>
<path d="M520.766 460.861C522.253 463.298 518.902 462.981 517.086 462.835C516.208 462.762 504.948 461.433 507.239 459.447C509.042 459.142 520.266 460.032 520.778 460.861H520.766Z" fill="#5548FF"/>
<path d="M539.144 464.882C538.705 465.272 527.883 465.394 528.285 462.177C529.212 461.36 539.631 461.397 539.144 464.882Z" fill="#5548FF"/>
<path d="M585.307 407.153C586.27 408.103 582.456 414.221 581.542 415.257C579.543 417.536 567.807 425.47 565.662 422.033C564.127 419.571 568.575 419.559 570.171 418.828C577.008 415.684 577.861 412.503 582.578 408.152C583.223 407.555 584.674 406.519 585.307 407.153Z" fill="#5548FF"/>
<path d="M563.591 401.73C567.527 401.255 574.632 396.368 572.329 391.968C571.914 391.176 565.589 386.375 568.014 386.094C571.39 385.692 578.763 391.932 577.8 395.161C577.544 396.039 575.582 396.721 574.766 397.611C571.987 400.682 568.148 405.898 563.591 401.73Z" fill="#5548FF"/>
<path d="M164.327 444.506C162.779 442.958 167.13 440.216 167.715 442.824C168.092 444.494 164.765 444.945 164.327 444.506Z" fill="#5548FF"/>
<path d="M369.296 362.403C372.928 368.241 355.647 372.006 358.657 362.123C359.644 358.881 361.704 361.282 363.093 361.489C364.373 361.684 368.785 361.562 369.309 362.403H369.296Z" fill="#5548FF"/>
<path d="M347.653 374.553C346.702 379.087 343.582 382.743 351.053 382.706C350.383 389.555 342.473 383.376 339.561 380.939C339.11 379.074 345.081 373.371 347.653 374.565V374.553Z" fill="#5548FF"/>
<path d="M376.17 389.482C375.56 386.606 377.34 387.764 379.107 386.667C383.994 383.62 385.151 382.267 381.593 376.942C383.238 374.187 386.236 378.818 386.736 380.659C388.028 385.46 380.581 390.469 376.158 389.494L376.17 389.482Z" fill="#5548FF"/>
<path d="M150.738 392.2L145.998 388.812C148.594 388.471 151.055 389.129 150.738 392.2Z" fill="#5548FF"/>
<path d="M181.888 388.215C182.449 389.214 181.669 390.993 180.365 390.786C179.804 390.701 172.078 385.022 173.162 384.059C174.759 383.133 181.498 387.52 181.888 388.215Z" fill="#5548FF"/>
<path d="M566.978 152.436V168.742H551.355C552.915 160.625 559.057 154.52 566.978 152.436Z" fill="#5548FF"/>
<path d="M260.066 253.647V269.271H245.125C245.832 261.545 252.608 255.232 260.066 253.647Z" fill="#5548FF"/>
<path d="M630.13 235.976C630.057 236.049 628.254 236.061 628.095 235.976C628.022 235.94 628.717 235.196 628.144 234.282C627.742 233.636 619.808 225.703 619.26 225.41C618.273 224.898 618.26 225.252 617.541 225.751C616.457 226.495 609.571 233.673 609.34 234.587C611.509 238.706 615.128 242.045 618.931 244.69C620.149 244.69 624.719 237.158 627.413 238.024C625.768 239.608 620.917 246.871 618.931 246.871C617.334 246.871 608.474 236.683 606.537 234.965C606.427 233.6 616.737 223.655 618.845 222.437C619.577 222.571 629.058 232.137 629.497 232.881C629.935 233.624 630.593 235.525 630.143 235.964L630.13 235.976Z" fill="#5548FF"/>
<path d="M504.85 411.236C505.228 411.662 506.215 412.125 505.545 412.564C505.216 412.162 504.18 411.711 504.85 411.236Z" fill="#5548FF"/>
<path d="M119.979 147.073C120.917 146.829 121.222 147.183 121.904 147.646C123.257 148.56 132.141 157.932 132.312 159.016C129.387 163.806 125.122 167.571 121.1 171.41L115.092 166.706C113.812 162.989 106.963 161.368 109.279 157.505C109.779 156.676 119.248 147.28 119.979 147.085V147.073ZM120.527 149.047L110.729 159.467C112.411 160.942 118.967 168.753 120.527 168.753C124.61 166.462 127.108 162.124 130.362 158.882L120.527 149.047Z" fill="#5548FF"/>
<path d="M613.849 464.2C614.044 461.506 603.575 452.001 605.013 450.624C607.536 448.198 614.726 460.714 617.212 461.823L613.849 464.2Z" fill="#5548FF"/>
<path d="M643.707 451.977C642.329 453.354 635.371 446.505 634.506 445.225C632.58 442.373 633.116 440.46 636.273 442.775C637.418 443.616 644.84 450.843 643.707 451.977Z" fill="#5548FF"/>
<path d="M133.677 481.274C135.432 484.016 131.593 483.138 129.997 482.59C124.61 480.725 118.175 471.134 121.892 465.577L130.374 479.495C130.789 480.579 133.506 481.006 133.689 481.274H133.677Z" fill="#5548FF"/>
<path d="M135.797 405.788C134.225 406.032 133.25 405.264 132.068 404.435C131.264 403.875 125.097 398.342 124.549 397.696C123.781 396.782 123.343 396.234 123.574 394.942C125.037 393.479 137.028 402.181 135.785 405.8L135.797 405.788Z" fill="#5548FF"/>
<path d="M111.351 395.6C111.07 395.868 105.55 395.819 106.61 393.236C107.743 390.469 112.886 394.089 111.351 395.6Z" fill="#5548FF"/>
<path d="M120.527 149.047L130.362 158.882C127.108 162.124 124.61 166.475 120.527 168.754C118.968 168.754 112.423 160.942 110.729 159.467L120.527 149.047Z" fill="white"/>
</g>
<defs>
<clipPath id="clip0_917_9678">
<rect width="696" height="1044" fill="white" transform="translate(0 -141)"/>
</clipPath>
</defs>
</svg>
