<svg width="91" height="117" viewBox="0 0 91 117" fill="none" xmlns="http://www.w3.org/2000/svg">
<path d="M46.1494 95.0583L52.464 94.885C60.7496 95.1379 69.0277 95.0787 77.3105 95.0044C77.8413 94.9995 78.3642 95.0813 78.8786 95.1695C79.0109 95.2011 79.009 95.2382 78.8786 95.2807H11.4501C11.3178 95.2491 11.3197 95.212 11.4501 95.1695C11.972 95.081 12.5025 95.0004 13.0406 95.0044C22.4551 95.0738 31.8566 95.0128 41.2724 94.8191C42.6384 94.7357 43.9611 94.8154 45.24 95.058C45.5428 95.058 45.8465 95.058 46.149 95.058L46.1494 95.0583Z" fill="white"/>
<path d="M4.93795 66.1734C5.49786 66.0468 5.59654 66.7042 5.58091 67.068C5.75996 67.8293 5.92651 68.5992 5.92472 69.3772C5.91668 73.6131 5.87784 77.8688 5.79434 82.1043C5.77916 82.8883 5.57243 83.6597 5.36614 84.4213L4.9375 84.2424V66.1734H4.93795Z" fill="white"/>
<path d="M77.6508 0V0.324393C77.6155 1.24271 77.228 1.17296 77.1572 0.324393V0H77.6508Z" fill="white"/>
<path d="M11.353 95.1114V95.2807H10.8594V95.1114C10.9608 94.6575 11.1483 94.701 11.353 95.1114Z" fill="white"/>
<path d="M79.4741 95.1124V95.2807H78.9805V95.1124C79.086 94.657 79.2698 94.7009 79.4741 95.1124Z" fill="white"/>
<path d="M5.58054 57.3946C11.7814 72.9011 28.6568 81.3864 44.8538 81.6155C43.5793 75.2193 37.0199 70.6297 30.9405 69.2536C24.1584 67.7186 19.1977 66.2589 13.6062 61.8737C11.0264 59.8505 6.17997 54.6224 6.17997 51.1897V29.1362H8.35344C9.15529 29.1362 11.0179 29.7063 11.8417 29.9928C20.4446 32.9851 26.0057 42.8268 26.6374 51.5672C34.6459 54.9334 41.6492 61.0327 45.4036 68.9133L62.0041 68.8952C72.1539 65.9607 80.05 60.7127 84.5356 50.994C84.6334 50.782 84.4466 50.5866 84.8749 50.6675C85.7948 71.2568 63.1724 82.4259 45.1524 81.7651L45.153 94.923C34.2454 94.7389 22.6159 95.6832 11.7261 95.0726C11.5777 95.0641 11.4234 95.0872 11.2763 95.0726C7.73807 94.7214 6.24963 92.1359 5.43029 89.0919C5.43122 83.3628 5.42904 77.6265 5.43029 71.8977C5.43122 67.0599 5.4078 62.1915 5.58022 57.3949L5.58054 57.3946Z" fill="white"/>
<path d="M25.6683 13.3406C30.5702 13.8074 34.8382 17.3331 37.6161 21.1768C40.7177 25.4686 42.4777 30.9539 42.5847 36.2453C45.6929 35.5053 48.3404 32.847 49.8009 30.0995C49.9039 29.9058 49.8904 29.553 49.9185 29.553H85.3956C85.3432 33.6563 84.1507 37.5624 81.7752 40.9036C78.1813 45.9588 72.0896 49.1251 65.7859 48.7398V61.9773C64.9084 62.1615 64.1151 62.5854 63.2413 62.7956C54.0128 65.0182 45.8626 57.661 45.5569 48.6112C36.9535 46.3488 29.2241 40.0754 26.4597 31.5178C26.2847 30.9759 25.668 29.0033 25.668 28.5859V13.3403L25.6683 13.3406Z" fill="white"/>
<path d="M78.9543 95.0575C78.8084 95.072 78.6556 95.0491 78.5082 95.0575C68.1282 95.6382 56.8233 94.9021 46.3984 94.9095H46.8445C47.6332 94.8203 48.426 94.7708 49.223 94.7616C52.0783 94.4555 54.9568 93.9817 57.7285 93.2401C71.0944 89.6645 83.0487 79.4939 84.605 65.1751C84.662 65.1334 84.9006 65.3694 84.9006 65.3966V88.6221C84.9006 91.6478 81.9567 94.7597 78.9543 95.0572V95.0575Z" fill="white"/>
<path d="M65.2293 1.01968C65.4322 1.00125 65.8303 0.98663 66.0133 1.01968C66.8957 1.17889 67.2493 3.53976 67.3754 4.33995C68.7869 13.288 64.1061 22.1276 55.5621 25.8073C51.5509 27.5348 51.0303 26.7438 50.507 22.6901C49.3639 13.8311 54.4591 5.18591 62.9276 1.75409C63.6149 1.47539 64.4937 1.08578 65.2293 1.01968Z" fill="white"/>
<path d="M90.2869 107.776C90.326 107.849 90.3231 107.946 90.2869 108.017C90.3003 108.095 90.3158 108.175 90.3333 108.259V116.994C87.9632 116.969 85.5843 117.047 83.2186 116.948C81.8548 116.812 80.8339 116.355 80.566 115.104C80.4092 114.372 80.4123 112.062 80.6827 111.377C81.4288 109.487 84.3774 109.975 86.1584 109.909V111.117H84.6507C84.5115 111.117 84.132 111.184 83.9777 111.217C83.3286 111.357 83.0535 111.74 83.0022 112.303C82.9511 112.864 82.929 114.608 83.1535 115.073C83.3293 115.437 83.6897 115.574 84.1145 115.648C84.1872 115.66 84.4664 115.706 84.5115 115.706H87.8283V107.796C87.8283 107.695 87.7125 107.284 87.6648 107.173C87.5503 106.907 87.3427 106.698 87.0392 106.589C86.9299 106.55 86.5098 106.448 86.4135 106.448H82.2849C82.28 106.448 82.2153 106.391 82.2153 106.387V105.159C84.0285 105.185 85.8523 105.105 87.66 105.205C89.4555 105.402 90.1972 106.238 90.2869 107.776V107.776Z" fill="white"/>
<path d="M42.6962 104.722V106.001H40.3815C40.3099 106.001 39.9574 106.07 39.8655 106.093C39.124 106.28 38.986 106.968 38.9465 107.579C38.81 109.689 39.0085 111.969 39.004 114.086C39.0908 114.5 39.2689 114.899 39.7295 115.068C39.838 115.107 40.2374 115.196 40.3374 115.196H44.0189V101.204H46.3335C46.3382 101.204 46.3997 101.26 46.3997 101.264V116.415C46.3997 116.448 46.2928 116.486 46.2476 116.477C44.0931 116.4 41.8636 116.572 39.7181 116.477C37.5456 116.381 36.6892 115.586 36.566 113.618C36.4424 111.644 36.6637 109.565 36.566 107.579C36.6869 106.271 37.0202 105.22 38.5595 104.869C39.8572 104.573 41.3638 104.791 42.6961 104.722H42.6962Z" fill="white"/>
<path d="M33.074 116.506H30.8231L30.8251 108.184C30.7408 107.564 30.7954 106.776 30.0426 106.515C29.9295 106.476 29.5719 106.39 29.4684 106.39H25.9462V116.506H23.6953V105.155L30.054 105.153C32.3492 105.257 32.9668 106.15 33.0736 108.186L33.074 116.506Z" fill="white"/>
<path d="M12.0207 104.754C12.0356 104.71 12.1215 104.688 12.172 104.692C14.8624 104.965 19.5876 103.58 19.6952 107.366C19.7938 110.408 19.7135 113.46 19.7398 116.505L13.4881 116.506C12.2778 116.423 11.0284 116.201 10.5856 115.027C10.293 114.252 10.3001 111.725 10.5728 110.94C11.2426 109.012 14.0468 109.501 15.7486 109.434V110.639C15.1817 110.651 14.583 110.611 14.0213 110.684C13.5067 110.752 13.0402 110.899 12.8661 111.394C12.6942 111.883 12.7243 113.354 12.7642 113.915C12.8038 114.471 12.938 114.925 13.5655 115.11C13.6733 115.142 14.0117 115.219 14.1039 115.219H17.3711L17.3733 107.966C17.2923 107.315 17.3704 106.424 16.5812 106.12C16.4606 106.074 16.0604 105.979 15.9458 105.979H12.0865C12.0818 105.979 12.0206 105.923 12.0206 105.919C12.0206 105.692 11.9708 104.901 12.0206 104.754L12.0207 104.754Z" fill="white"/>
<path d="M58.8389 105.179C60.2873 105.237 61.8016 105.101 63.2428 105.177C65.2396 105.283 66.027 106.096 66.1429 108.011L66.1413 116.998L60.3184 117C59.0377 116.917 57.7868 116.692 57.4083 115.341C57.2196 114.667 57.2188 112.508 57.3479 111.803C57.7741 109.476 60.5335 109.974 62.3439 109.922V111.129H61.0295C60.8851 111.129 60.4383 111.212 60.2898 111.26C59.7949 111.42 59.5895 111.787 59.5466 112.273C59.4988 112.814 59.4837 114.572 59.6536 115.027C59.7669 115.331 60.0222 115.526 60.3403 115.612C60.4507 115.642 60.8082 115.712 60.9043 115.712H63.8879V107.852C63.8879 107.647 63.726 107.101 63.5956 106.927C63.4055 106.675 62.9315 106.465 62.6152 106.465H58.8389V105.178V105.179Z" fill="white"/>
<path d="M74.3453 115.69C75.9091 115.565 75.8732 114.199 75.7813 113.062C75.7103 112.183 75.296 111.865 74.3447 111.8C71.5598 111.61 68.8643 112.565 68.6307 109.012C68.2988 103.965 72.7737 105.408 76.5541 105.181C76.5993 105.172 76.7063 105.21 76.7063 105.243V106.406C76.7063 106.41 76.6448 106.466 76.6401 106.466H72.0946C71.757 106.466 71.2487 106.711 71.0647 106.974C70.7057 107.487 70.6917 109.104 71.065 109.607C71.3544 109.998 71.9698 110.052 72.4459 110.077C75.4196 110.232 77.8511 109.428 77.9858 113.103C78.0736 115.5 77.2478 116.845 74.4796 116.975C72.7407 117.056 70.9266 116.909 69.1797 116.975C69.1346 116.984 69.0275 116.946 69.0275 116.913V115.75C69.0275 115.746 69.0891 115.69 69.0938 115.69H74.3453Z" fill="white"/>
<path d="M8.34721 101.698V102.975H3.88935C3.80939 102.975 3.406 103.13 3.32013 103.181C2.77282 103.509 2.5812 104.273 2.53702 104.831C2.321 107.557 2.69934 110.505 2.53434 113.254C2.61652 113.984 2.80102 114.832 3.64587 115.127C3.69819 115.146 3.95433 115.227 3.97799 115.227H8.39149V116.505L3.26643 116.506C1.05695 116.38 0.171698 115.029 0.0506079 113.174C0.176782 110.52 -0.110784 107.749 0.0506079 105.108C0.141564 103.621 0.730561 102.176 2.49191 101.797C2.62724 101.768 2.97442 101.698 3.0908 101.698H8.34703H8.34721Z" fill="white"/>
<path d="M49.3653 117L49.3633 108.025C49.4913 106.116 50.3925 105.301 52.6659 105.195C53.4359 105.159 54.8819 105.122 55.6164 105.195C55.6643 105.2 55.7803 105.213 55.7803 105.257V106.421C55.7803 106.426 55.7141 106.481 55.709 106.481H53.3805C53.0203 106.481 52.4807 106.691 52.264 106.943C52.1084 107.125 51.9312 107.65 51.9312 107.867V116.94C51.9312 116.944 51.8649 117 51.8599 117H49.3652L49.3653 117Z" fill="white"/>
</svg>
