<svg width="194" height="45" viewBox="0 0 194 45" fill="none" xmlns="http://www.w3.org/2000/svg">
<g clip-path="url(#clip0_915_9314)">
<path d="M193.929 22.9116C193.989 23.042 193.984 23.2151 193.929 23.3413C193.95 23.4786 193.973 23.6217 194 23.7709V39.3077C190.38 39.263 186.746 39.4031 183.133 39.227C181.05 38.9836 179.49 38.172 179.081 35.9465C178.842 34.6446 178.846 30.536 179.26 29.317C180.399 25.9554 184.903 26.8226 187.623 26.7065V28.8544H185.32C185.108 28.8544 184.528 28.9739 184.292 29.0328C183.301 29.281 182.881 29.9628 182.802 30.964C182.724 31.962 182.691 35.0647 183.033 35.8908C183.302 36.5381 183.852 36.7818 184.501 36.9135C184.612 36.936 185.039 37.0166 185.108 37.0166H190.174V22.9476C190.174 22.7682 189.997 22.0362 189.924 21.8396C189.749 21.3669 189.432 20.9947 188.969 20.8005C188.802 20.7305 188.16 20.549 188.013 20.549H181.707C181.699 20.549 181.6 20.4492 181.6 20.4417V18.2579C184.37 18.3037 187.156 18.1609 189.917 18.3387C192.659 18.6895 193.792 20.1755 193.929 22.9118V22.9116Z" fill="#5548FF"/>
<path d="M19.3433 44.8201L22.2961 44.7085C26.1705 44.8713 30.0414 44.8332 33.9146 44.7854C34.1628 44.7822 34.4073 44.8349 34.6478 44.8917C34.7097 44.912 34.7088 44.9359 34.6478 44.9633H3.11757C3.05571 44.943 3.05659 44.919 3.11757 44.8917C3.36165 44.8347 3.6097 44.7828 3.86131 44.7854C8.26362 44.8301 12.6599 44.7908 17.0628 44.6661C17.7015 44.6124 18.3201 44.6637 18.9181 44.8199C19.0597 44.8199 19.2017 44.8199 19.3432 44.8199L19.3433 44.8201Z" fill="#5E51FF"/>
<path d="M7.88437e-07 26.4913C0.185159 26.4406 0.217791 26.7037 0.212623 26.8493C0.271832 27.1539 0.326907 27.462 0.326317 27.7734C0.323659 29.4687 0.310813 31.1718 0.283202 32.8669C0.278181 33.1807 0.209818 33.4894 0.141601 33.7942L-0.000146866 33.7226V26.4913H7.88437e-07Z" fill="#6559FF"/>
<path d="M194 23.3408C193.98 23.4033 193.956 23.4024 193.929 23.3408C193.927 23.1982 193.936 23.0534 193.929 22.9111H194V23.3408Z" fill="#D0C9FF"/>
<path d="M194 23.7705C193.881 23.6927 193.931 23.4761 193.929 23.3408H194V23.7705Z" fill="#A297FF"/>
<path d="M28.5544 0V0.0716065C28.529 0.274317 28.251 0.25892 28.2002 0.0716065V0H28.5544Z" fill="#C0B3FF"/>
<path d="M3.11757 44.892V44.9636H2.90495V44.892C2.94865 44.7001 3.02942 44.7185 3.11757 44.892Z" fill="#ADADFF"/>
<path d="M34.8604 44.8918V44.9634H34.6478V44.8918C34.6933 44.6981 34.7724 44.7168 34.8604 44.8918Z" fill="#ADADFF"/>
<path d="M0.212623 26.8494C3.14371 34.2749 11.1206 38.3383 18.7768 38.448C18.1743 35.3851 15.0737 33.1872 12.2001 32.5283C8.99421 31.7932 6.64932 31.0942 4.0063 28.9943C2.78683 28.0254 0.495971 25.5219 0.495971 23.8781V13.3174H1.52335C1.90238 13.3174 2.78284 13.5904 3.1722 13.7276C7.23875 15.1605 9.86744 19.8733 10.166 24.0588C13.9516 25.6708 17.262 28.5916 19.0366 32.3653L26.8836 32.3566C31.6813 30.9514 35.4137 28.4383 37.534 23.7843C37.5802 23.6828 37.4919 23.5893 37.6944 23.628C38.1292 33.4876 27.4358 38.8361 18.9179 38.5196L18.9182 44.8205C13.7623 44.7323 8.2651 45.1845 3.11757 44.8921C3.04744 44.8881 2.9745 44.8992 2.90495 44.8921C1.23247 44.7239 0.528898 43.4859 0.141601 42.0282C0.142044 39.2847 0.14101 36.5378 0.141601 33.7945C0.142044 31.4778 0.13097 29.1465 0.212475 26.8495L0.212623 26.8494Z" fill="#5548FF"/>
<path d="M9.49446 5.79947C11.8147 6.02415 13.8349 7.72133 15.1498 9.57159C16.6179 11.6376 17.451 14.278 17.5016 16.8252C18.9728 16.469 20.226 15.1893 20.9173 13.8668C20.966 13.7735 20.9597 13.6037 20.973 13.6037H37.7655C37.7407 15.5789 37.1762 17.4592 36.0519 19.0676C34.3507 21.501 31.4673 23.0252 28.4835 22.8397V29.212C28.0682 29.3006 27.6927 29.5047 27.2791 29.6059C22.9109 30.6758 19.0532 27.1342 18.9085 22.7778C14.8362 21.6888 11.1776 18.6689 9.86906 14.5495C9.78623 14.2887 9.49432 13.3391 9.49432 13.1382V5.79932L9.49446 5.79947Z" fill="#5548FF"/>
<path d="M116.91 18.0428V20.3339H113.19C113.075 20.3339 112.509 20.4568 112.361 20.4984C111.169 20.8337 110.948 22.0653 110.884 23.1586C110.665 26.9382 110.984 31.0215 110.977 34.8141C111.116 35.5556 111.402 36.27 112.142 36.5716C112.317 36.6426 112.959 36.8013 113.119 36.8013H119.036V11.7422H122.756C122.763 11.7422 122.862 11.842 122.862 11.8495V38.9851C122.862 39.0445 122.69 39.1117 122.618 39.0962C119.155 38.9588 115.572 39.2659 112.124 39.0959C108.633 38.9238 107.256 37.4999 107.058 33.9762C106.86 30.4393 107.215 26.7157 107.058 23.159C107.253 20.8175 107.788 18.9339 110.262 18.3059C112.348 17.7764 114.769 18.1667 116.91 18.0428H116.91Z" fill="#5548FF"/>
<path d="M101.889 39.0928H98.0628L98.0662 23.66C97.9228 22.5111 98.0157 21.0493 96.736 20.5651C96.5437 20.4923 95.9359 20.3341 95.76 20.3341H89.7728V39.0928H85.9466V18.043L96.7553 18.0396C100.657 18.2324 101.707 19.8876 101.888 23.6642L101.889 39.0928Z" fill="#5548FF"/>
<path d="M68.0205 18.15C68.0446 18.0712 68.1834 18.0319 68.2649 18.0389C72.6115 18.5258 80.2455 16.0569 80.4193 22.8046C80.5786 28.2271 80.4488 33.6653 80.4914 39.0927L70.3912 39.0953C68.4358 38.947 66.4173 38.5504 65.7019 36.4591C65.2291 35.0772 65.2406 30.5741 65.6812 29.1748C66.7634 25.7377 71.2938 26.6102 74.0432 26.491V28.6389C73.1273 28.6601 72.1601 28.5876 71.2526 28.7189C70.4212 28.8391 69.6676 29.1008 69.3863 29.9833C69.1086 30.8545 69.1571 33.4774 69.2217 34.4775C69.2856 35.4681 69.5025 36.2773 70.5161 36.6061C70.6904 36.6626 71.2371 36.801 71.386 36.801H76.6646L76.668 23.8742C76.5372 22.7132 76.6634 21.1261 75.3884 20.5849C75.1935 20.5021 74.547 20.3335 74.3618 20.3335H68.1267C68.1191 20.3335 68.0203 20.2336 68.0203 20.2261C68.0203 19.8207 67.9399 18.4123 68.0203 18.1498L68.0205 18.15Z" fill="#5548FF"/>
<path d="M142.772 18.2573C145.232 18.3621 147.803 18.1183 150.25 18.2544C153.641 18.4429 154.978 19.8916 155.175 23.3019L155.172 39.3074L145.284 39.31C143.11 39.163 140.986 38.7625 140.343 36.3559C140.022 35.1559 140.021 31.3098 140.24 30.0545C140.964 25.9101 145.65 26.7978 148.724 26.7057V28.8536H146.492C146.247 28.8536 145.488 29.0025 145.236 29.088C144.395 29.3733 144.047 30.0267 143.974 30.8915C143.893 31.8557 143.867 34.9867 144.155 35.7966C144.348 36.3372 144.781 36.6843 145.321 36.838C145.509 36.8913 146.116 37.0157 146.279 37.0157H151.345V23.0184C151.345 22.6527 151.071 21.6806 150.849 21.3719C150.526 20.9216 149.721 20.5482 149.184 20.5482H142.772V18.2571V18.2573Z" fill="#5548FF"/>
<path d="M169.095 37.0162C171.605 36.7931 171.548 34.3545 171.4 32.3238C171.286 30.7555 170.621 30.1882 169.094 30.0722C164.622 29.7326 160.295 31.4381 159.92 25.0946C159.387 16.0829 166.571 18.6596 172.641 18.254C172.713 18.2384 172.885 18.3057 172.885 18.3651V20.4413C172.885 20.449 172.787 20.5487 172.779 20.5487H165.481C164.939 20.5487 164.123 20.9853 163.827 21.4552C163.251 22.3716 163.229 25.2586 163.828 26.157C164.293 26.8536 165.281 26.9511 166.045 26.9954C170.819 27.2721 174.723 25.8364 174.939 32.3987C175.08 36.6773 173.755 39.0791 169.31 39.3102C166.518 39.4554 163.606 39.1925 160.801 39.3109C160.729 39.3265 160.557 39.2592 160.557 39.1999V37.1236C160.557 37.116 160.656 37.0162 160.663 37.0162H169.095Z" fill="#5548FF"/>
<path d="M61.2892 12.5298V14.8209H54.1683C54.0406 14.8209 53.3962 15.0987 53.259 15.1909C52.3848 15.779 52.0787 17.1504 52.0081 18.1511C51.6631 23.0416 52.2674 28.329 52.0038 33.2608C52.1351 34.5702 52.4298 36.0918 53.7794 36.6217C53.863 36.6546 54.2721 36.8016 54.3099 36.8016H61.36V39.0927L53.1733 39.0957C49.6439 38.869 48.2298 36.4464 48.0364 33.1172C48.2379 28.3562 47.7786 23.3847 48.0364 18.6485C48.1817 15.9808 49.1225 13.3886 51.9361 12.7086C52.1522 12.6563 52.7068 12.5298 52.8927 12.5298H61.2889H61.2892Z" fill="#5548FF"/>
<path d="M61.2892 12.5298V14.8209H54.1683C54.0406 14.8209 53.3962 15.0987 53.259 15.1909C52.3848 15.779 52.0787 17.1504 52.0081 18.1511C51.663 23.0416 52.2674 28.329 52.0038 33.2608C52.1351 34.5702 52.4298 36.0918 53.7794 36.6217C53.8629 36.6546 54.2721 36.8016 54.3099 36.8016H61.3599V39.0927L53.1732 39.0957C49.6439 38.869 48.2298 36.4464 48.0363 33.1172C48.2379 28.3562 47.7785 23.3847 48.0363 18.6485C48.1816 15.9808 49.1225 13.3886 51.936 12.7086C52.1522 12.6563 52.7068 12.5298 52.8927 12.5298H61.2889H61.2892Z" fill="#5548FF"/>
<path d="M128.53 39.307L128.527 23.3018C128.718 19.8964 130.062 18.4428 133.452 18.2543C134.6 18.1904 136.756 18.1237 137.851 18.2535C137.923 18.262 138.096 18.2861 138.096 18.3646V20.4409C138.096 20.4485 137.997 20.5482 137.989 20.5482H134.517C133.98 20.5482 133.176 20.9216 132.853 21.3719C132.62 21.6953 132.356 22.6318 132.356 23.0184V39.1995C132.356 39.2072 132.257 39.3069 132.25 39.3069H128.53L128.53 39.307Z" fill="#5548FF"/>
<path d="M34.8604 44.8919C34.7909 44.8989 34.7181 44.8878 34.6478 44.8919C29.7004 45.1729 24.312 44.8167 19.3432 44.8203H19.5558C19.9317 44.7771 20.3096 44.7531 20.6895 44.7487C22.0504 44.6005 23.4224 44.3712 24.7435 44.0123C31.1142 42.2817 36.812 37.3593 37.5538 30.4291C37.581 30.409 37.6947 30.5232 37.6947 30.5363V41.7772C37.6947 43.2416 36.2915 44.7478 34.8604 44.8917V44.8919Z" fill="#5548FF"/>
<path d="M28.2002 0.0717579C28.2919 0.0630874 28.4717 0.0562108 28.5544 0.0717579C28.9531 0.146653 29.1128 1.25723 29.1698 1.63365C29.8076 5.84289 27.6927 10.0011 23.8324 11.7321C22.0201 12.5448 21.7849 12.1727 21.5485 10.2657C21.032 6.09837 23.3341 2.03159 27.1603 0.417233C27.4708 0.286129 27.8678 0.102852 28.2002 0.0717579Z" fill="#5548FF"/>
<path d="M20.6896 44.7486C20.2906 44.792 19.9815 44.8202 19.5559 44.8202C19.8759 44.6586 20.3289 44.789 20.6896 44.7486Z" fill="#5E51FF"/>
</g>
<defs>
<clipPath id="clip0_915_9314">
<rect width="194" height="45" fill="white"/>
</clipPath>
</defs>
</svg>
