<svg width="696" height="1039" viewBox="0 0 696 1039" fill="none" xmlns="http://www.w3.org/2000/svg">
<g clip-path="url(#clip0_1391_1258)">
<path d="M0 -4.3175H695.318V1039H0V-4.3175ZM191.32 254.3C195.293 250.278 186.385 245.781 186.092 251.485C185.922 254.873 189.432 256.213 191.32 254.3ZM215.06 249.157C210.027 250.656 216.389 258.785 218.997 253.093C220.276 250.303 217.766 248.353 215.06 249.157ZM242.188 249.145C239.824 249.974 239.995 253.691 242.432 254.812C247.611 257.188 249.013 246.768 242.188 249.145ZM270.047 249.157C267.732 249.852 267.305 253.459 269.743 254.653C274.605 257.042 276.104 247.341 270.047 249.157ZM300.636 254.3C304.78 250.156 295.067 245.513 295.335 252.106C295.457 255.165 298.784 256.152 300.636 254.3ZM323.377 254.3C326.167 257.115 331.115 252.387 327.691 249.657C324.266 246.927 320.647 251.546 323.377 254.3ZM269.06 279.429C272.277 282.695 277.055 275.749 272.265 273.811C269.023 272.495 266.659 277.004 269.06 279.429ZM186.19 278.783C187.957 281.83 193.685 279.173 191.832 275.517C189.98 271.861 183.887 274.835 186.19 278.783ZM218.546 274.274C214.963 272.032 210.454 277.845 215.28 279.966C219.338 281.745 220.337 275.383 218.546 274.274ZM242.164 274.262C240.165 274.932 240.433 279.868 243.541 280.124C247.733 280.477 248.111 272.263 242.164 274.262ZM296.151 274.274C294.36 275.395 295.359 281.745 299.417 279.966C304.243 277.845 299.722 272.032 296.151 274.274ZM324.376 274.286C319.343 275.785 325.704 283.914 328.312 278.223C329.592 275.432 327.081 273.482 324.376 274.286ZM119.979 277.638C118.809 277.942 103.186 293.676 103.186 294.882C104.88 297.368 119.15 312.224 120.527 312.224C122.867 310.615 138.003 296.186 137.796 294.968C132.495 290.678 127.328 281.83 121.917 278.198C121.234 277.735 120.93 277.382 119.991 277.626L119.979 277.638ZM574.449 279.6C556.169 279.466 542.02 293.883 543.214 312.2H574.449V279.6ZM636.236 369.953C632.97 369.344 620.149 353.599 618.931 353.599C616.445 355.317 601.577 369.576 601.577 370.965C603.124 373.232 617.615 388.453 618.821 388.234L635.907 371.318L636.224 369.953H636.236ZM267.537 380.812C249.695 379.642 235.132 395.107 236.302 412.741H267.537V380.812ZM461.538 409.439C459.15 410.097 458.65 414.959 461.404 415.471C467.741 416.653 466.218 408.147 461.538 409.439ZM492.115 410.182C489.544 407.586 484.986 411.425 487.46 414.484C490.08 417.738 495.235 413.339 492.115 410.182ZM517.244 409.439C512.808 410.036 514.392 416.897 518.999 415.362C522.046 414.35 520.608 408.976 517.244 409.439ZM544.384 409.439C541.825 410.133 540.643 414.423 543.702 415.337C549.369 417.031 549.271 408.11 544.384 409.439ZM572.243 409.439C567.966 410.024 569.148 416.775 573.974 415.337C577.471 414.301 575.399 409.012 572.243 409.439ZM137.845 420.882C137.309 421.528 134.603 421.833 133.592 422.406C130.862 423.941 128.339 427.597 125.268 427.719C120.759 427.914 118.87 422.15 113.057 421.565C106.878 420.931 107.402 422.71 103.429 425.525C95.971 430.815 95.642 424.124 89.9995 422.211C80.1038 418.847 78.483 427.719 72.9989 427.719C68.1607 427.719 65.7843 420.602 57.3632 421.553C54.999 421.821 46.5292 428.085 45.8102 429.742C44.8352 431.96 47.7235 433.569 49.7587 433.02C51.1114 432.655 53.4757 429.06 55.0356 428.06C63.0057 422.905 64.2975 432.594 71.6583 433.142C79.592 433.727 80.4085 427.329 85.2344 426.976C90.5479 426.586 92.6196 432.959 98.8227 433.167C105.026 433.374 106.5 427.317 111.034 426.976C115.567 426.634 116.177 429.645 119.418 431.521C124.135 434.251 128.144 433.496 132.41 430.412C134.944 431.582 137.942 430.108 137.162 427.012C138.113 426.756 138.21 426.257 139.88 426.33C140.124 429.73 138.734 432.496 139.88 435.836L137.845 436.518C130.752 436.64 127.425 445.305 122.294 442.246C117.249 439.236 116.42 434.312 107.938 436.823C104.672 437.785 102.223 442.733 98.7862 442.672C95.3495 442.611 93.0096 437.712 89.6582 436.823C80.9934 434.544 80.4328 439.784 74.9366 442.526C69.7816 445.098 67.4539 438.078 63.1885 436.81C54.999 434.385 49.7343 439.638 45.5299 445.597C45.8467 447.596 49.3931 447.218 49.5759 447.377C49.8074 447.571 51.0139 452.056 52.2935 452.812C51.7451 453.177 46.712 458.272 46.4926 458.893C46.2489 459.576 45.8955 461.038 46.2489 461.562C51.8304 464.475 52.6835 456.553 58.0701 456.163C64.9312 455.664 66.5155 465.096 76.5453 461.794C79.9332 460.672 82.3218 455.859 86.575 456.139C89.6339 456.334 92.254 461.952 97.4578 462.33C104.904 462.878 106.049 456.175 111.01 456.127C115.97 456.078 117.347 461.83 123.208 462.342C132.495 463.146 133.433 454.737 140.879 456.212C143.78 456.785 149.873 467.156 153.395 460.026C153.273 459.32 150.836 457.54 150.056 456.87C149.434 456.346 148.825 456.285 148.703 456.188C148.46 455.993 148.265 455.688 148.021 455.505C148.703 452.617 151.311 450.472 150.738 447.352C151.994 447.352 152.286 446.779 152.774 446.67C154.48 446.28 155.979 447.73 155.503 444.963C155.028 442.197 153.298 444.001 152.774 443.952C149.325 443.66 147.241 439.309 144.621 437.834C146.229 436.64 148.386 435.153 148.691 433.081C149.569 433.325 151.287 432.813 152.091 433.081C152.896 433.349 154.809 436.945 155.418 432.009C155.589 430.62 154.565 423.966 154.005 423.027C153.164 421.638 147.899 421.455 146.266 421.516C145.388 421.553 144.718 422.223 144.621 422.223C143.95 422.223 143.256 422.259 142.585 422.223C143.56 420.894 138.089 419.322 137.845 419.517C137.65 419.676 137.967 420.687 137.833 420.858L137.845 420.882ZM461.538 434.592C458.991 435.348 458.979 439.699 461.538 440.467C466.998 442.1 467.364 432.862 461.538 434.592ZM488.703 434.592C485.022 435.689 486.96 442.575 491.615 440.259C495.283 438.444 492.81 433.374 488.703 434.592ZM516.537 434.592C513.82 435.397 513.966 440.174 517.11 440.613C522.484 441.356 521.924 432.996 516.537 434.592ZM543.665 434.568C540.399 435.653 541.764 442.66 546.614 440.259C550.392 438.383 547.577 433.276 543.665 434.568ZM571.536 434.556C566.905 435.86 570.281 443.05 574.741 439.845C577.666 437.737 574.912 433.618 571.536 434.556ZM423.028 467.07C421.907 465.913 421.882 467.436 421.614 468.021C418.75 474.37 419.689 477.076 412.17 480.305C410.744 480.915 403.505 481.999 406.917 483.523C410.037 484.912 414.156 484.985 416.922 487.776C419.494 490.372 420.871 498.196 421.687 498.988C423.125 500.389 423.918 494.576 424.271 493.772C426.55 488.458 427.427 487.532 432.558 485.083C434.045 484.376 440.284 483.413 437.031 481.951C431.083 479.282 427.293 480.025 424.381 472.871C423.881 471.641 423.247 467.29 423.04 467.07H423.028ZM351.053 506.471C348.798 502.778 345.215 505.008 341.986 506.568C330.14 512.308 330.14 523.557 341.974 529.479C353.661 535.341 382.738 535.792 392.171 525.519C395.827 521.534 395.242 514.819 391.793 510.882C388.856 507.531 380.338 504.996 379.728 504.265C378.034 502.242 378.583 498.513 374.098 495.295C372.16 493.906 365.384 492.212 365.275 491.749C364.641 489.08 367.054 483.242 369.406 481.695C372.465 479.696 373.562 481.305 376.487 481.353C381.946 481.439 386.59 481.341 388.393 475.223C376.072 469.349 361.692 478.636 361.875 492.163C355.33 490.81 346.117 500.499 351.723 505.776L351.041 506.458L351.053 506.471ZM600.675 473.907C597.994 474.358 598.701 479.672 601.187 479.257C603.868 478.806 603.161 473.493 600.675 473.907ZM608.158 478.685C606.391 478.977 602.869 486.228 605.355 486.777C606.695 487.069 608.474 482.06 610.4 481.609C610.79 480.452 609.315 478.502 608.158 478.697V478.685ZM588.037 532.282C587.952 532.185 586.904 532.161 586.307 531.636C585.161 530.637 585.173 529.028 582.602 528.882C579.543 523.228 575.558 518.462 568.928 517.098C555.84 514.392 549.174 528.139 545.944 538.388C543.945 537.974 544.738 539.387 544.408 540.545C544.128 541.532 543.251 545.517 543.08 545.724C542.8 546.066 541.935 545.773 541.874 545.846C541.337 540.423 538.681 540.228 535.073 543.653L531.698 550.599C532.295 548.576 530.211 544.006 531.125 542.556C531.247 542.349 533.83 541.557 534.635 540.984C541.252 536.304 540.606 530.089 541.191 522.752C539.582 523.349 539.631 525.36 538.449 526.457C537.694 527.164 536.28 527.359 535.415 528.188C532.709 530.796 530.089 532.977 529.638 537.011C528.712 537.376 529.017 534.244 527.615 535.658C527.469 535.804 528.797 538.486 527.615 539.716C526.201 538.571 525.495 536.852 523.886 535.658C518.865 531.929 509.969 532.197 515.111 539.68C516.659 541.934 519.742 544.25 522.533 544.506C524.093 545.493 527.956 542.678 528.651 543.787C529.577 545.286 529.65 548.771 529.662 550.587C525.775 545.53 511.309 543.372 518.804 552.963C521.473 556.388 526.604 558.033 530.333 555.352C530.942 555.852 532.929 568.343 534.476 570.574C535.476 572.024 536.499 572.121 537.815 570.976C538.157 570.683 538.51 570.098 538.51 569.623H539.168C539.339 572.341 541.142 571.293 542.58 571.658C542.849 571.731 543.287 572.219 543.933 572.341L542.58 575.741C529.467 574.071 516.245 572.974 503.266 570.354L488.946 599.188C488.325 600.87 490.604 599.932 490.982 600.2C491.043 600.249 490.799 601.114 491.116 601.382C492.066 602.162 497.221 600.773 498.184 604.246C498.806 606.464 495.052 606.269 495.028 610.035C495.003 614.312 497.977 614.178 499.122 617.176C494.954 617.798 488.057 622.587 490.299 627.364C482.646 630.277 472.64 637.102 480.769 645.389C493.967 658.843 550.197 665.339 569.379 666.106C595.191 667.142 633.53 665.997 657.526 656.418C670.079 651.409 678.719 643.439 663.242 634.043C662.084 633.336 659.586 633.019 658.708 632.129C658.562 631.983 658.891 630.972 658.708 630.777C658.27 630.326 657.441 631.447 657.368 631.459C656.1 631.557 655.601 631.057 654.65 630.777C655.26 628.607 652.786 629.899 652.566 629.058C652.03 626.974 653.98 620.747 653.882 618.175C653.858 617.481 651.189 611.899 650.848 611.789C647.777 610.79 646.826 616.299 643.78 615.836C643.67 614.8 643.268 613.252 643.097 611.765C644.243 610.571 644.462 606.964 642.415 607.695C642.329 607.037 642.488 606.318 642.415 605.659C647.862 603.259 650.909 608.109 656.198 606.878C656.6 606.781 662.498 604.185 662.791 603.966C663.486 603.441 665.167 600.492 665.362 599.688C666.41 595.386 657.685 594.533 656.807 591.596C656.076 589.146 657.063 585.052 656.637 582.261C656.234 579.641 653.773 576.935 654.638 573.73C655.601 573.316 657.27 571.853 658.562 571.195C659.549 570.695 663.278 569.83 663.461 569.647C665.496 567.6 659.232 569.196 658.513 569.001C657.953 568.843 657.794 567.856 657.283 567.393C656.844 566.991 656.113 567.064 655.979 566.942C655.869 566.844 656.198 565.967 655.881 565.638C655.394 565.126 654.687 566.259 654.614 566.259C653.212 566.284 651.201 566.064 649.861 565.577C650.982 565.016 652.042 564.553 653.261 564.224C658.014 565.748 661.84 563.322 665.521 560.507C665.509 559.691 669.018 557.521 668.202 556.754C667.995 556.559 663.498 554.974 662.962 554.865C658.209 553.951 655.857 555.766 651.92 557.765C652.518 557.192 653.151 556.681 653.212 555.766C653.432 552.281 651.993 545.859 651.908 542.129C651.884 540.874 652.737 539.692 652.591 538.4C651.019 537.974 651.457 538.766 651.043 539.253C649.373 541.203 646.083 545.651 645.132 547.894L643.109 548.576L641.744 545.176C650.726 531.6 671.468 496.307 654.967 482.706C644.157 473.785 628.583 484.351 620.003 491.846C607.134 503.107 598.335 518.792 588.098 532.27L588.037 532.282ZM598.896 487.447C599.2 484.266 591.291 481.573 590.072 483.389C588.098 486.326 597.153 486.984 598.896 487.447ZM518.78 503.765C517.293 504.801 517.281 513.283 517.707 515.343C518.231 517.804 521.973 522.643 524.495 522.07C526.47 521.631 526.957 515.135 526.604 513.234C526.153 510.846 521.339 501.986 518.78 503.765ZM533.026 506.471C529.492 506.312 533.087 512.003 532.928 512.832C532.782 513.588 528.907 516.817 527.908 518.67C526.652 520.973 525.994 523.532 526.238 526.177L525.214 524.812C523.411 524.397 524.922 526.213 523.532 526.165C521.339 521.534 516.44 517.683 510.968 518.706C507.848 519.291 510.505 522.838 511.699 524.751C514.453 529.126 518.292 532.77 523.898 532.355C525.543 532.234 524.337 530.783 525.556 530.917C525.556 532.173 525.836 533.915 527.591 533.623C526.713 529.309 529.285 530.016 531.332 528.188C535.695 524.3 536.511 520.035 535.805 514.234C535.622 512.771 534.318 513.222 533.855 512.101C533.282 510.748 533.306 508.018 533.026 506.434V506.471ZM150.738 513.941C150.519 514.392 150.324 514.88 150.056 515.294C149.69 515.903 148.825 516.415 148.703 517.329C148.569 517.244 146.229 516.086 145.986 515.976C145.876 513.576 146.9 512.016 143.95 512.588L144.633 515.306C144.158 515.135 143.195 515.428 142.598 515.306C142.659 514.148 142.841 513.722 141.586 513.953L141.245 514.624C140.806 514.575 140.331 514.648 139.892 514.624C140.355 511.808 134.42 513.929 133.774 513.271C132.739 512.198 136.748 507.421 128.059 508.579C121.697 509.42 123.367 512.759 122.112 513.831C121.758 514.136 119.979 514.014 119.028 514.465C117.249 515.318 115.116 517.256 113.422 517.707C106.208 519.608 98.713 514.77 93.9846 524.02C90.4382 523.922 81.944 521.936 79.1776 523.532C74.4857 526.238 74.7416 535.683 72.353 537.754C68.4776 541.13 60.6171 539.631 58.0701 543.165C56.2664 546.955 53.6097 560.69 49.2225 561.482C47.5529 561.787 45.6395 561.153 43.9456 561.641C42.7756 561.97 41.886 563.859 40.2774 564.09C38.6687 564.322 34.0865 563.761 35.3173 561.494C26.4941 564.334 36.8285 565.467 37.8522 567.112C38.2543 567.771 38.0106 568.965 38.6809 570.013C40.5455 572.95 44.4209 573.279 47.5529 573.718C47.5041 573.925 47.5772 574.169 47.5529 574.4C45.8467 576.886 48.5156 579.799 44.1649 579.836C45.2252 577.033 41.3742 577.142 40.8258 578.909C40.1555 581.042 42.4466 582.76 42.6782 584.393C42.8244 585.478 41.7398 588.184 42.1297 588.659C25.1414 605.855 50.8433 617.737 64.8703 622.636C108.657 637.943 180.584 637.479 223.213 618.663C232.39 614.617 244.979 607.951 245.832 596.812C244.028 596.471 244.65 597.19 244.175 598.165C237.167 612.606 220.045 617.859 205.384 621.88C199.181 623.586 179.219 628.656 173.869 628.047C173.491 627.998 172.248 626.048 172.516 628.729C172.078 628.778 171.602 628.681 171.164 628.729C169.774 627.047 165.411 629.156 164.375 627.023C163.34 624.89 169.226 627.474 168.446 624.659C172.492 624.232 176.635 623.343 180.511 622.124C182.266 621.576 190.711 618.346 191.589 617.53C192.564 616.616 191.564 615.604 191.784 614.934C192.271 613.447 193.234 612.582 193.514 610.668C193.965 607.609 193.319 604.014 193.575 600.882C193.819 601.029 194.757 600.468 194.964 601.309C195.525 603.649 194.708 608.328 196.293 611.07C195.549 613.423 194.27 614.617 192.893 616.494C194.087 616.555 195.269 616.555 196.463 616.335C205.287 614.763 228.917 600.87 236.022 594.777C246.892 585.454 264.807 565.053 252.986 550.599C249.415 546.236 236.253 542.19 230.489 541.179C223.713 539.997 219.155 541.057 212.574 541.776C211.014 541.947 208.37 540.46 207.821 543.811C207.456 543.701 206.883 543.896 206.469 543.811C206.664 542.105 203.264 540.472 202.569 539.509C202.142 538.912 202.471 537.779 202.386 537.693C206.895 537.852 206.006 529.979 207.139 526.823C208.809 524.739 208.614 531.234 208.528 531.953C208.285 534.257 207.285 535.536 207.139 537.681C209.077 537.681 215.243 538.035 216.328 536.353C216.511 536.072 217.254 530.515 217.242 529.796C217.108 518.146 204.763 513.697 195.427 511.016C185.617 508.189 181.352 508.676 171.822 511.187C171.212 511.345 170.627 511.833 170.469 511.869C169.799 512.003 168.531 511.906 167.751 511.869C168.324 510.054 166.203 509.895 165.034 511.187C163.912 511.126 162.767 511.223 161.633 511.187C162.194 508.494 157.929 506.775 156.04 507.238C152.652 508.067 151.982 511.418 150.763 513.905L150.738 513.941ZM294.372 509.871C292.276 510.444 293.885 515.355 296.383 514.624C298.601 513.966 297.114 509.127 294.372 509.871ZM511.297 517.341C511.845 516.768 506.934 508.762 505.874 509.871C505.715 511.163 510.285 518.389 511.297 517.341ZM303.524 516.659C301.952 515.087 297.736 519.486 300.112 521.107C303.11 523.142 304.609 517.756 303.524 516.659ZM292.447 520.266C291.362 518.877 286.597 516.72 285.195 519.047C284.074 522.606 291.423 520.717 293.007 522.764C293.214 522.265 292.678 520.571 292.447 520.266ZM408.087 547.906C408.806 547.406 412.45 542.836 412.669 541.971C414.851 533.452 407.27 526.701 399.812 524.605C395.34 523.349 397.07 524.946 394.791 527.469C383.47 540.009 352.601 538.412 338.817 530.588C334.028 527.871 332.456 526.055 330.932 520.668C323.462 521.131 314.005 524.934 311.994 532.928C311.519 534.817 311.982 539.034 311.58 539.643C311.385 539.96 306.656 541.423 304.865 542.775C300.989 545.712 300.356 547.76 298.771 551.964C298.272 553.293 296.578 554.536 297.419 556.997C293.86 558.935 294.08 549.905 289.717 551.355C288.242 551.842 285.695 557.265 285.878 559.033C286.073 560.958 288.608 565.223 290.46 566.052C291.143 566.357 297.991 568.331 298.381 568.246C299.844 567.905 298.418 565.382 300.807 565.553C301.477 566.71 301.16 568.672 301.489 569.623C297.077 570.683 299.222 577.41 298.796 580.847C298.589 582.541 297.614 583.626 297.431 584.954C297.138 587.087 298.077 588.549 298.04 590.292C297.943 594.618 295.444 591.718 293.763 591.986C293.068 592.096 293.409 593.339 293.336 593.4C293.117 593.582 288.973 594.362 287.73 594.923C262.942 606.171 283.221 616.859 298.247 621.429C331.968 631.678 384.042 633.214 418.287 625C426.404 623.05 451.374 616.091 440.711 603.917C435.58 598.055 430.438 597.567 423.71 596.129C419.396 595.203 415.314 594.862 412.17 591.376C412.316 591.011 412.048 589.999 412.365 589.219C414.924 582.797 418.653 576.557 419.64 569.647C417.751 569.733 417.617 571.658 415.789 572.926C414.302 573.961 412.511 574.51 410.817 575.083C409.135 573.876 399.69 576.192 399.276 574.741C398.825 573.169 400.738 573.766 401.652 573.73C404.163 573.645 406.271 573.864 408.83 573.401C409.964 573.194 411.207 573.328 410.829 571.695C420.444 569.343 426.002 559.52 419.957 550.685C418.97 549.247 413.9 544.335 412.267 545.286C411.962 545.469 410.098 549.807 409.464 550.636L408.111 547.918L408.087 547.906ZM503.071 538.315C506.824 535.951 499.732 520.473 494.065 522.131C491.713 522.825 493.151 531.697 494.43 533.879C495.649 535.938 500.828 539.729 503.071 538.315ZM504.509 533.306C503.997 536.889 504.887 541.471 504.509 545.188C501.816 541.752 500.792 539.594 496.344 538.071C492.639 536.804 485.01 536.024 488.898 541.447C493.029 547.211 495.552 545.31 501.389 545.932C502.047 546.005 503.948 546.224 503.826 547.223H493.98C493.041 547.223 491.335 548.905 491.567 550.258C491.652 550.77 496.917 553.792 498.099 553.975C500.097 554.28 503.461 554.085 505.167 552.976C506.654 552.013 506.008 550.161 507.897 550.636L511.285 557.095C507.629 555.352 503.522 554.852 499.464 555.425C491.603 556.522 498.318 561.251 502.206 562.786C508.933 565.443 511.394 560.617 513.649 560.775C514.063 560.8 515.526 564.87 517.415 564.212C515.124 560.495 519.864 558.569 518.438 555.413L514.709 549.953C514.709 550.94 514.782 551.94 514.624 552.915C514.466 553.829 514.368 556.595 513.357 556.729C512.15 553.561 508.007 551.135 509.615 547.223C511.248 553.402 514.795 547.687 514.746 544.152C514.709 541.191 512.126 541.825 511.589 539.814C510.968 537.511 512.004 536.475 511.931 534.732C511.87 533.148 510.151 528.712 509.274 527.322C507.568 524.629 504.728 531.795 504.521 533.306H504.509ZM431.169 530.93C429.682 530.491 424.49 529.772 425.063 532.611C425.575 535.122 430.608 532.453 431.169 530.93ZM482.11 530.247C481.159 531.222 486.107 535.878 487.204 536.341C487.216 535.219 483.28 529.053 482.11 530.247ZM670.188 535C668.458 533.452 666.593 538.522 665.643 539.107C664.412 539.85 662.109 539.887 660.524 540.606C655.004 543.117 654.004 547.662 654.577 553.341C661.121 553.451 664.192 549.368 666.484 543.848C666.971 542.678 666.666 541.154 667.178 539.789C667.544 538.802 670.883 535.622 670.201 535H670.188ZM433.204 539.083C432.01 538.473 427.988 536.877 427.098 537.718C426.721 538.071 427.05 539.997 428.22 540.35C429.06 540.606 432.851 540.326 433.204 539.07V539.083ZM35.6707 544.518C33.5137 545.152 35.1345 550.343 36.9747 549.941C39.7899 549.32 38.8028 543.616 35.6707 544.518ZM46.8582 552.659C47.6382 551.867 46.6876 548.406 43.8725 549.32C42.7391 549.466 42.4588 552.318 42.7878 552.659C42.9341 552.805 46.7242 552.805 46.8704 552.659H46.8582ZM28.2855 554.121C23.947 555.511 29.9673 558.509 33.6234 558.131C39.4608 557.534 32.8678 552.647 28.2855 554.121ZM42.0932 556.741C40.0092 555.011 39.473 559.8 39.3755 561.482H42.081C41.2279 560.41 42.2638 556.888 42.081 556.741H42.0932ZM532.344 570.318C531.978 568.867 531.027 562.518 529.918 562.238C522.497 564.687 514.076 565.662 507.227 569.306L532.344 570.318ZM142.585 680.365C141.44 679.244 141.44 680.718 141.172 681.316C138.235 687.823 139.405 690.821 131.398 693.953C129.936 694.526 125.816 695.087 125.609 695.306C125.536 695.379 125.548 697.256 125.609 697.329C125.829 697.597 130.898 698.414 132.397 699.047C136.626 700.851 138.284 703.678 140.002 707.737C140.684 709.358 141.184 715.256 142.659 712.002C143.743 709.614 144.036 706.213 145.413 703.886C147.789 699.84 153.712 697.658 158.209 697.329C159.818 695.854 150.519 693.271 149.581 692.722C143.195 688.957 144.511 682.254 142.585 680.353V680.365ZM475.309 767.989C473.871 766.429 471.483 774.764 471.044 775.605C467.583 782.113 458.479 782.43 457.663 783.966C457.017 785.184 458.65 784.989 459.162 785.16C464.451 786.842 468.314 786.61 471.166 792.192C472.543 794.897 472.628 798.115 474.31 800.588L477.552 792.301C479.587 787.561 485.498 785.696 490.25 784.965C490.482 783.807 489.97 783.576 489.093 783.076C486.521 781.626 482.231 781.187 479.782 778.798C477.637 776.702 475.37 771.047 475.309 767.989Z" fill="#5548FF"/>
<path d="M642.354 568.965C642.451 568.38 642.585 568.477 643.036 568.282C642.829 568.526 642.634 568.794 642.354 568.965Z" fill="#5548FF"/>
<path d="M585.99 538.4C588.793 538.01 587.988 544.469 588.708 545.188L591.425 542.471C592.034 544.762 592.303 546.431 592.778 548.588C591.084 546.334 588.793 544.92 589.378 548.93C589.487 549.685 591.974 549.112 592.778 549.271C593.034 550.416 594.508 556.169 594.801 556.425C597.384 558.667 610.534 559.8 614.166 559.459C615.908 559.289 624.147 556.851 624.695 557.436C625.219 557.985 624.695 560.702 623.635 561.458C621.807 562.762 610.083 563.103 607.402 562.859C602.881 562.445 598.506 560.775 594.837 558.119L595.179 575.79L601.613 573.73C601.504 572.45 598.506 572.584 598.225 571.354C597.519 568.221 605.123 571.085 607.195 570.878C609.401 570.659 624.354 565.894 626.316 564.821C629.204 563.249 637.174 550.538 638.283 550.648C638.405 550.648 638.637 551.842 640.319 551.318C640.672 549.454 639.746 549.953 638.283 549.966C638.734 547.979 640.794 546.553 641.683 545.213L643.048 548.613L645.071 547.93C643.67 551.233 643.39 555.669 645.437 558.777C646.741 560.775 648.459 558.984 647.119 562.871C650.348 561.299 651.469 563.664 653.224 564.236C652.018 564.578 650.958 565.041 649.824 565.589C647.228 566.881 645.34 567.32 643.036 568.307C643.67 567.563 643.95 565.918 645.059 565.248L642.366 566.272C643.548 561.945 643.048 558.216 641.671 554.048C637.613 555.389 635.59 560.41 636.285 564.541C636.65 566.71 640.124 570.403 642.354 568.989C641.391 574.766 650.726 575.375 654.577 573.742C653.712 576.947 656.161 579.653 656.576 582.273C657.002 585.064 656.015 589.159 656.746 591.608C657.624 594.533 666.35 595.386 665.301 599.7C665.106 600.505 663.425 603.454 662.73 603.978C662.438 604.197 656.539 606.793 656.137 606.89C650.848 608.133 647.801 603.283 642.354 605.672C642.342 605.525 641.744 604.904 641.647 604.026C641.403 601.857 642.524 599.079 640.66 597.531C636.443 599.225 615.104 610.985 612.277 610.315C608.84 609.498 598.359 590.365 594.825 587.318C595.264 593.509 595.154 599.798 595.508 605.989C596.178 617.883 598.493 634.518 596.897 646.108C596.8 646.815 594.74 651.068 594.484 651.177C594.216 651.287 592.717 651.421 592.778 650.763L592.108 587.318L579.762 610.607C578.702 612.24 577.812 614.142 575.85 614.861L504.875 604.953C505.399 617.396 507.153 630.46 509.25 642.695L593.643 657.149C610.936 649.642 627.547 640.526 644.986 633.397C645.815 632.117 643.938 624.769 643.719 622.624C646.899 623.818 646.631 617.785 643.719 617.871C643.646 617.201 643.792 616.494 643.719 615.836C646.753 616.299 647.704 610.79 650.787 611.79C651.128 611.899 653.797 617.481 653.822 618.175C653.919 620.747 651.969 626.974 652.505 629.058C652.725 629.911 655.199 628.607 654.589 630.777C653.882 630.57 653.212 630.435 652.554 630.094C651.311 631.666 658.44 633.957 659.793 634.737C679.426 646.047 659.915 653.079 647.935 656.394C609.681 666.96 533.489 665.034 496.185 651.007C488.91 648.277 474.127 641.769 484.133 633.141C486.521 631.081 494.272 628.132 495.015 627.377C497.367 624.964 490.799 627.182 490.263 627.377C488.02 622.599 494.93 617.81 499.086 617.188C497.94 614.203 494.967 614.324 494.991 610.047C495.003 606.281 498.769 606.476 498.147 604.258C497.185 600.785 492.03 602.174 491.079 601.394C490.762 601.126 491.006 600.261 490.945 600.212L575.107 610.388L590.085 581.201C578.008 580.031 565.821 579.238 553.768 577.788C550.039 577.337 546.249 576.228 542.556 575.765L543.909 572.365C549.088 573.291 558.594 574.156 563.944 574.4C570.074 574.681 573.364 573.425 578.202 569.647C581.066 567.405 583.114 564.054 585.673 561.507C589.158 566.978 580.433 572.621 576.509 575.424C577.52 575.375 579.506 576.435 580.238 576.435H590.085C591.096 570.074 590.036 564.675 589.414 558.435C588.659 550.928 588.074 545.81 586.014 538.4H585.99ZM647.314 583.699C645.669 581.676 644.425 580.311 642.756 578.398C639.307 574.437 634.835 570.257 632.836 565.565L594.825 580.506C594.252 581.152 599.712 586.941 600.541 588.025C602.552 590.694 611.789 604.88 614.166 604.941C622.489 601.674 630.423 597.397 638.795 594.24C640.611 593.558 642.402 593.473 644.206 592.851C646.948 591.913 649.191 589.183 651.872 590.682C652.408 590.024 650.08 586.112 649.471 585.259C648.837 584.369 647.752 584.198 647.326 583.687L647.314 583.699Z" fill="#5548FF"/>
<path d="M643.707 622.624C643.915 624.781 645.804 632.117 644.975 633.397C627.536 640.526 610.925 649.63 593.632 657.149L509.238 642.695C507.142 630.46 505.387 617.408 504.863 604.953L575.839 614.861C577.801 614.129 578.691 612.24 579.751 610.607L592.096 587.318L592.767 650.763C592.706 651.421 594.205 651.287 594.473 651.177C594.741 651.068 596.788 646.815 596.886 646.108C598.47 634.518 596.167 617.883 595.497 605.989C595.143 599.798 595.265 593.509 594.814 587.318C598.336 590.353 608.829 609.498 612.266 610.315C615.093 610.985 636.432 599.225 640.649 597.531C642.513 599.079 641.38 601.845 641.636 604.026C641.733 604.904 642.33 605.525 642.343 605.672C642.416 606.33 642.257 607.049 642.343 607.707C642.525 609.121 642.903 610.729 643.025 611.777C643.196 613.264 643.598 614.824 643.707 615.848C643.781 616.518 643.634 617.225 643.707 617.883C643.878 619.406 643.561 621.1 643.707 622.636V622.624ZM637.602 618.541V606.659C637.602 605.574 636.785 603.758 635.225 604.27C633.812 604.733 635.018 618.09 635.579 618.541C635.774 618.699 637.041 618.456 637.602 618.541ZM600.932 606.318H598.897C599.823 609.194 599.591 612.167 599.579 615.153C600.42 616.25 600.81 615.141 600.932 614.154C601.236 611.729 600.712 608.816 600.932 606.33V606.318ZM583.956 613.447C582.81 624.781 584.809 637.906 583.956 649.447C584.565 650.958 586.673 650.337 586.673 649.447V613.447C586.673 612.703 585.321 610.498 585.991 609.035C584.845 607.451 584.041 612.63 583.956 613.447ZM517.416 637.565L513.894 613.581L511.31 612.435C511.005 615.348 513.138 636.651 514.052 637.528C514.369 637.833 516.611 637.431 517.416 637.565ZM538.426 640.331C538.219 640.002 531.918 638.625 531.016 638.527C527.665 638.137 527.055 639.941 530.541 641.075C532.381 641.684 540.558 643.731 538.426 640.331Z" fill="white"/>
<path d="M47.5289 573.718C44.3969 573.267 40.5215 572.95 38.657 570.013C37.9989 568.965 38.2304 567.771 37.8283 567.112C36.8168 565.467 26.4702 564.322 35.2934 561.494C34.0504 563.761 38.657 564.322 40.2534 564.09C41.8499 563.859 42.7639 561.97 43.9217 561.641C45.6156 561.153 47.5289 561.787 49.1985 561.482C53.5858 560.69 56.2425 546.968 58.0462 543.165C60.6054 539.643 68.4537 541.13 72.3291 537.754C74.7177 535.67 74.4618 526.238 79.1537 523.532C81.9201 521.936 90.4143 523.922 93.9606 524.02C98.6891 514.77 106.184 519.608 113.399 517.707C115.08 517.268 117.213 515.33 119.005 514.465C119.955 514.002 121.734 514.136 122.088 513.831C123.343 512.759 121.686 509.42 128.035 508.579C136.712 507.433 132.715 512.211 133.751 513.271C134.396 513.941 140.331 511.808 139.868 514.624C132.861 514.319 124.074 515.989 118.59 520.169C117.822 520.754 117.201 520.876 117.469 522.094C123.172 521.57 128.912 524.373 133.714 527.249C143.561 533.135 152.165 543.251 156.186 554.024L172.687 547.114C174.991 545.871 171.615 540.496 170.542 538.632C166.314 531.259 155.443 521.521 148.704 517.353C148.826 516.439 149.691 515.915 150.056 515.318C163.06 521.412 173.041 532.551 178.244 545.883C183.521 542.544 189.907 539.57 196.22 539.083C196.244 540.594 195.55 543.531 197.914 542.471C200.083 541.496 198.353 539.741 198.255 539.083C198.024 537.352 197.695 533.733 196.903 532.295L197.585 530.942C198.121 531.953 199.425 532.867 199.998 534.318C200.412 535.378 200.071 537.267 200.412 537.669C200.717 538.035 202.192 537.596 202.338 537.742C202.423 537.827 202.082 538.961 202.521 539.558C203.215 540.521 206.615 542.154 206.42 543.86C198.962 542.3 190.054 544.567 183.546 548.479C183.119 548.735 178.939 551.221 179.951 552.001C187.86 551.72 196.354 555.511 202.362 560.483C210.735 567.405 224.274 584.479 222.751 595.849C222.617 596.824 220.947 600.858 220.35 600.894C219.082 600.98 218.985 588.927 217.632 587.318C207.7 561.177 173.918 539.802 150.751 564.565C159.197 564.797 167.435 566.796 174.723 571.146C186.605 578.251 200.839 596.617 196.244 611.083C194.66 608.341 195.477 603.649 194.916 601.321C194.709 600.48 193.77 601.041 193.527 600.894C192.125 600.041 190.797 594.679 189.566 592.291C181.437 576.521 159.416 562.579 141.684 569.745C135.92 572.072 127.401 578.129 126.304 584.588C149.301 576.764 170.969 603.71 158.892 624.659C159.367 625.305 166.96 624.817 168.398 624.659C169.19 627.486 163.255 624.817 164.327 627.023C165.4 629.229 169.726 627.047 171.115 628.729C162.987 629.68 155.492 629.887 147.351 630.082C149.276 627.45 146.071 626.755 146.669 630.082C136.724 630.289 128.169 630.192 118.151 629.4C118.529 627.267 116.372 627.377 116.799 629.4C95.7643 627.608 67.2472 623.66 49.1254 612.533C44.531 609.706 38.3645 604.429 38.6813 598.518C38.8641 595.094 43.7998 589.098 43.4586 588.647C43.3489 588.513 42.2155 588.793 42.1058 588.647C41.7158 588.159 42.8005 585.454 42.6542 584.381C42.4227 582.748 40.1316 581.03 40.8018 578.897C41.3624 577.13 45.2135 577.033 44.141 579.823C48.5039 579.787 45.8228 576.874 47.5289 574.388C44.8722 595.301 77.3013 597.348 91.572 595.337C93.1807 591.462 95.2768 589.39 95.7277 584.905C96.9098 573.303 91.3648 562.713 80.8111 557.729C79.9824 557.339 75.3392 555.364 75.0224 555.364H64.493C62.9574 551.343 70.7448 551.245 73.4503 551.452C91.0724 552.817 106.513 575.083 97.897 591.157C97.0073 592.827 95.1184 593.534 95.0453 595.435H110.327C110.644 595.435 113.191 591.242 114.044 590.328C116.019 588.22 120.101 585.88 121.162 584.54C122.222 583.199 122.137 581.2 123.002 579.58C124.586 576.63 130.448 572.243 130.363 570.037C130.18 565.601 123.562 555.425 120.528 551.952C111.839 541.971 94.0338 532.112 80.7989 537.364C76.4848 539.083 66.5769 546.748 64.1883 550.636C62.8477 552.817 63.5546 554.718 62.799 556.035C62.4578 556.62 54.4632 562.238 52.9399 564.029C51.7821 565.394 47.8458 572.182 47.5168 573.706L47.5289 573.718ZM144.451 564.017C144.853 563.761 147.778 559.849 149.045 558.764C151.836 556.376 153.712 558.143 152.128 552.964C147.656 538.327 124.415 521.265 108.987 522.777C104.734 523.191 90.5483 528.809 88.9519 532.624C88.3791 534.001 89.8903 533.586 90.6336 533.635C112.935 535.122 125.988 548.308 134.14 568.27C136.237 567.576 137.857 566.174 139.88 565.236C141.319 564.565 143.658 564.517 144.451 564.029V564.017ZM126.292 624.659C125.512 626.341 122.697 626.523 122.904 628.729C126.658 628.23 130.826 630.777 129.692 625.341C137.748 626.718 146.388 627.303 154.346 625.353C167.142 606.464 147.339 581.688 126.122 587.465C121.235 588.793 113.216 598.823 111.705 603.612C108.195 614.666 116.494 622.002 126.304 624.659H126.292ZM156.857 628.729C158.575 627.108 154.139 624.89 152.786 626.706C151.616 628.29 156.113 629.424 156.857 628.729ZM142.586 628.059C141.843 627.316 140.49 628.668 141.233 629.412C141.977 630.155 143.329 628.802 142.586 628.059Z" fill="#5548FF"/>
<path d="M298.771 551.976C300.355 547.772 300.989 545.724 304.864 542.787C306.656 541.435 311.372 539.96 311.579 539.655C311.969 539.046 311.518 534.817 311.994 532.94C314.017 524.946 323.461 521.144 330.932 520.68C332.455 526.067 334.027 527.883 338.817 530.601C352.6 538.412 383.469 540.009 394.791 527.481C397.07 524.958 395.351 523.349 399.812 524.617C407.27 526.713 414.85 533.464 412.669 541.983C412.449 542.848 408.805 547.418 408.086 547.918C405.941 549.417 398.118 552.001 395.351 552.5C378.521 555.571 348.225 548.796 330.554 545.663C327.666 545.152 318.44 542.215 316.783 542.446C315.832 542.58 314.967 543.08 315.065 544.164C315.369 545.505 324.704 547.942 326.471 548.393C337.11 551.062 350.223 553.439 361.118 555.169C372.013 556.9 402.334 560.093 409.451 550.624C410.073 549.795 411.937 545.444 412.254 545.274C413.887 544.323 418.957 549.234 419.944 550.672C426.001 559.508 420.444 569.33 410.816 571.682C406.965 572.621 402.371 572.572 398.593 573.035C397.947 573.12 397.155 572.913 396.558 573.035C392.902 573.754 388.368 576.362 385.334 576.46C380.727 576.618 376.352 572.852 371.77 572.974C364.653 573.169 357.682 577.325 348.688 576.423C341.607 575.704 335.039 569.988 329.506 569.111C325.716 568.514 320 570.037 315.43 569.623C310.86 569.209 308.155 567.307 304.218 566.235C300.672 561.251 297.418 559.544 298.783 551.976H298.771ZM327.958 526.847C326.715 525.628 320.634 531.71 321.853 532.953C325.557 532.819 328.129 530.698 327.958 526.847ZM395.29 541.203C395.095 541.544 395.071 542.483 395.205 542.812C396.887 547.126 409.049 535.89 400.628 533.647C402.127 537.596 395.851 540.216 395.29 541.203ZM312.347 547.906C310.726 547.528 311.25 548.186 310.836 548.783C309.775 550.331 308.033 552.707 308.764 554.487C309.812 557.022 318.257 564.541 321.195 562.53C324.936 559.971 313.651 554.925 312.31 552.842C311.323 551.306 312.554 549.527 312.359 547.906H312.347ZM414.192 556.059C412.571 554.962 411.657 557.643 410.975 558.106C409.305 559.227 406.466 561.055 404.698 561.835C402.164 562.957 399.178 562.018 399.933 564.894C404.443 565.382 413.01 564.59 414.448 559.313C414.655 558.545 414.582 556.339 414.18 556.071L414.192 556.059Z" fill="white"/>
<path d="M304.208 566.247C304.317 566.406 304.135 567.502 304.561 568.246C307.108 572.609 315.066 572.84 315.749 573.73C315.858 573.876 314.932 575.911 315.03 577.422C315.359 582.188 321.099 601.297 323.195 606.001C323.914 607.622 324.34 610.059 326.607 608.694C323.902 596.97 321.147 585.088 317.089 573.73C321.415 575.144 325.754 572.865 330.19 573.864C332.639 574.425 335.686 578.117 338.818 577.8C338.989 579.129 337.697 579.604 337.478 580.871C336.673 585.429 339.379 603.051 340.354 608.523C340.695 610.4 341.048 613.569 343.571 612.094C343.071 600.87 342.23 589.512 340.171 578.483C346.983 580.262 352.748 581.322 359.865 579.835C359.804 580.494 359.962 581.237 359.865 581.871C358.756 588.647 357.683 604.611 358.475 611.448C358.841 614.58 361.4 614.909 361.705 611.924C362.436 604.965 362.521 596.751 362.582 589.682C362.607 587.477 364.179 584.052 361.9 581.858C361.547 580.177 362.692 580.42 363.74 580.006C365.714 579.214 370.735 577.362 372.6 577.264C375.732 577.093 379.546 580.201 382.947 579.835C381.07 589.329 377.158 601.199 376.804 610.778C376.756 611.96 377.426 614.873 378.864 613.8C380.083 612.886 384.75 587.647 385.615 584.162L384.312 580.53C389.881 581.42 394.89 577.325 399.764 576.63C404.225 575.984 406.028 576.691 410.793 575.095C412.5 574.522 414.279 573.974 415.766 572.938C417.594 571.67 417.716 569.745 419.617 569.659C418.63 576.569 414.9 582.809 412.341 589.232C412.024 590.024 412.292 591.023 412.146 591.389C412.11 591.486 411.171 591.974 410.745 593.022C408.185 599.322 405.748 605.745 403.823 612.277C384.056 620.832 359.67 620.856 338.672 617.005C333.651 616.091 318.942 612.911 316.078 609.035C311.52 596.739 307.108 584.406 302.831 571.999C302.514 571.085 301.673 570.305 301.466 569.659C301.149 568.709 301.466 566.735 300.783 565.589C301.539 565.638 303.379 566.052 304.183 566.272L304.208 566.247ZM406.053 577.118C404.663 576.058 402.689 581.079 402.348 581.883C399.679 588.013 396.535 598.396 394.865 604.965C394.548 606.208 393.196 611.119 393.842 611.753C393.976 611.887 395.414 611.972 395.926 611.326C396.9 610.12 400.764 598.603 401.617 596.093C402.982 592.12 406.004 584.247 406.467 580.506C406.638 579.129 406.443 578.397 406.053 577.106V577.118Z" fill="white"/>
<path d="M212.539 541.788C219.119 541.069 223.677 540.009 230.453 541.191C236.217 542.202 249.379 546.248 252.95 550.611C264.771 565.053 246.869 585.466 235.986 594.789C228.881 600.882 205.251 614.775 196.428 616.347C195.233 616.554 194.051 616.567 192.857 616.506C194.234 614.617 195.501 613.435 196.257 611.083C200.851 596.605 186.617 578.251 174.735 571.146C167.447 566.795 159.221 564.797 150.764 564.565C173.931 539.802 207.713 561.177 217.645 587.318C218.998 588.915 219.095 600.967 220.362 600.894C220.96 600.858 222.629 596.824 222.763 595.849C224.287 584.491 210.747 567.417 202.375 560.483C196.354 555.51 187.872 551.72 179.963 552.001C178.964 551.208 183.132 548.735 183.558 548.479C190.066 544.567 198.975 542.3 206.433 543.86C206.847 543.945 207.432 543.75 207.786 543.86C210.065 544.53 214.257 547.309 216.609 548.613C217.048 548.856 217.535 549.039 217.962 549.295C227.236 554.791 235.486 561.726 239.813 571.926C240.507 573.584 242.055 580.262 242.408 580.542C243.98 581.712 244.456 578.336 244.505 577.496C244.992 567.039 228.04 547.65 217.962 545.907C217.34 545.797 216.572 545.98 215.926 545.907C215.049 543.116 213.306 544.043 210.491 543.86L212.526 541.825L212.539 541.788ZM242.372 548.637C242.213 548.406 237.205 547.053 236.985 547.223C235.706 548.284 237.948 548.686 238.326 548.905C238.996 549.307 240.897 550.441 241.421 550.599C242.823 551.013 242.713 549.125 242.384 548.625L242.372 548.637ZM213.891 558.094C215.463 556.388 207.481 550.94 206.433 551.988C205.726 552.695 206.725 553.975 207.542 554.609C208.115 555.047 213.648 558.374 213.891 558.106V558.094ZM169.751 562.164C171.81 560.166 164.23 557.168 163.645 559.8C163.17 561.921 169.166 562.737 169.751 562.164ZM249.196 558.777C247.454 557.119 247.856 562.286 247.697 563.03C247.137 565.65 245.955 566.905 247.173 570.317C251.768 570.244 251.049 560.531 249.196 558.777ZM198.268 572.353C201.278 569.233 186.41 559.837 184.692 561.494C183.839 562.311 185.228 563.517 185.813 564.102C187.495 565.808 193.259 569.806 195.538 571.353C196.147 571.768 197.598 573.047 198.268 572.353ZM236.291 581.188C233.902 580.944 235.486 583.881 233.878 585.904C231.891 588.403 225.993 589.634 226.785 594.094C231.513 592.144 237.704 586.892 236.278 581.2L236.291 581.188ZM207.786 604.282C210.479 605.123 217.901 599.517 217.291 597.165C217.072 596.324 215.195 595.739 214.598 596.154C214.476 596.239 214.208 598.055 213.55 598.835C212.892 599.615 206.75 603.393 207.786 604.282Z" fill="white"/>
<path d="M641.672 545.188C640.783 546.529 638.723 547.955 638.272 549.941V550.624C637.163 550.514 629.193 563.225 626.305 564.797C624.342 565.869 609.389 570.634 607.184 570.854C605.112 571.061 597.507 568.197 598.214 571.329C598.494 572.56 601.492 572.426 601.602 573.705L595.167 575.765L594.826 558.094C598.494 560.751 602.869 562.433 607.391 562.835C610.072 563.079 621.795 562.737 623.623 561.433C624.696 560.666 625.208 557.96 624.684 557.412C624.135 556.839 615.897 559.276 614.154 559.435C610.523 559.776 597.373 558.643 594.79 556.4C594.509 556.156 593.022 550.404 592.767 549.246C592.718 549.027 592.815 548.783 592.767 548.564C592.279 546.407 592.023 544.737 591.414 542.446C591.146 541.422 590.939 538.059 590.731 537.693C594.814 538.412 595.764 535.89 595.484 532.258C594.558 531.198 591.255 535.902 591.402 537.011C590.78 537.437 588.611 532.916 588.014 532.258C598.251 518.779 607.049 503.083 619.919 491.834C628.498 484.327 644.073 473.773 654.883 482.694C671.384 496.307 650.629 531.588 641.66 545.164L641.672 545.188ZM642.355 486.094C638.674 484.814 634.311 486.923 631.045 488.69C629.619 489.458 622.137 494.308 624.038 496.27L635.335 490.262C636.249 489.628 643.78 488.02 642.367 486.094H642.355ZM628.096 503.753C627.267 504.557 630.643 507.287 631.265 507.714C637.2 511.833 642.355 510.468 648.887 509.932C650.032 509.834 651.97 511.248 652.506 509.481C654.103 504.204 643.208 508.043 640.003 507.835C635.737 507.555 632.179 504.728 628.108 503.765L628.096 503.753ZM650.495 518.682C652.969 515.355 640.904 518.024 640.003 518.048C630.582 518.316 620.613 512.735 616.19 504.435C608.512 506.239 619.261 513.953 622.295 515.988C628.705 520.278 634.092 522.179 642.001 521.399C643.451 521.253 649.886 519.498 650.495 518.682ZM641.672 532.965C635.457 531.831 630.436 534.378 623.855 533.464C616.336 532.429 611.327 527.042 604.332 525.494C601.919 528.163 615.081 534.415 616.86 535.024C624.074 537.498 628.657 537.035 635.969 536.426C638.577 536.206 641.27 538.193 641.672 532.965ZM634.884 543.835C628.888 545.164 623.136 546.504 616.896 545.859C609.645 545.115 603.223 540.569 596.179 539.753C595.228 542.812 599.372 544.177 601.833 545.31C608.366 548.296 616.397 550.404 623.599 549.856C627.292 549.575 635.006 548.588 634.884 543.835Z" fill="white"/>
<path d="M47.5284 573.718C47.8575 572.207 51.7938 565.406 52.9516 564.041C54.4749 562.25 62.4694 556.644 62.8107 556.047C63.5663 554.731 62.8594 552.829 64.2 550.648C66.6008 546.76 76.4964 539.095 80.8106 537.376C94.0454 532.124 111.838 541.983 120.54 551.964C123.574 555.437 130.191 565.613 130.374 570.049C130.46 572.255 124.61 576.63 123.013 579.592C122.148 581.2 122.27 583.175 121.173 584.552C120.076 585.929 116.043 588.232 114.056 590.341C113.203 591.255 110.656 595.447 110.339 595.447H95.0569C95.1422 593.546 97.019 592.839 97.9086 591.169C106.525 575.083 91.084 552.829 73.4619 551.464C70.7565 551.257 62.9569 551.355 64.5046 555.376H75.034C75.3509 555.376 79.9941 557.351 80.8228 557.741C91.3765 562.725 96.9093 573.328 95.7394 584.917C95.2885 589.402 93.1924 591.474 91.5837 595.349C77.313 597.36 44.8839 595.301 47.5406 574.4C47.565 574.181 47.4919 573.937 47.5406 573.718H47.5284ZM60.4342 569.635C59.764 568.94 56.4857 570.013 56.4004 571.987C56.1689 577.325 64.9677 590.438 71.9751 587.976C72.5357 584.735 69.0869 585.186 67.1857 583.613C65.5649 582.273 61.5189 575.204 60.7633 573.06C60.3855 571.999 60.5683 569.769 60.4464 569.647L60.4342 569.635Z" fill="white"/>
<path d="M301.489 569.647C301.708 570.305 302.549 571.073 302.854 571.987C307.119 584.393 311.543 596.726 316.101 609.023C318.964 612.886 333.674 616.067 338.695 616.993C359.693 620.844 384.079 620.82 403.846 612.265C405.783 605.745 408.208 599.31 410.768 593.01C411.194 591.961 412.12 591.486 412.169 591.376C415.313 594.862 419.396 595.203 423.71 596.129C435.531 601.394 450.119 609.62 430.486 618.188C403.772 629.838 347.226 627.913 318.44 622.977C302.488 620.235 255.752 610.4 293.847 594.253L293.336 593.412C293.409 593.351 293.068 592.12 293.762 591.998C295.444 591.73 297.93 594.63 298.04 590.304C298.076 588.561 297.15 587.111 297.43 584.966C297.613 583.638 298.588 582.553 298.795 580.859C299.222 577.41 297.077 570.695 301.489 569.635V569.647Z" fill="#5548FF"/>
<path d="M542.532 575.753C546.225 576.228 550.027 577.337 553.744 577.776C565.797 579.226 577.984 580.018 590.061 581.188L575.083 610.376L490.921 600.2C490.543 599.932 488.265 600.882 488.886 599.188L503.206 570.354C516.184 572.974 529.407 574.071 542.52 575.741L542.532 575.753ZM504.51 583.236C503.096 581.712 499.769 589.317 499.367 589.963C498.587 591.23 494.809 595.093 495.686 596.129C507.629 599.773 502.084 590.365 504.51 583.236ZM520.767 596.861C520.255 596.032 509.031 595.154 507.227 595.447C504.936 597.433 516.197 598.762 517.074 598.835C518.89 598.981 522.253 599.298 520.755 596.861H520.767ZM539.144 600.882C539.632 597.397 529.212 597.36 528.286 598.177C527.884 601.406 538.706 601.272 539.144 600.882ZM571.732 599.529C569.867 599.286 569.355 601.674 567.869 602.101C566.638 602.454 564.907 602.223 563.445 602.43C562.567 602.564 559.801 602.54 560.203 603.929C561.02 605.233 562.104 604.806 563.238 604.965C568.283 605.696 572.512 606.244 571.732 599.517V599.529Z" fill="white"/>
<path d="M582.603 528.882C583.127 529.845 585.881 535.305 586.003 535.67C586.222 536.341 585.796 537.669 586.003 538.388C588.062 545.785 588.647 550.916 589.403 558.423C590.024 564.663 591.085 570.062 590.073 576.423H580.226C579.495 576.423 577.509 575.363 576.497 575.412C580.421 572.621 589.147 566.966 585.662 561.494C583.102 564.029 581.055 567.393 578.191 569.635C573.365 573.413 570.062 574.656 563.933 574.388C558.583 574.144 549.077 573.291 543.897 572.353C543.239 572.231 542.813 571.743 542.545 571.67C542.484 567.588 541.667 563.919 541.838 559.752C542.106 553.268 543.971 544.64 545.933 538.388C549.162 528.139 555.828 514.392 568.917 517.098C575.547 518.462 579.544 523.227 582.59 528.882H582.603ZM563.591 537.73C568.137 541.91 571.988 536.682 574.767 533.611C575.571 532.721 577.533 532.026 577.801 531.161C578.764 527.932 571.403 521.692 568.015 522.094C565.59 522.374 571.927 527.188 572.329 527.968C574.633 532.368 567.528 537.255 563.591 537.73ZM585.308 543.153C584.674 542.532 583.236 543.555 582.578 544.152C577.862 548.503 577.009 551.684 570.172 554.828C568.576 555.559 564.128 555.571 565.663 558.033C567.808 561.47 579.544 553.536 581.542 551.257C582.456 550.209 586.271 544.091 585.308 543.153Z" fill="white"/>
<path d="M168.398 624.659C166.96 624.805 159.367 625.305 158.892 624.659C170.969 603.71 149.301 576.764 126.305 584.588C127.389 578.129 135.908 572.085 141.684 569.745C159.416 562.579 181.45 576.508 189.566 592.29C190.797 594.679 192.126 600.054 193.527 600.894C193.271 604.026 193.917 607.622 193.466 610.68C193.186 612.594 192.223 613.447 191.736 614.946C191.516 615.616 192.516 616.628 191.541 617.542C190.675 618.358 182.218 621.575 180.463 622.136C176.587 623.355 172.444 624.257 168.398 624.671V624.659ZM164.327 580.506C164.766 580.945 168.093 580.481 167.715 578.824C167.13 576.216 162.78 578.958 164.327 580.506Z" fill="white"/>
<path d="M351.736 505.788C346.13 500.511 355.343 490.823 361.887 492.175C361.704 478.648 376.085 469.362 388.406 475.236C386.59 481.353 381.959 481.463 376.499 481.366C373.586 481.317 372.49 479.708 369.419 481.707C367.067 483.255 364.641 489.08 365.287 491.761C365.397 492.224 372.161 493.918 374.111 495.307C378.607 498.525 378.047 502.242 379.741 504.277C380.35 505.008 388.857 507.543 391.806 510.894C395.255 514.819 395.84 521.546 392.184 525.531C382.751 535.804 353.673 535.353 341.986 529.492C330.165 523.569 330.153 512.32 341.998 506.58C345.228 505.02 348.811 502.79 351.065 506.483C351.236 506.763 350.968 507.884 351.699 508.884C353.052 510.748 362.033 513.905 363.289 512.588C363.386 512.491 363.35 510.041 363.24 509.919C363.033 509.688 358.402 509.322 357.171 508.859C356.708 508.689 351.967 506.008 351.748 505.8L351.736 505.788ZM369.297 498.403C368.773 497.574 364.361 497.684 363.081 497.489C361.704 497.282 359.645 494.869 358.645 498.123C355.635 508.006 372.916 504.228 369.285 498.403H369.297ZM347.653 510.553C345.082 509.371 339.11 515.074 339.561 516.927C342.474 519.364 350.395 525.543 351.053 518.694C343.583 518.731 346.69 515.075 347.653 510.541V510.553ZM376.17 525.482C380.594 526.469 388.04 521.448 386.748 516.647C386.249 514.806 383.251 510.175 381.605 512.93C385.164 518.255 384.006 519.608 379.119 522.655C377.352 523.752 375.573 522.606 376.182 525.47L376.17 525.482Z" fill="white"/>
<path d="M150.739 447.376C151.312 450.496 148.716 452.641 148.021 455.529C144.694 453.08 142.903 450.703 138.174 450.728C131.874 450.752 129.339 457.613 124.598 457.613C120.723 457.613 117.871 452.032 113.069 451.447C111.473 451.252 108.767 451.288 107.244 451.764C103.332 452.97 101.675 459.064 95.7519 456.541C94.3383 455.944 91.6694 452.385 89.6707 451.764C81.4325 449.217 80.6038 454.213 75.6315 456.809C70.1109 459.685 68.8922 455.091 65.419 452.934C61.6045 450.557 56.0839 450.301 52.2938 452.824C51.0142 452.081 49.8077 447.584 49.5762 447.389C52.6107 445.573 54.1706 441.515 58.0704 441.234C64.9437 440.735 67.8929 451.337 77.6424 446.596C80.3722 445.268 82.5415 441.649 85.2835 441.295C91.3891 440.503 93.8021 450.63 103.04 446.877C106.086 445.646 106.976 441.027 111.692 441.234C117.359 441.478 119.76 451.617 129.741 446.414C131.922 445.28 133.434 442.77 135.42 441.905C143.171 438.541 144.743 447.425 150.751 447.389L150.739 447.376Z" fill="#5548FF"/>
<path d="M139.881 514.624C140.332 514.648 140.795 514.575 141.234 514.624C141.331 514.624 141.977 515.172 142.586 515.306C143.196 515.44 144.146 515.135 144.622 515.306C145.097 515.477 145.523 515.781 145.974 515.989C146.218 516.098 148.558 517.256 148.692 517.341C155.443 521.521 166.302 531.247 170.531 538.62C171.603 540.484 174.967 545.859 172.676 547.102L156.175 554.012C152.153 543.238 143.549 533.123 133.702 527.237C128.913 524.373 123.161 521.558 117.457 522.082C117.189 520.863 117.823 520.741 118.578 520.156C124.062 515.976 132.849 514.307 139.856 514.611L139.881 514.624ZM150.739 528.2C151.044 525.129 148.582 524.471 145.999 524.812L150.739 528.2Z" fill="white"/>
<path d="M396.546 573.035C396.693 574.217 398.131 573.864 398.582 573.035C402.359 572.572 406.954 572.621 410.805 571.682C411.195 573.316 409.952 573.181 408.806 573.389C406.247 573.852 404.139 573.632 401.628 573.718C400.714 573.754 398.801 573.157 399.252 574.729C399.666 576.179 409.111 573.876 410.793 575.07C406.04 576.667 404.224 575.96 399.764 576.606C394.889 577.313 389.88 581.395 384.311 580.506L385.615 584.137C384.762 587.623 380.082 612.862 378.863 613.776C377.425 614.848 376.767 611.948 376.804 610.754C377.157 601.187 381.069 589.305 382.946 579.811C379.546 580.177 375.719 577.069 372.599 577.24C370.735 577.349 365.714 579.19 363.74 579.982C362.679 580.408 361.546 580.152 361.899 581.834C361.327 581.286 360.473 581.334 359.864 581.834C359.962 581.2 359.803 580.457 359.864 579.799C352.759 581.274 346.995 580.225 340.17 578.446C342.23 589.475 343.071 600.833 343.57 612.058C341.048 613.532 340.694 610.351 340.353 608.487C339.366 603.015 336.673 585.393 337.477 580.835C337.696 579.567 338.988 579.092 338.818 577.764C335.686 578.081 332.639 574.376 330.189 573.827C325.753 572.828 321.415 575.107 317.088 573.693C321.147 585.051 323.901 596.934 326.606 608.657C324.34 610.022 323.913 607.585 323.194 605.964C321.098 601.26 315.358 582.151 315.029 577.386C314.931 575.875 315.858 573.84 315.748 573.693C315.053 572.804 307.107 572.56 304.56 568.209C304.134 567.478 304.317 566.381 304.207 566.211C308.156 567.283 310.873 569.184 315.419 569.599C319.965 570.013 325.705 568.49 329.495 569.087C335.027 569.964 341.596 575.68 348.677 576.399C357.67 577.301 364.641 573.145 371.758 572.95C376.341 572.828 380.716 576.594 385.322 576.435C388.357 576.326 392.89 573.718 396.546 573.011V573.035Z" fill="#5548FF"/>
<path d="M300.806 565.565C298.418 565.394 299.843 567.917 298.381 568.258C297.979 568.355 291.142 566.369 290.46 566.064C288.607 565.236 286.06 560.97 285.877 559.045C285.707 557.29 288.242 551.854 289.716 551.367C294.091 549.917 293.86 558.947 297.418 557.01C296.577 554.56 298.271 553.305 298.771 551.976C297.406 559.557 300.648 561.251 304.206 566.235C303.414 566.016 301.562 565.613 300.806 565.553V565.565Z" fill="#5548FF"/>
<path d="M490.251 627.376C490.787 627.169 497.356 624.951 495.004 627.376C494.273 628.132 486.51 631.081 484.121 633.141C474.116 641.769 488.898 648.265 496.174 651.007C533.478 665.034 609.669 666.959 647.924 656.393C659.903 653.079 679.414 646.047 659.782 634.737C658.429 633.957 651.3 631.678 652.543 630.094C653.201 630.435 653.871 630.569 654.578 630.777C655.528 631.057 656.028 631.544 657.295 631.459L658.648 632.142C659.526 633.031 662.024 633.36 663.182 634.055C678.671 643.451 670.018 651.421 657.466 656.43C633.47 666.009 595.131 667.154 569.319 666.119C550.137 665.351 493.907 658.855 480.709 645.401C472.58 637.114 482.586 630.289 490.239 627.376H490.251Z" fill="white"/>
<path d="M164.997 511.223C165.241 511.223 166.338 511.845 167.715 511.906C168.495 511.942 169.762 512.04 170.433 511.906L183.277 519.779C186.946 522.923 191.735 526.676 194.879 530.247C195.403 530.844 196.841 532.16 196.914 532.282C197.707 533.733 198.036 537.34 198.267 539.07C197.597 539.107 196.902 539.022 196.232 539.07C189.919 539.558 183.521 542.532 178.256 545.871C173.053 532.538 163.059 521.399 150.068 515.306C150.324 514.88 150.531 514.392 150.751 513.953L161.609 511.236C162.743 511.272 163.876 511.175 165.009 511.236L164.997 511.223ZM181.888 524.215C181.498 523.52 174.759 519.145 173.162 520.059C172.078 521.022 179.804 526.701 180.365 526.786C181.669 526.981 182.461 525.214 181.888 524.215Z" fill="white"/>
<path d="M42.094 588.659C42.2037 588.805 43.337 588.525 43.4467 588.659C43.7879 589.098 38.8523 595.106 38.6695 598.53C38.3526 604.441 44.507 609.718 49.1136 612.545C67.2353 623.672 95.7524 627.62 116.787 629.412C117.238 629.448 117.701 629.375 118.14 629.412C128.157 630.204 136.712 630.301 146.657 630.094C146.888 630.094 147.108 630.094 147.339 630.094C155.48 629.899 162.987 629.692 171.103 628.741C171.542 628.693 172.017 628.79 172.456 628.741C173.029 628.68 173.614 628.741 173.809 628.059C179.159 628.668 199.121 623.586 205.324 621.892C219.997 617.871 237.107 612.618 244.114 598.177C244.59 597.19 243.968 596.483 245.772 596.824C244.919 607.975 232.33 614.629 223.153 618.675C180.524 637.479 108.597 637.942 64.8102 622.648C50.7832 617.749 25.0934 605.879 42.0696 588.671L42.094 588.659Z" fill="white"/>
<path d="M574.45 279.6V312.2H543.215C542.021 293.883 556.169 279.466 574.45 279.6ZM566.979 288.435C559.058 290.519 552.928 296.625 551.356 304.741H566.979V288.435Z" fill="white"/>
<path d="M267.537 380.812V412.741H236.302C235.132 395.107 249.696 379.642 267.537 380.812ZM260.066 389.647C252.608 391.232 245.832 397.544 245.125 405.271H260.066V389.647Z" fill="white"/>
<path d="M293.336 593.412L293.848 594.253C255.752 610.4 302.489 620.235 318.441 622.977C347.226 627.925 403.773 629.85 430.486 618.188C450.119 609.62 435.52 601.382 423.711 596.129C430.426 597.567 435.581 598.067 440.711 603.917C451.375 616.104 426.404 623.05 418.288 625C384.043 633.214 331.981 631.691 298.248 621.429C283.209 616.859 262.93 606.171 287.73 594.923C288.973 594.362 293.117 593.594 293.336 593.399V593.412Z" fill="white"/>
<path d="M142.597 422.247C143.267 422.284 143.962 422.247 144.632 422.247C145.034 425.269 152.529 428.499 153.406 429.791C153.845 430.437 152.371 432.326 152.102 433.118C151.298 432.85 149.58 433.362 148.702 433.118C145.582 432.228 142.95 426.476 139.879 426.33C138.222 426.244 138.112 426.756 137.161 427.012C136.698 427.134 136.101 426.805 135.346 427.219C134.943 427.439 132.945 430.022 132.409 430.412C128.143 433.508 124.134 434.251 119.417 431.521C116.176 429.645 115.7 426.634 111.033 426.976C106.365 427.317 105.171 433.362 98.8217 433.167C92.4724 432.972 90.5469 426.586 85.2335 426.976C80.4197 427.329 79.591 433.727 71.6574 433.142C64.2966 432.594 63.0169 422.905 55.0346 428.06C53.4747 429.072 51.1104 432.655 49.7577 433.02C47.7103 433.569 44.8342 431.96 45.8092 429.742C46.5404 428.085 54.998 421.821 57.3623 421.553C65.7833 420.602 68.1598 427.719 72.9979 427.719C78.4942 427.719 80.1028 418.847 89.9985 422.211C95.641 424.124 95.97 430.802 103.428 425.525C107.401 422.71 106.877 420.943 113.056 421.565C118.869 422.15 120.758 427.914 125.267 427.719C128.338 427.585 130.861 423.941 133.591 422.406C134.602 421.833 137.308 421.528 137.844 420.882C139.245 421.357 141.159 422.162 142.597 422.235V422.247Z" fill="white"/>
<path d="M148.02 455.53C148.264 455.712 148.459 456.005 148.703 456.212L150.056 456.894C150.835 457.553 153.273 459.332 153.395 460.051C149.861 467.18 143.767 456.809 140.879 456.236C133.421 454.762 132.482 463.171 123.208 462.366C117.346 461.854 115.847 456.102 111.009 456.151C106.171 456.2 104.903 462.903 97.4573 462.354C92.2658 461.976 89.6456 456.358 86.5745 456.163C82.3091 455.883 79.9327 460.697 76.5448 461.818C66.5151 465.121 64.9308 455.688 58.0696 456.188C52.683 456.578 51.83 464.499 46.2484 461.586C45.8828 461.062 46.2484 459.588 46.4922 458.917C46.7115 458.296 51.7447 453.202 52.2931 452.836C56.0832 450.314 61.6038 450.569 65.4182 452.946C68.8915 455.115 70.1102 459.697 75.6308 456.821C80.603 454.226 81.4317 449.217 89.67 451.776C91.6686 452.397 94.3375 455.956 95.7512 456.553C101.674 459.076 103.331 452.982 107.243 451.776C108.767 451.301 111.472 451.264 113.069 451.459C117.87 452.044 120.71 457.626 124.597 457.626C129.338 457.626 131.873 450.777 138.173 450.74C142.902 450.716 144.693 453.092 148.02 455.542V455.53Z" fill="white"/>
<path d="M137.844 436.506C140.123 436.469 142.609 436.725 144.632 437.859C147.252 439.333 149.336 443.672 152.785 443.976C153.48 444.878 153.468 445.804 152.785 446.694C152.298 446.804 152.005 447.364 150.75 447.376C144.73 447.413 143.17 438.529 135.419 441.892C133.433 442.758 131.921 445.268 129.74 446.401C119.759 451.593 117.358 441.466 111.691 441.222C106.975 441.027 106.085 445.634 103.039 446.865C93.8012 450.618 91.3882 440.479 85.2826 441.283C82.5528 441.636 80.3713 445.256 77.6415 446.584C67.8921 451.325 64.9429 440.735 58.0695 441.222C54.1697 441.502 52.6098 445.548 49.5753 447.376C49.3925 447.23 45.8583 447.608 45.5293 445.597C49.7337 439.638 54.9984 434.385 63.188 436.81C67.4533 438.078 69.781 445.097 74.936 442.526C80.4445 439.784 81.0051 434.544 89.6577 436.823C93.009 437.7 95.5195 442.611 98.7856 442.672C102.222 442.733 104.672 437.785 107.938 436.823C116.42 434.312 117.249 439.223 122.294 442.246C127.425 445.305 130.752 436.64 137.844 436.518V436.506Z" fill="white"/>
<path d="M171.797 511.223C181.327 508.701 185.58 508.226 195.403 511.053C204.738 513.746 217.095 518.194 217.217 529.833C217.217 530.552 216.474 536.109 216.303 536.389C215.218 538.071 209.052 537.718 207.114 537.718C207.273 535.561 208.26 534.281 208.503 531.99C208.577 531.259 208.784 524.775 207.114 526.859C205.981 530.016 206.87 537.901 202.361 537.73C202.215 537.596 200.753 538.022 200.436 537.657C200.095 537.255 200.436 535.366 200.021 534.305C199.449 532.867 198.145 531.953 197.608 530.93C197.377 530.491 197.194 529.991 196.926 529.577C196.292 528.553 196.195 527.408 195.256 526.152C189.797 518.865 180.291 513.905 171.797 511.236V511.223Z" fill="white"/>
<path d="M537.778 571C536.462 572.146 535.438 572.06 534.439 570.598C532.903 568.368 530.917 555.876 530.295 555.376C526.566 558.07 521.435 556.412 518.767 552.988C511.272 543.397 525.737 545.566 529.625 550.611C529.625 548.796 529.552 545.31 528.614 543.811C527.919 542.702 524.056 545.517 522.496 544.53C519.705 544.274 516.622 541.959 515.074 539.704C509.931 532.221 518.828 531.953 523.848 535.682C525.469 536.889 526.176 538.607 527.578 539.741C528.76 538.498 527.444 535.817 527.578 535.682C528.979 534.269 528.687 537.389 529.601 537.035C530.052 532.989 532.672 530.82 535.377 528.212C536.23 527.383 537.656 527.188 538.412 526.481C539.582 525.385 539.545 523.374 541.154 522.777C540.569 530.101 541.215 536.328 534.597 541.008C533.781 541.581 531.209 542.385 531.087 542.58C530.173 544.031 532.257 548.601 531.66 550.624L535.036 543.677C538.643 540.265 541.3 540.46 541.836 545.871C540.215 547.955 539.265 551.952 537.047 553.646C535.804 554.597 533.805 554.572 533.683 554.706C533.366 555.047 534.804 564.102 537.754 561.494C536.328 564.846 537.961 567.588 537.754 571H537.778Z" fill="white"/>
<path d="M636.237 369.953L635.92 371.318L618.834 388.234C617.628 388.441 603.138 373.232 601.59 370.965C601.59 369.588 616.458 355.317 618.944 353.599C620.15 353.599 632.983 369.344 636.249 369.953H636.237ZM630.131 371.976C630.582 371.538 629.924 369.636 629.485 368.893C629.047 368.15 619.565 358.571 618.834 358.449C616.726 359.668 606.416 369.6 606.525 370.977C608.463 372.683 617.323 382.884 618.919 382.884C620.906 382.884 625.756 375.62 627.401 374.036C624.72 373.171 620.138 380.69 618.919 380.702C615.117 378.058 611.498 374.718 609.328 370.599C609.56 369.685 616.446 362.507 617.53 361.764C618.249 361.276 618.261 360.923 619.248 361.422C619.809 361.715 627.73 369.636 628.133 370.295C628.705 371.209 627.999 371.952 628.084 371.988C628.242 372.074 630.046 372.062 630.119 371.988L630.131 371.976Z" fill="white"/>
<path d="M504.509 533.306C504.728 531.795 507.556 524.629 509.262 527.322C510.139 528.699 511.845 533.148 511.919 534.732C511.992 536.475 510.956 537.51 511.577 539.814C512.126 541.825 514.709 541.191 514.734 544.152C514.77 547.686 511.224 553.402 509.603 547.223C507.994 551.135 512.15 553.573 513.344 556.729C514.356 556.583 514.453 553.816 514.612 552.915C514.782 551.928 514.709 550.928 514.697 549.953L518.426 555.413C519.864 558.569 515.112 560.483 517.403 564.212C515.514 564.87 514.039 560.812 513.637 560.775C511.382 560.617 508.921 565.443 502.194 562.786C498.306 561.25 491.591 556.522 499.451 555.425C503.522 554.852 507.629 555.352 511.273 557.095L507.885 550.636C505.996 550.173 506.642 552.013 505.155 552.976C503.449 554.085 500.085 554.28 498.087 553.975C496.917 553.792 491.652 550.77 491.554 550.258C491.323 548.917 493.029 547.223 493.967 547.223H503.814C503.936 546.224 502.035 545.993 501.377 545.932C495.54 545.31 493.017 547.211 488.886 541.447C484.998 536.024 492.627 536.816 496.332 538.071C500.78 539.594 501.804 541.739 504.497 545.188C504.875 541.471 503.985 536.889 504.497 533.306H504.509ZM504.85 547.236C504.18 547.711 505.216 548.174 505.545 548.564C506.215 548.113 505.228 547.662 504.85 547.236Z" fill="white"/>
<path d="M408.086 547.906L409.439 550.624C402.322 560.093 371.733 556.851 361.106 555.169C350.479 553.488 337.098 551.062 326.459 548.393C324.692 547.955 315.369 545.505 315.052 544.165C314.955 543.08 315.82 542.58 316.771 542.446C318.428 542.215 327.654 545.152 330.542 545.664C348.213 548.796 378.509 555.571 395.339 552.5C398.093 552.001 405.929 549.417 408.074 547.918L408.086 547.906Z" fill="#5548FF"/>
<path d="M475.309 767.989C475.358 771.047 477.625 776.714 479.782 778.798C482.231 781.187 486.521 781.626 489.092 783.076C489.97 783.576 490.482 783.807 490.25 784.965C485.497 785.696 479.574 787.561 477.551 792.301L474.31 800.588C472.628 798.115 472.543 794.885 471.166 792.192C468.314 786.598 464.451 786.842 459.162 785.16C458.65 785.001 457.017 785.184 457.663 783.966C458.479 782.43 467.583 782.113 471.044 775.605C471.482 774.777 473.871 766.429 475.309 767.989Z" fill="white"/>
<path d="M142.585 680.365C144.511 682.254 143.195 688.969 149.58 692.735C150.507 693.283 159.805 695.867 158.209 697.341C153.7 697.67 147.789 699.852 145.413 703.898C144.035 706.225 143.743 709.626 142.658 712.014C141.184 715.268 140.684 709.357 140.002 707.749C138.283 703.678 136.626 700.863 132.397 699.06C130.91 698.426 125.841 697.609 125.609 697.341C125.548 697.268 125.536 695.391 125.609 695.318C125.816 695.099 129.935 694.538 131.398 693.965C139.404 690.821 138.234 687.835 141.172 681.328C141.44 680.718 141.44 679.256 142.585 680.377V680.365Z" fill="white"/>
<path d="M119.979 277.638C120.918 277.394 121.222 277.747 121.905 278.211C127.316 281.842 132.483 290.702 137.784 294.98C138.004 296.186 122.855 310.615 120.516 312.236C119.139 312.236 104.88 297.38 103.174 294.894C103.174 293.688 118.797 277.955 119.967 277.65L119.979 277.638ZM119.979 283.073C119.26 283.268 109.779 292.664 109.279 293.493C106.964 297.356 113.801 298.989 115.093 302.694L121.101 307.398C125.122 303.559 129.388 299.793 132.312 295.004C132.142 293.919 123.258 284.535 121.905 283.634C121.222 283.171 120.918 282.817 119.979 283.061V283.073Z" fill="white"/>
<path d="M423.029 467.07C423.236 467.29 423.857 471.641 424.369 472.871C427.282 480.025 431.072 479.27 437.019 481.951C440.273 483.413 434.033 484.376 432.547 485.083C427.416 487.532 426.526 488.458 424.26 493.772C423.918 494.576 423.114 500.402 421.676 498.988C420.872 498.196 419.495 490.372 416.911 487.776C414.132 484.985 410.013 484.912 406.906 483.523C403.493 481.999 410.72 480.915 412.158 480.305C419.677 477.076 418.739 474.358 421.603 468.021C421.871 467.424 421.908 465.9 423.017 467.07H423.029Z" fill="white"/>
<path d="M533.026 506.471C533.294 508.055 533.282 510.785 533.855 512.137C534.33 513.259 535.634 512.796 535.805 514.27C536.524 520.071 535.695 524.324 531.332 528.224C529.297 530.052 526.713 529.333 527.591 533.659C525.824 533.94 525.543 532.197 525.556 530.954C524.337 530.808 525.543 532.27 523.898 532.392C518.304 532.806 514.453 529.163 511.699 524.787C510.493 522.874 507.836 519.316 510.968 518.743C516.452 517.719 521.351 521.57 523.533 526.201C524.922 526.25 523.411 524.434 525.214 524.848L526.238 526.213C525.994 523.581 526.652 521.022 527.908 518.706C528.907 516.854 532.795 513.624 532.929 512.869C533.087 512.04 529.492 506.361 533.026 506.507V506.471Z" fill="white"/>
<path d="M645.072 547.906C646.022 545.664 649.313 541.215 650.982 539.265C651.397 538.778 650.958 537.986 652.53 538.412C652.676 539.704 651.823 540.886 651.848 542.142C651.933 545.871 653.371 552.293 653.152 555.779C653.091 556.693 652.457 557.205 651.86 557.777C655.796 555.779 658.136 553.963 662.901 554.877C663.45 554.987 667.947 556.571 668.142 556.766C668.958 557.534 665.448 559.703 665.46 560.519C661.78 563.322 657.953 565.76 653.2 564.236C651.446 563.676 650.324 561.299 647.095 562.871C648.448 558.996 646.729 560.775 645.413 558.777C643.366 555.657 643.658 551.233 645.048 547.93L645.072 547.906Z" fill="white"/>
<path d="M545.932 538.4C543.958 544.652 542.106 553.28 541.838 559.764C541.667 563.932 542.484 567.6 542.545 571.682C541.119 571.317 539.303 572.377 539.132 569.647H538.474C538.474 570.135 538.121 570.708 537.779 571C537.987 567.588 536.354 564.846 537.779 561.494C534.83 564.102 533.392 555.06 533.709 554.706C533.831 554.572 535.83 554.596 537.073 553.646C539.278 551.952 540.241 547.955 541.862 545.871C541.923 545.798 542.788 546.09 543.069 545.749C543.239 545.542 544.117 541.557 544.397 540.569C544.726 539.399 543.934 537.998 545.932 538.412V538.4Z" fill="#5548FF"/>
<path d="M503.071 538.315C500.828 539.729 495.649 535.951 494.43 533.879C493.151 531.697 491.701 522.813 494.065 522.131C499.744 520.473 506.824 535.951 503.071 538.315Z" fill="white"/>
<path d="M518.779 503.765C521.338 501.986 526.152 510.846 526.603 513.234C526.956 515.148 526.469 521.631 524.495 522.07C521.972 522.643 518.231 517.804 517.707 515.343C517.268 513.283 517.292 504.801 518.779 503.765Z" fill="white"/>
<path d="M670.187 535C670.87 535.609 667.543 538.79 667.165 539.789C666.653 541.167 666.958 542.678 666.471 543.848C664.179 549.368 661.108 553.451 654.564 553.341C653.991 547.662 654.991 543.117 660.511 540.606C662.095 539.887 664.399 539.85 665.63 539.107C666.58 538.522 668.445 533.452 670.175 535H670.187Z" fill="white"/>
<path d="M532.344 570.318L507.227 569.306C514.088 565.662 522.497 564.687 529.918 562.238C531.027 562.518 531.978 568.879 532.344 570.318Z" fill="white"/>
<path d="M654.577 566.247L655.93 566.93C656.052 567.051 656.795 566.978 657.234 567.381C657.746 567.844 657.904 568.843 658.465 568.989C659.184 569.184 665.436 567.588 663.413 569.635C663.218 569.83 659.501 570.683 658.514 571.183C657.222 571.841 655.564 573.303 654.589 573.718C650.738 575.351 641.403 574.741 642.366 568.965C642.646 568.794 642.841 568.526 643.049 568.282C645.352 567.295 647.241 566.857 649.837 565.565C651.177 566.04 653.188 566.272 654.589 566.247H654.577Z" fill="white"/>
<path d="M642.354 568.965C640.124 570.378 636.65 566.686 636.285 564.517C635.578 560.385 637.613 555.364 641.671 554.024C643.036 558.192 643.536 561.921 642.366 566.247L645.059 565.223C643.95 565.894 643.67 567.539 643.036 568.282C642.585 568.477 642.451 568.38 642.354 568.965Z" fill="white"/>
<path d="M171.798 511.223C180.292 513.88 189.798 518.84 195.258 526.14C196.196 527.395 196.293 528.541 196.927 529.565L194.892 530.247C191.748 526.689 186.946 522.923 183.29 519.779L170.445 511.906C170.604 511.869 171.189 511.394 171.798 511.223Z" fill="#5548FF"/>
<path d="M139.881 426.318C142.964 426.464 145.584 432.228 148.704 433.106C148.399 435.177 146.242 436.664 144.634 437.859C142.611 436.713 140.125 436.457 137.846 436.506L139.881 435.823C138.748 432.484 140.137 429.718 139.881 426.318Z" fill="#5548FF"/>
<path d="M144.633 422.247C144.718 422.247 145.401 421.577 146.278 421.54C147.911 421.479 153.164 421.662 154.017 423.051C154.589 423.99 155.613 430.644 155.43 432.033C154.821 436.981 152.883 433.374 152.103 433.106C152.371 432.313 153.846 430.425 153.407 429.779C152.53 428.487 145.035 425.257 144.633 422.235V422.247Z" fill="#5548FF"/>
<path d="M161.608 511.223L150.75 513.941C151.969 511.455 152.639 508.104 156.027 507.275C157.904 506.812 162.181 508.53 161.621 511.223H161.608Z" fill="#5548FF"/>
<path d="M582.602 528.882C585.173 529.016 585.161 530.625 586.306 531.636C586.904 532.16 587.952 532.185 588.037 532.282C588.634 532.94 590.803 537.462 591.425 537.035C591.279 535.926 594.581 531.234 595.507 532.282C595.788 535.914 594.837 538.425 590.755 537.718C590.718 537.657 589.792 537.888 589.353 537.267C588.293 535.768 589.572 533.781 586.002 535.682C585.88 535.317 583.126 529.857 582.602 528.894V528.882Z" fill="#5548FF"/>
<path d="M351.735 505.788C351.967 506.007 356.695 508.676 357.158 508.847C358.389 509.31 363.02 509.676 363.227 509.907C363.337 510.029 363.361 512.479 363.276 512.576C362.021 513.88 353.039 510.724 351.686 508.871C350.955 507.872 351.223 506.751 351.053 506.471L351.735 505.788Z" fill="#5548FF"/>
<path d="M488.703 434.592C492.81 433.374 495.284 438.444 491.616 440.259C486.96 442.575 485.023 435.689 488.703 434.592Z" fill="white"/>
<path d="M543.665 434.568C547.577 433.276 550.38 438.383 546.614 440.259C541.764 442.672 540.411 435.653 543.665 434.568Z" fill="white"/>
<path d="M571.535 434.556C574.899 433.605 577.665 437.737 574.74 439.845C570.28 443.05 566.904 435.86 571.535 434.556Z" fill="white"/>
<path d="M516.537 434.592C521.935 432.996 522.496 441.356 517.109 440.613C513.953 440.174 513.807 435.397 516.537 434.592Z" fill="white"/>
<path d="M242.188 249.145C249.013 246.768 247.623 257.188 242.432 254.812C239.994 253.691 239.824 249.974 242.188 249.145Z" fill="white"/>
<path d="M461.539 434.592C467.364 432.862 466.999 442.112 461.539 440.467C458.992 439.699 458.992 435.348 461.539 434.592Z" fill="white"/>
<path d="M300.636 254.3C298.784 256.152 295.445 255.177 295.335 252.106C295.079 245.501 304.792 250.144 300.636 254.3Z" fill="white"/>
<path d="M269.06 279.429C266.659 276.992 269.023 272.495 272.265 273.811C277.054 275.749 272.277 282.695 269.06 279.429Z" fill="white"/>
<path d="M461.538 409.439C466.218 408.147 467.741 416.666 461.404 415.471C458.65 414.959 459.149 410.097 461.538 409.439Z" fill="white"/>
<path d="M191.321 254.3C189.432 256.213 185.91 254.873 186.093 251.485C186.385 245.781 195.294 250.278 191.321 254.3Z" fill="white"/>
<path d="M544.383 409.439C549.258 408.11 549.368 417.031 543.701 415.337C540.642 414.423 541.824 410.146 544.383 409.439Z" fill="white"/>
<path d="M296.151 274.274C299.734 272.032 304.243 277.845 299.417 279.966C295.359 281.745 294.359 275.383 296.151 274.274Z" fill="white"/>
<path d="M218.546 274.274C220.337 275.395 219.338 281.745 215.28 279.966C210.454 277.845 214.975 272.032 218.546 274.274Z" fill="white"/>
<path d="M323.377 254.3C320.647 251.534 324.413 247.049 327.691 249.657C330.969 252.265 326.168 257.115 323.377 254.3Z" fill="white"/>
<path d="M186.19 278.783C183.899 274.835 190.053 271.983 191.832 275.517C193.612 279.051 187.957 281.818 186.19 278.783Z" fill="white"/>
<path d="M492.114 410.182C495.234 413.338 490.091 417.738 487.459 414.484C484.985 411.425 489.543 407.574 492.114 410.182Z" fill="white"/>
<path d="M572.243 409.439C575.387 409.012 577.471 414.301 573.973 415.337C569.159 416.775 567.965 410.012 572.243 409.439Z" fill="white"/>
<path d="M517.244 409.439C520.608 408.976 522.046 414.35 518.999 415.362C514.392 416.897 512.808 410.036 517.244 409.439Z" fill="white"/>
<path d="M324.376 274.286C327.081 273.482 329.592 275.432 328.312 278.223C325.704 283.902 319.355 275.773 324.376 274.286Z" fill="white"/>
<path d="M28.286 554.121C32.8682 552.659 39.4613 557.533 33.6238 558.131C29.9678 558.508 23.9475 555.498 28.286 554.121Z" fill="white"/>
<path d="M270.047 249.157C276.104 247.341 274.605 257.042 269.742 254.653C267.305 253.459 267.731 249.852 270.047 249.157Z" fill="white"/>
<path d="M215.059 249.157C217.765 248.353 220.275 250.303 218.996 253.093C216.388 258.773 210.038 250.644 215.059 249.157Z" fill="white"/>
<path d="M242.163 274.262C248.098 272.276 247.733 280.477 243.54 280.124C240.445 279.868 240.165 274.932 242.163 274.262Z" fill="white"/>
<path d="M608.157 478.684C609.315 478.489 610.789 480.439 610.399 481.597C608.474 482.048 606.695 487.069 605.354 486.764C602.868 486.216 606.402 478.965 608.157 478.672V478.684Z" fill="white"/>
<path d="M212.538 541.788L210.502 543.823C213.317 544.006 215.06 543.08 215.938 545.871C216.181 546.626 215.901 547.796 216.62 548.588C214.268 547.284 210.064 544.506 207.797 543.836C208.345 540.472 210.99 541.971 212.55 541.8L212.538 541.788Z" fill="#5548FF"/>
<path d="M598.896 487.447C597.153 486.984 588.099 486.326 590.073 483.389C591.292 481.573 599.201 484.266 598.896 487.447Z" fill="white"/>
<path d="M292.447 520.266C292.679 520.559 293.215 522.265 293.008 522.764C291.423 520.729 284.075 522.618 285.196 519.047C286.597 516.72 291.362 518.877 292.447 520.266Z" fill="white"/>
<path d="M35.6714 544.518C38.8034 543.604 39.7905 549.32 36.9753 549.941C35.1229 550.343 33.5143 545.152 35.6714 544.518Z" fill="white"/>
<path d="M600.675 473.907C603.149 473.493 603.868 478.806 601.187 479.257C598.713 479.672 597.994 474.358 600.675 473.907Z" fill="white"/>
<path d="M303.524 516.659C304.621 517.756 303.122 523.142 300.112 521.107C297.723 519.486 301.952 515.087 303.524 516.659Z" fill="white"/>
<path d="M294.371 509.871C297.113 509.115 298.6 513.965 296.382 514.624C293.872 515.367 292.275 510.456 294.371 509.871Z" fill="white"/>
<path d="M511.296 517.341C510.285 518.401 505.715 511.162 505.873 509.871C506.946 508.762 511.845 516.768 511.296 517.341Z" fill="white"/>
<path d="M431.169 530.93C430.608 532.453 425.575 535.122 425.063 532.611C424.491 529.772 429.682 530.491 431.169 530.93Z" fill="white"/>
<path d="M46.8581 552.659C46.7118 552.805 42.9217 552.805 42.7755 552.659C42.4464 552.318 42.7389 549.466 43.8601 549.32C46.6753 548.406 47.6258 551.867 46.8459 552.659H46.8581Z" fill="white"/>
<path d="M433.204 539.083C432.863 540.338 429.06 540.618 428.219 540.362C427.049 540.009 426.72 538.083 427.098 537.73C427.988 536.889 432.009 538.473 433.204 539.095V539.083Z" fill="white"/>
<path d="M137.163 427C137.943 430.083 134.945 431.57 132.41 430.4C132.946 430.01 134.945 427.427 135.347 427.207C136.103 426.793 136.7 427.122 137.163 427Z" fill="#5548FF"/>
<path d="M42.0941 556.741C42.2769 556.888 41.2411 560.41 42.0941 561.482H39.3887C39.474 559.788 40.0102 555.011 42.1063 556.741H42.0941Z" fill="#5548FF"/>
<path d="M482.11 530.247C483.28 529.053 487.228 535.219 487.204 536.341C486.107 535.878 481.147 531.21 482.11 530.247Z" fill="white"/>
<path d="M152.773 443.976C153.297 444.025 155.016 442.124 155.503 444.988C155.991 447.852 154.48 446.304 152.773 446.694C153.456 445.804 153.468 444.878 152.773 443.976Z" fill="#5548FF"/>
<path d="M137.844 420.882C137.991 420.712 137.662 419.688 137.857 419.542C138.1 419.347 143.572 420.919 142.597 422.247C141.159 422.162 139.246 421.37 137.844 420.894V420.882Z" fill="#5548FF"/>
<path d="M642.354 607.682C644.401 606.951 644.182 610.559 643.036 611.753C642.914 610.705 642.536 609.096 642.354 607.682Z" fill="#5548FF"/>
<path d="M144.634 515.306L143.951 512.588C146.9 512.028 145.877 513.575 145.986 515.976C145.535 515.769 145.097 515.464 144.634 515.294V515.306Z" fill="#5548FF"/>
<path d="M164.996 511.223C166.166 509.919 168.287 510.09 167.714 511.906C166.337 511.845 165.24 511.236 164.996 511.223Z" fill="#5548FF"/>
<path d="M654.576 566.247C654.649 566.247 655.344 565.114 655.844 565.626C656.16 565.955 655.844 566.832 655.941 566.93L654.588 566.247H654.576Z" fill="#5548FF"/>
<path d="M173.833 628.059C173.638 628.729 173.053 628.68 172.48 628.741C172.224 626.06 173.455 628.022 173.833 628.059Z" fill="#5548FF"/>
<path d="M141.232 514.624L141.574 513.953C142.829 513.722 142.646 514.148 142.585 515.306C141.976 515.172 141.33 514.636 141.232 514.624Z" fill="#5548FF"/>
<path d="M657.295 631.447C657.368 631.447 658.197 630.313 658.636 630.764C658.831 630.972 658.502 631.971 658.636 632.117L657.283 631.435L657.295 631.447Z" fill="#5548FF"/>
<path d="M150.068 456.882L148.715 456.2C148.837 456.297 149.458 456.358 150.068 456.882Z" fill="#5548FF"/>
<path d="M647.314 583.699C647.728 584.211 648.825 584.381 649.459 585.271C650.093 586.16 652.396 590.036 651.86 590.694C649.179 589.195 646.936 591.925 644.194 592.863C642.391 593.473 640.611 593.558 638.783 594.253C630.411 597.397 622.477 601.687 614.154 604.953C611.777 604.904 602.54 590.706 600.529 588.037C599.713 586.94 594.241 581.164 594.813 580.518L632.824 565.577C634.835 570.269 639.307 574.449 642.744 578.41C644.414 580.323 645.645 581.688 647.302 583.711L647.314 583.699ZM643.707 587.976C644.84 586.843 637.418 579.616 636.273 578.775C633.116 576.46 632.58 578.373 634.506 581.225C635.371 582.504 642.33 589.353 643.707 587.976ZM613.849 600.2L617.213 597.823C614.727 596.714 607.524 584.198 605.014 586.624C603.576 588.001 614.044 597.506 613.849 600.2Z" fill="white"/>
<path d="M585.99 535.683C589.561 533.781 588.293 535.768 589.342 537.267C589.78 537.888 590.706 537.657 590.743 537.718C590.95 538.083 591.145 541.447 591.425 542.471L588.708 545.188C587.989 544.469 588.793 538.01 585.99 538.4C585.783 537.681 586.21 536.353 585.99 535.683Z" fill="#5548FF"/>
<path d="M643.706 617.871C646.618 617.785 646.887 623.818 643.706 622.624C643.56 621.088 643.876 619.394 643.706 617.871Z" fill="#5548FF"/>
<path d="M592.79 549.259C591.997 549.088 589.499 549.661 589.389 548.917C588.792 544.92 591.096 546.334 592.79 548.576C592.838 548.796 592.741 549.039 592.79 549.259Z" fill="#5548FF"/>
<path d="M638.283 549.941C639.746 549.941 640.672 549.429 640.318 551.294C638.637 551.818 638.405 550.636 638.283 550.624V549.941Z" fill="#5548FF"/>
<path d="M583.954 613.447C584.04 612.63 584.832 607.451 585.99 609.035C585.319 610.498 586.672 612.716 586.672 613.447V649.447C586.672 650.336 584.564 650.958 583.954 649.447C584.807 637.906 582.809 624.781 583.954 613.447Z" fill="#5548FF"/>
<path d="M517.414 637.565C516.61 637.431 514.368 637.833 514.051 637.528C513.137 636.663 511.004 615.348 511.309 612.435L513.892 613.581L517.414 637.565Z" fill="#5548FF"/>
<path d="M637.6 618.541C637.04 618.456 635.772 618.699 635.577 618.541C635.017 618.078 633.798 604.733 635.224 604.27C636.784 603.758 637.6 605.574 637.6 606.659V618.541Z" fill="#5548FF"/>
<path d="M538.424 640.331C540.557 643.731 532.38 641.684 530.539 641.074C527.054 639.929 527.663 638.137 531.015 638.527C531.904 638.625 538.217 640.014 538.424 640.331Z" fill="#5548FF"/>
<path d="M600.932 606.318C600.712 608.816 601.249 611.716 600.932 614.142C600.81 615.129 600.42 616.25 599.579 615.141C599.591 612.167 599.823 609.181 598.896 606.318H600.932Z" fill="#5548FF"/>
<path d="M126.292 624.659C116.494 622.002 108.194 614.666 111.692 603.612C113.203 598.823 121.222 588.805 126.109 587.464C147.326 581.688 167.13 606.464 154.334 625.353C146.376 627.303 137.735 626.718 129.68 625.341C128.51 625.146 127.437 624.976 126.28 624.659H126.292ZM133.677 617.273C133.506 616.993 130.777 616.579 130.362 615.494L121.88 601.577C118.163 607.134 124.586 616.725 129.984 618.59C131.581 619.138 135.42 620.016 133.665 617.273H133.677Z" fill="white"/>
<path d="M144.45 564.017C143.67 564.517 141.318 564.565 139.88 565.223C137.857 566.162 136.236 567.575 134.14 568.258C125.987 548.296 112.935 535.11 90.6328 533.623C89.8894 533.574 88.3782 533.988 88.951 532.611C90.5353 528.797 104.733 523.179 108.986 522.764C124.415 521.253 147.655 538.315 152.127 552.951C153.712 558.131 151.835 556.376 149.044 558.752C147.777 559.837 144.852 563.749 144.45 564.005V564.017ZM111.35 531.6C112.886 530.089 107.743 526.469 106.61 529.236C105.549 531.831 111.07 531.88 111.35 531.6ZM135.797 541.788C137.028 538.156 125.048 529.467 123.586 530.93C123.354 532.234 123.793 532.77 124.561 533.684C125.109 534.342 131.276 539.862 132.08 540.423C133.262 541.252 134.237 542.02 135.809 541.776L135.797 541.788Z" fill="white"/>
<path d="M129.691 625.341C130.825 630.777 126.657 628.242 122.903 628.729C122.696 626.523 125.511 626.341 126.291 624.659C127.437 624.976 128.522 625.134 129.691 625.341Z" fill="#5548FF"/>
<path d="M156.857 628.729C156.126 629.424 151.617 628.278 152.786 626.706C154.127 624.89 158.563 627.108 156.857 628.729Z" fill="#5548FF"/>
<path d="M198.278 539.07C198.364 539.729 200.106 541.483 197.937 542.458C195.573 543.519 196.267 540.582 196.243 539.07C196.913 539.022 197.608 539.107 198.278 539.07Z" fill="#5548FF"/>
<path d="M196.914 529.565C197.17 529.991 197.365 530.479 197.597 530.917L196.914 532.27C196.841 532.148 195.403 530.82 194.879 530.235L196.914 529.552V529.565Z" fill="#5548FF"/>
<path d="M146.667 630.094C146.07 626.767 149.263 627.462 147.35 630.094C147.118 630.094 146.899 630.094 146.667 630.094Z" fill="#5548FF"/>
<path d="M142.585 628.059C143.328 628.802 141.975 630.155 141.232 629.412C140.488 628.668 141.841 627.316 142.585 628.059Z" fill="#5548FF"/>
<path d="M116.786 629.412C116.371 627.389 118.516 627.279 118.139 629.412C117.688 629.375 117.225 629.448 116.786 629.412Z" fill="#5548FF"/>
<path d="M312.347 547.906C312.542 549.527 311.324 551.318 312.299 552.842C313.639 554.938 324.924 559.971 321.183 562.53C318.246 564.541 309.812 557.022 308.752 554.487C308.021 552.72 309.764 550.331 310.824 548.783C311.238 548.174 310.714 547.528 312.335 547.906H312.347Z" fill="#5548FF"/>
<path d="M414.193 556.059C414.583 556.327 414.669 558.533 414.461 559.301C413.023 564.578 404.456 565.37 399.947 564.882C399.179 562.018 402.165 562.957 404.712 561.823C406.479 561.043 409.319 559.215 410.988 558.094C411.671 557.631 412.585 554.95 414.205 556.047L414.193 556.059Z" fill="#5548FF"/>
<path d="M395.291 541.203C395.852 540.216 402.128 537.596 400.629 533.647C409.038 535.89 396.876 547.126 395.206 542.812C395.084 542.495 395.096 541.557 395.291 541.203Z" fill="#5548FF"/>
<path d="M327.96 526.847C328.13 530.698 325.559 532.819 321.854 532.953C320.635 531.71 326.704 525.628 327.96 526.847Z" fill="#5548FF"/>
<path d="M398.582 573.035C398.131 573.864 396.693 574.217 396.547 573.035C397.144 572.913 397.936 573.121 398.582 573.035Z" fill="#5548FF"/>
<path d="M217.961 545.871C228.039 547.613 244.991 567.015 244.504 577.459C244.467 578.3 243.98 581.676 242.408 580.506C242.042 580.238 240.506 573.547 239.812 571.89C235.486 561.689 227.235 554.755 217.961 549.259V545.859V545.871Z" fill="#5548FF"/>
<path d="M198.268 572.353C197.598 573.047 196.147 571.768 195.538 571.353C193.259 569.806 187.495 565.796 185.813 564.102C185.228 563.517 183.839 562.311 184.692 561.494C186.41 559.849 201.266 569.233 198.268 572.353Z" fill="#5548FF"/>
<path d="M236.289 581.188C237.703 586.892 231.524 592.132 226.796 594.082C226.003 589.622 231.89 588.403 233.888 585.892C235.497 583.869 233.913 580.932 236.301 581.176L236.289 581.188Z" fill="#5548FF"/>
<path d="M249.195 558.777C251.047 560.544 251.767 570.244 247.172 570.318C245.953 566.905 247.136 565.662 247.696 563.03C247.855 562.286 247.452 557.107 249.195 558.777Z" fill="#5548FF"/>
<path d="M207.785 604.282C206.749 603.393 212.892 599.603 213.55 598.835C214.208 598.067 214.488 596.239 214.598 596.154C215.195 595.739 217.072 596.336 217.291 597.165C217.9 599.517 210.491 605.123 207.785 604.282Z" fill="#5548FF"/>
<path d="M213.89 558.094C213.646 558.362 208.113 555.035 207.541 554.596C206.724 553.963 205.725 552.683 206.432 551.976C207.48 550.928 215.462 556.376 213.89 558.082V558.094Z" fill="#5548FF"/>
<path d="M169.75 562.165C169.165 562.737 163.182 561.921 163.645 559.8C164.23 557.168 171.81 560.166 169.75 562.165Z" fill="#5548FF"/>
<path d="M242.372 548.637C242.713 549.137 242.811 551.026 241.409 550.611C240.885 550.453 238.996 549.32 238.314 548.917C237.948 548.698 235.694 548.284 236.973 547.236C237.193 547.053 242.201 548.418 242.36 548.649L242.372 548.637Z" fill="#5548FF"/>
<path d="M217.961 545.871V549.271C217.522 549.015 217.047 548.832 216.608 548.588C215.889 547.796 216.17 546.626 215.926 545.871C216.584 545.944 217.339 545.761 217.961 545.871Z" fill="#5548FF"/>
<path d="M634.884 543.836C634.994 548.588 627.292 549.576 623.599 549.856C616.397 550.404 608.366 548.308 601.833 545.31C599.384 544.189 595.24 542.824 596.179 539.753C603.223 540.557 609.645 545.115 616.896 545.859C623.136 546.492 628.888 545.152 634.884 543.836Z" fill="#5548FF"/>
<path d="M650.494 518.682C649.885 519.498 643.45 521.265 642 521.399C634.103 522.179 628.704 520.278 622.294 515.988C619.259 513.953 608.498 506.239 616.188 504.435C620.612 512.722 630.581 518.316 640.001 518.048C640.903 518.024 652.968 515.355 650.494 518.682Z" fill="#5548FF"/>
<path d="M641.671 532.965C641.269 538.193 638.575 536.194 635.967 536.426C628.655 537.047 624.073 537.511 616.858 535.024C615.067 534.415 601.905 528.163 604.33 525.494C611.326 527.054 616.334 532.429 623.854 533.464C630.447 534.378 635.455 531.831 641.671 532.965Z" fill="#5548FF"/>
<path d="M628.094 503.753C632.165 504.716 635.723 507.543 639.989 507.823C643.194 508.03 654.089 504.192 652.492 509.469C651.956 511.248 650.018 509.834 648.873 509.919C642.341 510.456 637.198 511.821 631.251 507.701C630.629 507.275 627.266 504.545 628.082 503.741L628.094 503.753Z" fill="#5548FF"/>
<path d="M642.353 486.094C643.779 488.02 636.236 489.628 635.322 490.262L624.024 496.27C622.135 494.308 629.618 489.458 631.032 488.69C634.298 486.923 638.673 484.815 642.341 486.094H642.353Z" fill="#5548FF"/>
<path d="M406.052 577.118C406.442 578.397 406.637 579.129 406.466 580.518C406.003 584.259 402.968 592.132 401.616 596.105C400.763 598.603 396.899 610.132 395.924 611.339C395.413 611.984 393.975 611.899 393.841 611.765C393.195 611.131 394.547 606.22 394.864 604.977C396.534 598.408 399.678 588.025 402.347 581.895C402.7 581.091 404.675 576.07 406.052 577.13V577.118Z" fill="#5548FF"/>
<path d="M361.923 581.871C364.202 584.052 362.63 587.489 362.605 589.695C362.544 596.763 362.459 604.977 361.728 611.936C361.411 614.922 358.864 614.592 358.498 611.46C357.706 604.624 358.791 588.659 359.888 581.883C360.497 581.383 361.35 581.335 361.923 581.883V581.871Z" fill="#5548FF"/>
<path d="M60.4353 569.635C60.5571 569.757 60.3743 571.987 60.7521 573.047C61.5199 575.192 65.5537 582.261 67.1746 583.601C69.0757 585.173 72.5246 584.722 71.964 587.964C64.9566 590.426 56.1577 577.313 56.3892 571.975C56.4745 570.001 59.7528 568.928 60.4231 569.623L60.4353 569.635Z" fill="#5548FF"/>
<path d="M504.509 583.236C502.084 590.365 507.629 599.773 495.686 596.129C494.809 595.093 498.586 591.23 499.366 589.963C499.769 589.305 503.096 581.7 504.509 583.236Z" fill="#5548FF"/>
<path d="M571.731 599.529C572.498 606.257 568.269 605.696 563.236 604.977C562.103 604.819 561.018 605.233 560.202 603.941C559.8 602.552 562.566 602.576 563.443 602.442C564.906 602.223 566.636 602.467 567.867 602.113C569.354 601.674 569.866 599.298 571.731 599.542V599.529Z" fill="#5548FF"/>
<path d="M520.766 596.861C522.253 599.298 518.901 598.981 517.085 598.835C516.208 598.762 504.947 597.433 507.239 595.447C509.042 595.142 520.266 596.032 520.778 596.861H520.766Z" fill="#5548FF"/>
<path d="M539.143 600.882C538.704 601.272 527.882 601.394 528.284 598.177C529.211 597.36 539.63 597.397 539.143 600.882Z" fill="#5548FF"/>
<path d="M585.306 543.153C586.269 544.104 582.455 550.221 581.541 551.257C579.542 553.536 567.806 561.47 565.661 558.033C564.126 555.572 568.574 555.559 570.17 554.828C577.007 551.684 577.86 548.503 582.577 544.152C583.222 543.555 584.673 542.519 585.306 543.153Z" fill="#5548FF"/>
<path d="M563.59 537.73C567.526 537.255 574.631 532.368 572.328 527.968C571.913 527.176 565.588 522.374 568.014 522.094C571.389 521.692 578.762 527.932 577.8 531.161C577.544 532.039 575.582 532.721 574.765 533.611C571.987 536.682 568.148 541.898 563.59 537.73Z" fill="#5548FF"/>
<path d="M164.327 580.506C162.779 578.958 167.13 576.216 167.715 578.824C168.093 580.494 164.766 580.945 164.327 580.506Z" fill="#5548FF"/>
<path d="M369.296 498.403C372.927 504.24 355.647 508.006 358.657 498.123C359.644 494.881 361.703 497.282 363.093 497.489C364.372 497.684 368.784 497.562 369.308 498.403H369.296Z" fill="#5548FF"/>
<path d="M347.653 510.553C346.703 515.087 343.583 518.743 351.053 518.706C350.383 525.555 342.474 519.376 339.561 516.939C339.11 515.074 345.082 509.371 347.653 510.565V510.553Z" fill="#5548FF"/>
<path d="M376.169 525.482C375.56 522.606 377.339 523.764 379.106 522.667C383.993 519.62 385.151 518.267 381.592 512.942C383.237 510.188 386.235 514.819 386.735 516.659C388.027 521.46 380.581 526.469 376.157 525.494L376.169 525.482Z" fill="#5548FF"/>
<path d="M150.739 528.2L145.998 524.812C148.594 524.471 151.056 525.129 150.739 528.2Z" fill="#5548FF"/>
<path d="M181.889 524.215C182.449 525.214 181.669 526.993 180.365 526.786C179.805 526.701 172.078 521.022 173.163 520.059C174.759 519.133 181.499 523.52 181.889 524.215Z" fill="#5548FF"/>
<path d="M566.979 288.435V304.741H551.355C552.915 296.625 559.057 290.519 566.979 288.435Z" fill="#5548FF"/>
<path d="M260.066 389.647V405.271H245.125C245.832 397.544 252.608 391.232 260.066 389.647Z" fill="#5548FF"/>
<path d="M630.13 371.976C630.057 372.049 628.253 372.062 628.094 371.976C628.021 371.94 628.716 371.196 628.143 370.282C627.741 369.636 619.807 361.703 619.259 361.41C618.272 360.899 618.26 361.252 617.541 361.752C616.456 362.495 609.571 369.673 609.339 370.587C611.508 374.706 615.128 378.045 618.93 380.69C620.149 380.69 624.719 373.159 627.412 374.024C625.767 375.608 620.916 382.871 618.93 382.871C617.334 382.871 608.474 372.683 606.536 370.965C606.426 369.6 616.736 359.655 618.845 358.437C619.576 358.571 629.057 368.138 629.496 368.881C629.935 369.624 630.593 371.525 630.142 371.964L630.13 371.976Z" fill="#5548FF"/>
<path d="M504.85 547.236C505.228 547.662 506.215 548.125 505.545 548.564C505.216 548.162 504.18 547.711 504.85 547.236Z" fill="#5548FF"/>
<path d="M119.979 283.073C120.917 282.829 121.222 283.183 121.904 283.646C123.257 284.56 132.141 293.932 132.312 295.016C129.387 299.806 125.122 303.571 121.1 307.41L115.092 302.706C113.812 298.989 106.963 297.368 109.279 293.505C109.779 292.676 119.248 283.28 119.979 283.085V283.073ZM120.527 285.047L110.729 295.467C112.411 296.942 118.967 304.754 120.527 304.754C124.61 302.462 127.108 298.124 130.362 294.882L120.527 285.047Z" fill="#5548FF"/>
<path d="M613.848 600.2C614.043 597.506 603.575 588.001 605.013 586.624C607.535 584.198 614.726 596.714 617.212 597.823L613.848 600.2Z" fill="#5548FF"/>
<path d="M643.706 587.976C642.329 589.353 635.37 582.504 634.505 581.225C632.58 578.373 633.116 576.46 636.272 578.775C637.418 579.616 644.839 586.843 643.706 587.976Z" fill="#5548FF"/>
<path d="M133.676 617.274C135.431 620.016 131.592 619.138 129.996 618.59C124.609 616.725 118.175 607.134 121.892 601.577L130.374 615.494C130.788 616.579 133.506 617.005 133.689 617.274H133.676Z" fill="#5548FF"/>
<path d="M135.797 541.788C134.225 542.032 133.25 541.264 132.068 540.435C131.263 539.875 125.097 534.342 124.549 533.696C123.781 532.782 123.342 532.234 123.574 530.942C125.036 529.479 137.028 538.181 135.785 541.8L135.797 541.788Z" fill="#5548FF"/>
<path d="M111.35 531.6C111.07 531.868 105.549 531.819 106.61 529.236C107.743 526.469 112.886 530.089 111.35 531.6Z" fill="#5548FF"/>
<path d="M120.527 285.047L130.361 294.882C127.108 298.124 124.609 302.475 120.527 304.754C118.967 304.754 112.422 296.942 110.729 295.467L120.527 285.047Z" fill="white"/>
</g>
<defs>
<clipPath id="clip0_1391_1258">
<rect width="696" height="1039" fill="white"/>
</clipPath>
</defs>
</svg>
